{
	"patcher" : 	{
		"fileversion" : 1,
		"appversion" : 		{
			"major" : 8,
			"minor" : 0,
			"revision" : 8,
			"architecture" : "x64",
			"modernui" : 1
		}
,
		"classnamespace" : "box",
		"rect" : [ 270.0, 157.0, 889.0, 594.0 ],
		"bglocked" : 0,
		"openinpresentation" : 0,
		"default_fontsize" : 12.0,
		"default_fontface" : 0,
		"default_fontname" : "Theinhardt Light",
		"gridonopen" : 1,
		"gridsize" : [ 15.0, 15.0 ],
		"gridsnaponopen" : 1,
		"objectsnaponopen" : 1,
		"statusbarvisible" : 2,
		"toolbarvisible" : 1,
		"lefttoolbarpinned" : 0,
		"toptoolbarpinned" : 0,
		"righttoolbarpinned" : 0,
		"bottomtoolbarpinned" : 0,
		"toolbars_unpinned_last_save" : 0,
		"tallnewobj" : 0,
		"boxanimatetime" : 200,
		"enablehscroll" : 1,
		"enablevscroll" : 1,
		"devicewidth" : 0.0,
		"description" : "",
		"digest" : "",
		"tags" : "",
		"style" : "",
		"subpatcher_template" : "XEN-init_template",
		"boxes" : [ 			{
				"box" : 				{
					"fontname" : "Theinhardt Light",
					"fontsize" : 12.0,
					"id" : "obj-65",
					"maxclass" : "comment",
					"numinlets" : 1,
					"numoutlets" : 0,
					"patching_rect" : [ 121.5, 311.0, 76.0, 18.0 ],
					"text" : "args / update"
				}

			}
, 			{
				"box" : 				{
					"fontname" : "Theinhardt Light",
					"fontsize" : 14.0,
					"id" : "obj-61",
					"maxclass" : "comment",
					"numinlets" : 1,
					"numoutlets" : 0,
					"patching_rect" : [ 451.0, 63.0, 59.0, 20.0 ],
					"text" : "<none>"
				}

			}
, 			{
				"box" : 				{
					"border" : 1.57,
					"id" : "obj-59",
					"justification" : 2,
					"linecolor" : [ 1.0, 0.984314, 0.870588, 1.0 ],
					"maxclass" : "live.line",
					"numinlets" : 1,
					"numoutlets" : 0,
					"patching_rect" : [ 451.0, 12.0, 243.0, 6.0 ]
				}

			}
, 			{
				"box" : 				{
					"fontname" : "Theinhardt Light",
					"fontsize" : 18.0,
					"id" : "obj-60",
					"maxclass" : "comment",
					"numinlets" : 1,
					"numoutlets" : 0,
					"patching_rect" : [ 451.0, 20.0, 139.0, 24.0 ],
					"text" : "required patches:",
					"varname" : "title[3]"
				}

			}
, 			{
				"box" : 				{
					"fontname" : "Theinhardt Light",
					"fontsize" : 31.601106143802621,
					"id" : "obj-49",
					"maxclass" : "comment",
					"numinlets" : 1,
					"numoutlets" : 0,
					"patching_rect" : [ 14.0, 18.7855224609375, 408.0, 38.0 ],
					"text" : "oni.midioutport",
					"varname" : "title[2]"
				}

			}
, 			{
				"box" : 				{
					"border" : 1.57,
					"id" : "obj-50",
					"justification" : 2,
					"linecolor" : [ 1.0, 0.984314, 0.870588, 1.0 ],
					"maxclass" : "live.line",
					"numinlets" : 1,
					"numoutlets" : 0,
					"patching_rect" : [ 40.0, 247.7855224609375, 509.0, 7.0 ]
				}

			}
, 			{
				"box" : 				{
					"fontname" : "Theinhardt Light",
					"fontsize" : 18.0,
					"id" : "obj-52",
					"maxclass" : "comment",
					"numinlets" : 1,
					"numoutlets" : 0,
					"patching_rect" : [ 40.0, 256.7855224609375, 280.0, 24.0 ],
					"text" : "controllers",
					"varname" : "title[1]"
				}

			}
, 			{
				"box" : 				{
					"fontname" : "Theinhardt Light",
					"fontsize" : 14.0,
					"id" : "obj-56",
					"maxclass" : "comment",
					"numinlets" : 1,
					"numoutlets" : 0,
					"patching_rect" : [ 14.0, 107.0, 410.0, 20.0 ],
					"text" : "args:"
				}

			}
, 			{
				"box" : 				{
					"border" : 1.57,
					"id" : "obj-57",
					"justification" : 2,
					"linecolor" : [ 1.0, 0.984314, 0.870588, 1.0 ],
					"maxclass" : "live.line",
					"numinlets" : 1,
					"numoutlets" : 0,
					"patching_rect" : [ 14.0, 12.0, 408.0, 5.0 ]
				}

			}
, 			{
				"box" : 				{
					"fontname" : "Theinhardt Light",
					"fontsize" : 18.0,
					"id" : "obj-131",
					"linecount" : 2,
					"maxclass" : "comment",
					"numinlets" : 1,
					"numoutlets" : 0,
					"patching_rect" : [ 14.0, 63.0, 410.0, 42.0 ],
					"text" : "checks if a desired MIDI output device is available and updates all connected nodes.",
					"varname" : "title"
				}

			}
, 			{
				"box" : 				{
					"bgcolor" : [ 0.0, 0.0, 0.0, 1.0 ],
					"color" : [ 0.333671, 0.378149, 0.42558, 1.0 ],
					"id" : "obj-47",
					"maxclass" : "newobj",
					"numinlets" : 2,
					"numoutlets" : 2,
					"outlettype" : [ "bang", "" ],
					"patching_rect" : [ 130.0, 522.5, 33.0, 20.0 ],
					"text" : "sel 1",
					"textcolor" : [ 0.862744987010956, 0.870588004589081, 0.878431022167206, 1.0 ]
				}

			}
, 			{
				"box" : 				{
					"bgcolor" : [ 0.0, 0.0, 0.0, 1.0 ],
					"color" : [ 0.333671, 0.378149, 0.42558, 1.0 ],
					"id" : "obj-45",
					"maxclass" : "newobj",
					"numinlets" : 2,
					"numoutlets" : 2,
					"outlettype" : [ "bang", "" ],
					"patching_rect" : [ 211.0, 664.0, 41.0, 20.0 ],
					"text" : "sel set",
					"textcolor" : [ 0.862744987010956, 0.870588004589081, 0.878431022167206, 1.0 ]
				}

			}
, 			{
				"box" : 				{
					"bgcolor" : [ 0.278431, 0.32549, 0.305882, 1.0 ],
					"color" : [ 0.345098, 0.513725, 0.572549, 1.0 ],
					"id" : "obj-43",
					"maxclass" : "newobj",
					"numinlets" : 2,
					"numoutlets" : 2,
					"outlettype" : [ "", "" ],
					"patching_rect" : [ 130.0, 575.0, 46.0, 20.0 ],
					"text" : "zl 1 reg",
					"textcolor" : [ 0.921568989753723, 0.717647016048431, 0.117646999657154, 1.0 ]
				}

			}
, 			{
				"box" : 				{
					"id" : "obj-42",
					"linecount" : 2,
					"maxclass" : "newobj",
					"numinlets" : 1,
					"numoutlets" : 1,
					"outlettype" : [ "" ],
					"patching_rect" : [ 103.0, 658.0, 54.0, 32.0 ],
					"text" : "prepend symbol"
				}

			}
, 			{
				"box" : 				{
					"bgcolor" : [ 0.811765, 1.0, 0.976471, 1.0 ],
					"color" : [ 0.211765, 0.898039, 0.576471, 1.0 ],
					"id" : "obj-40",
					"maxclass" : "newobj",
					"numinlets" : 2,
					"numoutlets" : 1,
					"outlettype" : [ "" ],
					"patching_rect" : [ 103.0, 619.0, 46.0, 20.0 ],
					"text" : "gate",
					"textcolor" : [ 0.0, 0.0, 0.0, 1.0 ]
				}

			}
, 			{
				"box" : 				{
					"bgcolor" : [ 0.811765, 1.0, 0.976471, 1.0 ],
					"color" : [ 0.211765, 0.898039, 0.576471, 1.0 ],
					"id" : "obj-33",
					"maxclass" : "newobj",
					"numinlets" : 2,
					"numoutlets" : 1,
					"outlettype" : [ "" ],
					"patching_rect" : [ 713.0, 910.0, 31.0, 20.0 ],
					"text" : "gate",
					"textcolor" : [ 0.0, 0.0, 0.0, 1.0 ]
				}

			}
, 			{
				"box" : 				{
					"color" : [ 0.490196, 0.498039, 0.517647, 1.0 ],
					"id" : "obj-31",
					"maxclass" : "newobj",
					"numinlets" : 2,
					"numoutlets" : 1,
					"outlettype" : [ "int" ],
					"patching_rect" : [ 403.54998779296875, 407.0, 31.0, 20.0 ],
					"text" : "!= 0",
					"textcolor" : [ 0.909223020076752, 0.564040005207062, 0.03158900141716, 1.0 ]
				}

			}
, 			{
				"box" : 				{
					"bgcolor" : [ 0.882353, 0.654902, 0.007843, 1.0 ],
					"color" : [ 0.164377, 0.195147, 0.31135, 1.0 ],
					"id" : "obj-48",
					"maxclass" : "newobj",
					"numinlets" : 2,
					"numoutlets" : 1,
					"outlettype" : [ "" ],
					"patching_rect" : [ 460.25, 924.0, 41.0, 20.0 ],
					"text" : "pipe 5",
					"textcolor" : [ 0.717647016048431, 0.141176000237465, 0.23921599984169, 1.0 ]
				}

			}
, 			{
				"box" : 				{
					"fontname" : "Theinhardt Light",
					"fontsize" : 12.0,
					"id" : "obj-32",
					"maxclass" : "message",
					"numinlets" : 2,
					"numoutlets" : 1,
					"outlettype" : [ "" ],
					"patching_rect" : [ 449.45001220703125, 466.0, 98.0, 20.0 ],
					"text" : "autopolloutput $1"
				}

			}
, 			{
				"box" : 				{
					"bgcolor" : [ 0.290196, 0.309804, 0.301961, 1.0 ],
					"color" : [ 0.652473, 0.275229, 0.107814, 1.0 ],
					"id" : "obj-14",
					"maxclass" : "newobj",
					"numinlets" : 1,
					"numoutlets" : 2,
					"outlettype" : [ "bang", "int" ],
					"patching_rect" : [ 211.0, 407.0, 36.0, 20.0 ],
					"text" : "t b -1",
					"textcolor" : [ 0.921568989753723, 0.917647004127502, 0.933332979679108, 1.0 ]
				}

			}
, 			{
				"box" : 				{
					"id" : "obj-11",
					"maxclass" : "newobj",
					"numinlets" : 1,
					"numoutlets" : 1,
					"outlettype" : [ "" ],
					"patching_rect" : [ 503.0, 619.0, 68.0, 20.0 ],
					"text" : "prepend set"
				}

			}
, 			{
				"box" : 				{
					"color" : [ 0.490196, 0.498039, 0.517647, 1.0 ],
					"id" : "obj-64",
					"maxclass" : "newobj",
					"numinlets" : 2,
					"numoutlets" : 1,
					"outlettype" : [ "int" ],
					"patching_rect" : [ 322.0, 1044.875, 31.0, 20.0 ],
					"text" : "!= 0",
					"textcolor" : [ 0.909223020076752, 0.564040005207062, 0.03158900141716, 1.0 ]
				}

			}
, 			{
				"box" : 				{
					"bgcolor" : [ 0.278431, 0.32549, 0.305882, 1.0 ],
					"color" : [ 0.345098, 0.513725, 0.572549, 1.0 ],
					"id" : "obj-63",
					"maxclass" : "newobj",
					"numinlets" : 2,
					"numoutlets" : 2,
					"outlettype" : [ "", "" ],
					"patching_rect" : [ 322.0, 1010.25, 40.0, 20.0 ],
					"text" : "zl sum",
					"textcolor" : [ 0.921568989753723, 0.717647016048431, 0.117646999657154, 1.0 ]
				}

			}
, 			{
				"box" : 				{
					"bgcolor" : [ 0.481539, 0.0, 0.0, 1.0 ],
					"color" : [ 0.196078, 0.223529, 0.25098, 1.0 ],
					"id" : "obj-62",
					"maxclass" : "newobj",
					"numinlets" : 1,
					"numoutlets" : 1,
					"outlettype" : [ "" ],
					"patching_rect" : [ 256.75, 932.0, 51.0, 20.0 ],
					"text" : "deferlow",
					"textcolor" : [ 1.0, 0.984314024448395, 0.870588004589081, 1.0 ]
				}

			}
, 			{
				"box" : 				{
					"bgcolor" : [ 0.290196, 0.309804, 0.301961, 1.0 ],
					"color" : [ 0.290196, 0.309804, 0.301961, 1.0 ],
					"id" : "obj-41",
					"maxclass" : "newobj",
					"numinlets" : 1,
					"numoutlets" : 3,
					"outlettype" : [ "", "int", "int" ],
					"patching_rect" : [ 322.0, 1089.5, 60.0, 20.0 ],
					"text" : "change -1",
					"textcolor" : [ 0.764706015586853, 0.592157006263733, 0.101961001753807, 1.0 ]
				}

			}
, 			{
				"box" : 				{
					"bgcolor" : [ 0.278431, 0.32549, 0.305882, 1.0 ],
					"color" : [ 0.345098, 0.513725, 0.572549, 1.0 ],
					"id" : "obj-30",
					"maxclass" : "newobj",
					"numinlets" : 2,
					"numoutlets" : 2,
					"outlettype" : [ "", "" ],
					"patching_rect" : [ 322.0, 975.0, 48.0, 20.0 ],
					"text" : "zl group",
					"textcolor" : [ 0.921568989753723, 0.717647016048431, 0.117646999657154, 1.0 ]
				}

			}
, 			{
				"box" : 				{
					"bgcolor" : [ 0.344535, 0.418209, 0.290269, 1.0 ],
					"color" : [ 0.45522, 0.188215, 0.381035, 1.0 ],
					"hidden" : 1,
					"id" : "obj-1",
					"maxclass" : "newobj",
					"numinlets" : 2,
					"numoutlets" : 2,
					"outlettype" : [ "", "" ],
					"patching_rect" : [ 664.75, 449.5, 68.0, 20.0 ],
					"text" : "routepass 0",
					"textcolor" : [ 1.0, 1.0, 1.0, 1.0 ]
				}

			}
, 			{
				"box" : 				{
					"bgcolor" : [ 0.144559, 0.235989, 0.253663, 1.0 ],
					"color" : [ 0.131533, 0.389636, 0.42757, 1.0 ],
					"hidden" : 1,
					"id" : "obj-27",
					"maxclass" : "newobj",
					"numinlets" : 2,
					"numoutlets" : 1,
					"outlettype" : [ "bang" ],
					"patching_rect" : [ 664.75, 522.5, 37.0, 20.0 ],
					"text" : "metro",
					"textcolor" : [ 0.986199975013733, 0.056230999529362, 0.376417994499207, 1.0 ]
				}

			}
, 			{
				"box" : 				{
					"fontname" : "Theinhardt Light",
					"fontsize" : 12.0,
					"hidden" : 1,
					"id" : "obj-21",
					"maxclass" : "message",
					"numinlets" : 2,
					"numoutlets" : 1,
					"outlettype" : [ "" ],
					"patching_rect" : [ 713.75, 488.0, 75.0, 20.0 ],
					"text" : "interval $1, 1"
				}

			}
, 			{
				"box" : 				{
					"bgcolor" : [ 0.344535, 0.418209, 0.290269, 1.0 ],
					"color" : [ 0.45522, 0.188215, 0.381035, 1.0 ],
					"id" : "obj-22",
					"maxclass" : "newobj",
					"numinlets" : 6,
					"numoutlets" : 6,
					"outlettype" : [ "", "", "", "", "", "" ],
					"patching_rect" : [ 311.75, 363.0, 248.5, 20.0 ],
					"text" : "route done loadbang poll autopoll select",
					"textcolor" : [ 1.0, 1.0, 1.0, 1.0 ]
				}

			}
, 			{
				"box" : 				{
					"bgcolor" : [ 0.545098, 0.85098, 0.592157, 1.0 ],
					"color" : [ 0.054902, 0.341176, 0.498039, 1.0 ],
					"id" : "obj-9",
					"maxclass" : "newobj",
					"numinlets" : 1,
					"numoutlets" : 2,
					"outlettype" : [ "", "" ],
					"patching_rect" : [ 256.75, 311.0, 74.0, 20.0 ],
					"text" : "patcherargs",
					"textcolor" : [ 0.0, 0.0, 0.0, 1.0 ]
				}

			}
, 			{
				"box" : 				{
					"fontname" : "Theinhardt Light",
					"fontsize" : 12.0,
					"id" : "obj-26",
					"linecount" : 6,
					"maxclass" : "comment",
					"numinlets" : 1,
					"numoutlets" : 0,
					"patching_rect" : [ 14.0, 134.0, 320.0, 79.0 ],
					"text" : "<symbol> port name\n\n@loadbang 0 stops midiports from being checked on load\n@poll [ms] checks the availability at the given interval (legacy)\n@autopoll 1 watches port changes automatically\n@select 1 chooses and outputs port at connected umenu"
				}

			}
, 			{
				"box" : 				{
					"bgcolor" : [ 0.811765, 1.0, 0.976471, 1.0 ],
					"color" : [ 0.211765, 0.898039, 0.576471, 1.0 ],
					"id" : "obj-25",
					"maxclass" : "newobj",
					"numinlets" : 2,
					"numoutlets" : 1,
					"outlettype" : [ "" ],
					"patching_rect" : [ 245.875, 520.5, 84.875, 20.0 ],
					"text" : "gate 1 1",
					"textcolor" : [ 0.0, 0.0, 0.0, 1.0 ]
				}

			}
, 			{
				"box" : 				{
					"bgcolor" : [ 0.29546, 0.33346, 0.376636, 1.0 ],
					"color" : [ 0.481539, 0.0, 0.0, 1.0 ],
					"id" : "obj-10",
					"maxclass" : "newobj",
					"numinlets" : 2,
					"numoutlets" : 1,
					"outlettype" : [ "" ],
					"patching_rect" : [ 753.0, 866.0, 82.0, 20.0 ],
					"text" : "speedlim 200",
					"textcolor" : [ 0.921568989753723, 0.917647004127502, 0.933332979679108, 1.0 ]
				}

			}
, 			{
				"box" : 				{
					"bgcolor" : [ 0.278431, 0.32549, 0.305882, 1.0 ],
					"color" : [ 0.345098, 0.513725, 0.572549, 1.0 ],
					"id" : "obj-29",
					"maxclass" : "newobj",
					"numinlets" : 2,
					"numoutlets" : 2,
					"outlettype" : [ "", "" ],
					"patching_rect" : [ 753.0, 775.0, 50.0, 20.0 ],
					"text" : "zl 1 reg",
					"textcolor" : [ 0.921568989753723, 0.717647016048431, 0.117646999657154, 1.0 ]
				}

			}
, 			{
				"box" : 				{
					"id" : "obj-8",
					"maxclass" : "newobj",
					"numinlets" : 1,
					"numoutlets" : 1,
					"outlettype" : [ "" ],
					"patching_rect" : [ 796.0, 664.0, 74.0, 20.0 ],
					"text" : "prepend set"
				}

			}
, 			{
				"box" : 				{
					"bgcolor" : [ 0.768627, 0.658824, 0.580392, 1.0 ],
					"color" : [ 0.458824, 0.733333, 0.690196, 1.0 ],
					"id" : "obj-58",
					"maxclass" : "newobj",
					"numinlets" : 1,
					"numoutlets" : 1,
					"outlettype" : [ "" ],
					"patching_rect" : [ 796.0, 698.5, 49.0, 20.0 ],
					"text" : "receive",
					"textcolor" : [ 0.0, 0.0, 0.0, 1.0 ]
				}

			}
, 			{
				"box" : 				{
					"bgcolor" : [ 0.223529, 0.160784, 0.117647, 1.0 ],
					"color" : [ 0.631373, 0.819608, 0.87451, 1.0 ],
					"id" : "obj-126",
					"maxclass" : "newobj",
					"numinlets" : 1,
					"numoutlets" : 0,
					"patching_rect" : [ 753.0, 975.0, 45.0, 20.0 ],
					"text" : "midiout",
					"textcolor" : [ 0.937255024909973, 0.764706015586853, 0.301961004734039, 1.0 ]
				}

			}
, 			{
				"box" : 				{
					"id" : "obj-4",
					"maxclass" : "newobj",
					"numinlets" : 1,
					"numoutlets" : 1,
					"outlettype" : [ "" ],
					"patching_rect" : [ 753.0, 910.0, 79.0, 20.0 ],
					"text" : "prepend port"
				}

			}
, 			{
				"box" : 				{
					"fontname" : "Theinhardt Light",
					"fontsize" : 12.0,
					"id" : "obj-39",
					"maxclass" : "comment",
					"numinlets" : 1,
					"numoutlets" : 0,
					"patching_rect" : [ 546.5, 575.0, 233.0, 18.0 ],
					"text" : "controllers to midiinfo looks for input ports"
				}

			}
, 			{
				"box" : 				{
					"fontname" : "Theinhardt Light",
					"fontsize" : 12.0,
					"id" : "obj-38",
					"maxclass" : "comment",
					"numinlets" : 1,
					"numoutlets" : 0,
					"patching_rect" : [ 229.875, 1271.0, 276.0, 18.0 ],
					"text" : "updates all nodes connected to given receive port"
				}

			}
, 			{
				"box" : 				{
					"fontname" : "Theinhardt Light",
					"fontsize" : 12.0,
					"id" : "obj-36",
					"maxclass" : "comment",
					"numinlets" : 1,
					"numoutlets" : 0,
					"patching_rect" : [ 229.875, 866.0, 77.0, 18.0 ],
					"text" : "umenu"
				}

			}
, 			{
				"box" : 				{
					"fontname" : "Theinhardt Light",
					"fontsize" : 12.0,
					"id" : "obj-34",
					"linecount" : 3,
					"maxclass" : "comment",
					"numinlets" : 1,
					"numoutlets" : 0,
					"patching_rect" : [ 361.75, 1189.5, 84.0, 42.0 ],
					"text" : "bool:\n1 = available\n0 = not found"
				}

			}
, 			{
				"box" : 				{
					"bgcolor" : [ 0.290196, 0.309804, 0.301961, 1.0 ],
					"color" : [ 0.652473, 0.275229, 0.107814, 1.0 ],
					"id" : "obj-13",
					"maxclass" : "newobj",
					"numinlets" : 1,
					"numoutlets" : 3,
					"outlettype" : [ "bang", "bang", "int" ],
					"patching_rect" : [ 211.0, 568.0, 227.0, 20.0 ],
					"text" : "t b b 0",
					"textcolor" : [ 0.921568989753723, 0.917647004127502, 0.933332979679108, 1.0 ]
				}

			}
, 			{
				"box" : 				{
					"bgcolor" : [ 1.0, 0.984314, 0.870588, 1.0 ],
					"color" : [ 0.77999, 0.753768, 0.620778, 1.0 ],
					"id" : "obj-28",
					"linecount" : 2,
					"maxclass" : "newobj",
					"numinlets" : 1,
					"numoutlets" : 1,
					"outlettype" : [ "" ],
					"patching_rect" : [ 534.0, 775.0, 107.0, 32.0 ],
					"text" : "sprintf symout update_%s_ports",
					"textcolor" : [ 0.0, 0.0, 0.0, 1.0 ]
				}

			}
, 			{
				"box" : 				{
					"id" : "obj-20",
					"maxclass" : "newobj",
					"numinlets" : 1,
					"numoutlets" : 1,
					"outlettype" : [ "" ],
					"patching_rect" : [ 534.0, 975.0, 84.0, 20.0 ],
					"text" : "prepend send"
				}

			}
, 			{
				"box" : 				{
					"bgcolor" : [ 0.290196, 0.309804, 0.301961, 1.0 ],
					"color" : [ 0.652473, 0.275229, 0.107814, 1.0 ],
					"id" : "obj-68",
					"maxclass" : "newobj",
					"numinlets" : 1,
					"numoutlets" : 3,
					"outlettype" : [ "", "", "" ],
					"patching_rect" : [ 315.0, 664.0, 457.0, 20.0 ],
					"text" : "t s s s",
					"textcolor" : [ 0.921568989753723, 0.917647004127502, 0.933332979679108, 1.0 ]
				}

			}
, 			{
				"box" : 				{
					"bgcolor" : [ 0.713726, 0.87451, 0.831373, 1.0 ],
					"color" : [ 0.768627, 0.521569, 0.392157, 1.0 ],
					"id" : "obj-18",
					"maxclass" : "newobj",
					"numinlets" : 1,
					"numoutlets" : 0,
					"patching_rect" : [ 167.0, 1271.0, 51.0, 20.0 ],
					"text" : "forward",
					"textcolor" : [ 0.0, 0.0, 0.0, 1.0 ]
				}

			}
, 			{
				"box" : 				{
					"comment" : "iterated list of MIDI Ports; connect to umenu to populate it with available ports",
					"id" : "obj-17",
					"index" : 1,
					"maxclass" : "outlet",
					"numinlets" : 1,
					"numoutlets" : 0,
					"patching_rect" : [ 233.875, 829.0, 30.0, 30.0 ]
				}

			}
, 			{
				"box" : 				{
					"bgcolor" : [ 0.811765, 1.0, 0.976471, 1.0 ],
					"color" : [ 0.211765, 0.898039, 0.576471, 1.0 ],
					"id" : "obj-51",
					"maxclass" : "newobj",
					"numinlets" : 2,
					"numoutlets" : 1,
					"outlettype" : [ "" ],
					"patching_rect" : [ 167.0, 932.0, 63.0, 20.0 ],
					"text" : "gate",
					"textcolor" : [ 0.0, 0.0, 0.0, 1.0 ]
				}

			}
, 			{
				"box" : 				{
					"comment" : "bool; 1 if given MIDI Port is connected (will send a bang to \"update_[portname]_ports\"), 0 if MIDI Port is not found",
					"id" : "obj-16",
					"index" : 2,
					"maxclass" : "outlet",
					"numinlets" : 1,
					"numoutlets" : 0,
					"patching_rect" : [ 321.75, 1189.5, 30.0, 30.0 ]
				}

			}
, 			{
				"box" : 				{
					"id" : "obj-15",
					"maxclass" : "newobj",
					"numinlets" : 1,
					"numoutlets" : 1,
					"outlettype" : [ "" ],
					"patching_rect" : [ 315.0, 711.0, 69.0, 20.0 ],
					"text" : "prepend re"
				}

			}
, 			{
				"box" : 				{
					"bgcolor" : [ 0.545098, 0.85098, 0.592157, 1.0 ],
					"color" : [ 0.054902, 0.341176, 0.498039, 1.0 ],
					"id" : "obj-12",
					"maxclass" : "newobj",
					"numinlets" : 1,
					"numoutlets" : 2,
					"outlettype" : [ "", "" ],
					"patching_rect" : [ 315.0, 619.0, 74.0, 20.0 ],
					"text" : "patcherargs",
					"textcolor" : [ 0.0, 0.0, 0.0, 1.0 ]
				}

			}
, 			{
				"box" : 				{
					"comment" : "anything; checks if given MIDI Port is connected",
					"id" : "obj-69",
					"index" : 1,
					"maxclass" : "inlet",
					"numinlets" : 0,
					"numoutlets" : 1,
					"outlettype" : [ "" ],
					"patching_rect" : [ 211.0, 306.0, 30.0, 30.0 ]
				}

			}
, 			{
				"box" : 				{
					"fontname" : "Theinhardt Light",
					"fontsize" : 12.0,
					"id" : "obj-120",
					"maxclass" : "comment",
					"numinlets" : 1,
					"numoutlets" : 0,
					"patching_rect" : [ 333.0, 641.0, 56.0, 18.0 ],
					"text" : "MIDI Port"
				}

			}
, 			{
				"box" : 				{
					"bgcolor" : [ 1.0, 0.984314, 0.870588, 1.0 ],
					"color" : [ 0.77999, 0.753768, 0.620778, 1.0 ],
					"fontname" : "Theinhardt Light",
					"fontsize" : 12.0,
					"id" : "obj-53",
					"maxclass" : "newobj",
					"numinlets" : 1,
					"numoutlets" : 5,
					"outlettype" : [ "", "", "", "", "" ],
					"patching_rect" : [ 256.75, 775.0, 184.0, 20.0 ],
					"text" : "regexp \"Fireface 400 (1B7) Port 1\"",
					"textcolor" : [ 0.0, 0.0, 0.0, 1.0 ]
				}

			}
, 			{
				"box" : 				{
					"bgcolor" : [ 0.290196, 0.309804, 0.301961, 1.0 ],
					"color" : [ 0.652473, 0.275229, 0.107814, 1.0 ],
					"fontname" : "Arial",
					"fontsize" : 12.0,
					"id" : "obj-46",
					"maxclass" : "newobj",
					"numinlets" : 1,
					"numoutlets" : 4,
					"outlettype" : [ "bang", "", "", "int" ],
					"patching_rect" : [ 211.0, 711.0, 87.625, 22.0 ],
					"text" : "t b l l 0",
					"textcolor" : [ 0.921568989753723, 0.917647004127502, 0.933332979679108, 1.0 ]
				}

			}
, 			{
				"box" : 				{
					"bgcolor" : [ 0.290196, 0.309804, 0.301961, 1.0 ],
					"color" : [ 0.652473, 0.275229, 0.107814, 1.0 ],
					"fontname" : "Arial",
					"fontsize" : 12.0,
					"id" : "obj-24",
					"maxclass" : "newobj",
					"numinlets" : 1,
					"numoutlets" : 2,
					"outlettype" : [ "int", "int" ],
					"patching_rect" : [ 419.0, 829.0, 34.0, 22.0 ],
					"text" : "t 0 0",
					"textcolor" : [ 0.921568989753723, 0.917647004127502, 0.933332979679108, 1.0 ]
				}

			}
, 			{
				"box" : 				{
					"bgcolor" : [ 0.290196, 0.309804, 0.301961, 1.0 ],
					"color" : [ 0.652473, 0.275229, 0.107814, 1.0 ],
					"fontname" : "Arial",
					"fontsize" : 12.0,
					"id" : "obj-23",
					"maxclass" : "newobj",
					"numinlets" : 1,
					"numoutlets" : 3,
					"outlettype" : [ "int", "int", "stop" ],
					"patching_rect" : [ 321.75, 829.0, 58.0, 22.0 ],
					"text" : "t 1 1 stop",
					"textcolor" : [ 0.921568989753723, 0.917647004127502, 0.933332979679108, 1.0 ]
				}

			}
, 			{
				"box" : 				{
					"bgcolor" : [ 1.0, 0.658824, 0.737255, 1.0 ],
					"color" : [ 0.635294, 0.254902, 0.529412, 1.0 ],
					"id" : "obj-2",
					"maxclass" : "newobj",
					"numinlets" : 2,
					"numoutlets" : 1,
					"outlettype" : [ "" ],
					"patching_rect" : [ 211.0, 619.0, 52.0, 20.0 ],
					"text" : "midiinfo",
					"textcolor" : [ 0.0, 0.0, 0.0, 1.0 ]
				}

			}
, 			{
				"box" : 				{
					"bgcolor" : [ 0.768627, 0.658824, 0.580392, 1.0 ],
					"color" : [ 0.458824, 0.733333, 0.690196, 1.0 ],
					"id" : "obj-5",
					"maxclass" : "newobj",
					"numinlets" : 0,
					"numoutlets" : 1,
					"outlettype" : [ "" ],
					"patching_rect" : [ 715.25, 11.7855224609375, 69.0, 20.0 ],
					"text" : "r colour-dict",
					"textcolor" : [ 0.0, 0.0, 0.0, 1.0 ]
				}

			}
, 			{
				"box" : 				{
					"bgcolor" : [ 0.937255, 0.796078, 0.0, 1.0 ],
					"color" : [ 0.50177, 0.501666, 0.0, 1.0 ],
					"fontname" : "Theinhardt Light",
					"fontsize" : 12.0,
					"id" : "obj-19",
					"maxclass" : "newobj",
					"numinlets" : 1,
					"numoutlets" : 2,
					"outlettype" : [ "", "" ],
					"patching_rect" : [ 715.25, 77.9521484375, 72.0, 20.0 ],
					"save" : [ "#N", "thispatcher", ";", "#Q", "end", ";" ],
					"text" : "thispatcher",
					"textcolor" : [ 0.0, 0.0, 0.0, 1.0 ]
				}

			}
, 			{
				"box" : 				{
					"bgcolor" : [ 0.547116, 0.396938, 0.623438, 1.0 ],
					"color" : [ 0.937255, 0.796078, 0.0, 1.0 ],
					"fontname" : "Theinhardt Light",
					"fontsize" : 12.0,
					"id" : "obj-404",
					"maxclass" : "newobj",
					"numinlets" : 1,
					"numoutlets" : 0,
					"patching_rect" : [ 715.25, 46.9521484375, 71.0, 20.0 ],
					"text" : "universal 1",
					"textcolor" : [ 1.0, 1.0, 1.0, 1.0 ]
				}

			}
 ],
		"lines" : [ 			{
				"patchline" : 				{
					"destination" : [ "obj-21", 0 ],
					"disabled" : 1,
					"hidden" : 1,
					"source" : [ "obj-1", 1 ]
				}

			}
, 			{
				"patchline" : 				{
					"destination" : [ "obj-27", 0 ],
					"disabled" : 1,
					"hidden" : 1,
					"source" : [ "obj-1", 0 ]
				}

			}
, 			{
				"patchline" : 				{
					"destination" : [ "obj-4", 0 ],
					"source" : [ "obj-10", 0 ]
				}

			}
, 			{
				"patchline" : 				{
					"destination" : [ "obj-41", 0 ],
					"midpoints" : [ 512.5, 1078.75, 331.5, 1078.75 ],
					"source" : [ "obj-11", 0 ]
				}

			}
, 			{
				"patchline" : 				{
					"destination" : [ "obj-68", 0 ],
					"source" : [ "obj-12", 0 ]
				}

			}
, 			{
				"patchline" : 				{
					"destination" : [ "obj-12", 0 ],
					"source" : [ "obj-13", 1 ]
				}

			}
, 			{
				"patchline" : 				{
					"destination" : [ "obj-2", 0 ],
					"source" : [ "obj-13", 0 ]
				}

			}
, 			{
				"patchline" : 				{
					"destination" : [ "obj-24", 0 ],
					"source" : [ "obj-13", 2 ]
				}

			}
, 			{
				"patchline" : 				{
					"destination" : [ "obj-11", 0 ],
					"midpoints" : [ 237.5, 509.5, 512.5, 509.5 ],
					"source" : [ "obj-14", 1 ]
				}

			}
, 			{
				"patchline" : 				{
					"destination" : [ "obj-13", 0 ],
					"source" : [ "obj-14", 0 ]
				}

			}
, 			{
				"patchline" : 				{
					"destination" : [ "obj-53", 0 ],
					"source" : [ "obj-15", 0 ]
				}

			}
, 			{
				"patchline" : 				{
					"destination" : [ "obj-45", 0 ],
					"source" : [ "obj-2", 0 ]
				}

			}
, 			{
				"patchline" : 				{
					"destination" : [ "obj-18", 0 ],
					"midpoints" : [ 543.5, 1250.0, 176.5, 1250.0 ],
					"source" : [ "obj-20", 0 ]
				}

			}
, 			{
				"patchline" : 				{
					"destination" : [ "obj-27", 0 ],
					"disabled" : 1,
					"hidden" : 1,
					"source" : [ "obj-21", 0 ]
				}

			}
, 			{
				"patchline" : 				{
					"destination" : [ "obj-1", 0 ],
					"disabled" : 1,
					"hidden" : 1,
					"source" : [ "obj-22", 2 ]
				}

			}
, 			{
				"patchline" : 				{
					"destination" : [ "obj-14", 0 ],
					"source" : [ "obj-22", 5 ]
				}

			}
, 			{
				"patchline" : 				{
					"destination" : [ "obj-25", 0 ],
					"midpoints" : [ 367.149999999999977, 451.25, 255.375, 451.25 ],
					"source" : [ "obj-22", 1 ]
				}

			}
, 			{
				"patchline" : 				{
					"destination" : [ "obj-25", 1 ],
					"source" : [ "obj-22", 0 ]
				}

			}
, 			{
				"patchline" : 				{
					"destination" : [ "obj-31", 0 ],
					"source" : [ "obj-22", 2 ]
				}

			}
, 			{
				"patchline" : 				{
					"destination" : [ "obj-32", 0 ],
					"source" : [ "obj-22", 3 ]
				}

			}
, 			{
				"patchline" : 				{
					"destination" : [ "obj-40", 0 ],
					"midpoints" : [ 504.850000000000023, 396.5, 112.5, 396.5 ],
					"source" : [ "obj-22", 4 ]
				}

			}
, 			{
				"patchline" : 				{
					"destination" : [ "obj-30", 0 ],
					"source" : [ "obj-23", 0 ]
				}

			}
, 			{
				"patchline" : 				{
					"destination" : [ "obj-48", 0 ],
					"source" : [ "obj-23", 2 ]
				}

			}
, 			{
				"patchline" : 				{
					"destination" : [ "obj-51", 0 ],
					"midpoints" : [ 350.75, 898.0, 176.5, 898.0 ],
					"source" : [ "obj-23", 1 ]
				}

			}
, 			{
				"patchline" : 				{
					"destination" : [ "obj-30", 0 ],
					"midpoints" : [ 428.5, 913.0, 331.5, 913.0 ],
					"source" : [ "obj-24", 0 ]
				}

			}
, 			{
				"patchline" : 				{
					"destination" : [ "obj-51", 0 ],
					"midpoints" : [ 443.5, 898.0, 176.5, 898.0 ],
					"source" : [ "obj-24", 1 ]
				}

			}
, 			{
				"patchline" : 				{
					"destination" : [ "obj-13", 0 ],
					"source" : [ "obj-25", 0 ]
				}

			}
, 			{
				"patchline" : 				{
					"destination" : [ "obj-13", 0 ],
					"disabled" : 1,
					"hidden" : 1,
					"source" : [ "obj-27", 0 ]
				}

			}
, 			{
				"patchline" : 				{
					"destination" : [ "obj-20", 0 ],
					"order" : 1,
					"source" : [ "obj-28", 0 ]
				}

			}
, 			{
				"patchline" : 				{
					"destination" : [ "obj-8", 0 ],
					"midpoints" : [ 543.5, 824.0, 884.0, 824.0, 884.0, 648.5, 805.5, 648.5 ],
					"order" : 0,
					"source" : [ "obj-28", 0 ]
				}

			}
, 			{
				"patchline" : 				{
					"destination" : [ "obj-10", 0 ],
					"source" : [ "obj-29", 0 ]
				}

			}
, 			{
				"patchline" : 				{
					"destination" : [ "obj-63", 0 ],
					"source" : [ "obj-30", 0 ]
				}

			}
, 			{
				"patchline" : 				{
					"destination" : [ "obj-32", 0 ],
					"source" : [ "obj-31", 0 ]
				}

			}
, 			{
				"patchline" : 				{
					"destination" : [ "obj-2", 0 ],
					"midpoints" : [ 458.95001220703125, 606.0, 220.5, 606.0 ],
					"source" : [ "obj-32", 0 ]
				}

			}
, 			{
				"patchline" : 				{
					"destination" : [ "obj-126", 0 ],
					"source" : [ "obj-33", 0 ]
				}

			}
, 			{
				"patchline" : 				{
					"destination" : [ "obj-126", 0 ],
					"source" : [ "obj-4", 0 ]
				}

			}
, 			{
				"patchline" : 				{
					"destination" : [ "obj-42", 0 ],
					"source" : [ "obj-40", 0 ]
				}

			}
, 			{
				"patchline" : 				{
					"destination" : [ "obj-16", 0 ],
					"order" : 1,
					"source" : [ "obj-41", 0 ]
				}

			}
, 			{
				"patchline" : 				{
					"destination" : [ "obj-33", 0 ],
					"midpoints" : [ 331.5, 1119.0, 699.0, 1119.0, 699.0, 895.0, 722.5, 895.0 ],
					"order" : 0,
					"source" : [ "obj-41", 0 ]
				}

			}
, 			{
				"patchline" : 				{
					"destination" : [ "obj-47", 0 ],
					"midpoints" : [ 331.5, 1135.5, 48.875, 1135.5, 48.875, 505.0, 139.5, 505.0 ],
					"order" : 2,
					"source" : [ "obj-41", 0 ]
				}

			}
, 			{
				"patchline" : 				{
					"destination" : [ "obj-17", 0 ],
					"source" : [ "obj-42", 0 ]
				}

			}
, 			{
				"patchline" : 				{
					"destination" : [ "obj-40", 1 ],
					"source" : [ "obj-43", 0 ]
				}

			}
, 			{
				"patchline" : 				{
					"destination" : [ "obj-46", 0 ],
					"source" : [ "obj-45", 1 ]
				}

			}
, 			{
				"patchline" : 				{
					"destination" : [ "obj-17", 0 ],
					"source" : [ "obj-46", 1 ]
				}

			}
, 			{
				"patchline" : 				{
					"destination" : [ "obj-48", 0 ],
					"midpoints" : [ 289.125, 753.5, 469.75, 753.5 ],
					"source" : [ "obj-46", 3 ]
				}

			}
, 			{
				"patchline" : 				{
					"destination" : [ "obj-51", 1 ],
					"order" : 1,
					"source" : [ "obj-46", 0 ]
				}

			}
, 			{
				"patchline" : 				{
					"destination" : [ "obj-53", 0 ],
					"source" : [ "obj-46", 2 ]
				}

			}
, 			{
				"patchline" : 				{
					"destination" : [ "obj-62", 0 ],
					"midpoints" : [ 220.5, 913.0, 266.25, 913.0 ],
					"order" : 0,
					"source" : [ "obj-46", 0 ]
				}

			}
, 			{
				"patchline" : 				{
					"destination" : [ "obj-43", 0 ],
					"source" : [ "obj-47", 0 ]
				}

			}
, 			{
				"patchline" : 				{
					"destination" : [ "obj-30", 0 ],
					"midpoints" : [ 469.75, 956.875, 331.5, 956.875 ],
					"source" : [ "obj-48", 0 ]
				}

			}
, 			{
				"patchline" : 				{
					"destination" : [ "obj-404", 0 ],
					"source" : [ "obj-5", 0 ]
				}

			}
, 			{
				"patchline" : 				{
					"destination" : [ "obj-18", 0 ],
					"source" : [ "obj-51", 0 ]
				}

			}
, 			{
				"patchline" : 				{
					"destination" : [ "obj-23", 0 ],
					"source" : [ "obj-53", 2 ]
				}

			}
, 			{
				"patchline" : 				{
					"destination" : [ "obj-29", 0 ],
					"source" : [ "obj-58", 0 ]
				}

			}
, 			{
				"patchline" : 				{
					"destination" : [ "obj-30", 0 ],
					"midpoints" : [ 266.25, 963.0, 331.5, 963.0 ],
					"source" : [ "obj-62", 0 ]
				}

			}
, 			{
				"patchline" : 				{
					"destination" : [ "obj-64", 0 ],
					"source" : [ "obj-63", 0 ]
				}

			}
, 			{
				"patchline" : 				{
					"destination" : [ "obj-41", 0 ],
					"source" : [ "obj-64", 0 ]
				}

			}
, 			{
				"patchline" : 				{
					"destination" : [ "obj-15", 0 ],
					"source" : [ "obj-68", 0 ]
				}

			}
, 			{
				"patchline" : 				{
					"destination" : [ "obj-28", 0 ],
					"source" : [ "obj-68", 1 ]
				}

			}
, 			{
				"patchline" : 				{
					"destination" : [ "obj-29", 0 ],
					"source" : [ "obj-68", 2 ]
				}

			}
, 			{
				"patchline" : 				{
					"destination" : [ "obj-22", 0 ],
					"midpoints" : [ 220.5, 349.0, 321.25, 349.0 ],
					"source" : [ "obj-69", 0 ]
				}

			}
, 			{
				"patchline" : 				{
					"destination" : [ "obj-58", 0 ],
					"source" : [ "obj-8", 0 ]
				}

			}
, 			{
				"patchline" : 				{
					"destination" : [ "obj-22", 0 ],
					"source" : [ "obj-9", 1 ]
				}

			}
, 			{
				"patchline" : 				{
					"destination" : [ "obj-43", 1 ],
					"midpoints" : [ 266.25, 375.5, 166.5, 375.5 ],
					"source" : [ "obj-9", 0 ]
				}

			}
 ],
		"styles" : [ 			{
				"name" : "AudioStatus_Menu",
				"default" : 				{
					"bgfillcolor" : 					{
						"type" : "color",
						"color" : [ 0.294118, 0.313726, 0.337255, 1 ],
						"color1" : [ 0.454902, 0.462745, 0.482353, 0.0 ],
						"color2" : [ 0.290196, 0.309804, 0.301961, 1.0 ],
						"angle" : 270.0,
						"proportion" : 0.39,
						"autogradient" : 0
					}

				}
,
				"parentstyle" : "",
				"multi" : 0
			}
, 			{
				"name" : "Xenorama",
				"default" : 				{
					"fontname" : [ "Theinhardt Light" ],
					"color" : [ 0.937255, 0.763913, 0.302615, 1.0 ],
					"textcolor" : [ 1.0, 0.984314, 0.870588, 1.0 ],
					"patchlinecolor" : [ 1.0, 0.984314, 0.870588, 0.741017 ],
					"bgfillcolor" : 					{
						"type" : "gradient",
						"color1" : [ 0.376471, 0.384314, 0.4, 1.0 ],
						"color2" : [ 0.290196, 0.309804, 0.301961, 1.0 ],
						"color" : [ 0.290196, 0.309804, 0.301961, 1.0 ],
						"angle" : 270.0,
						"proportion" : 0.39
					}

				}
,
				"parentstyle" : "",
				"multi" : 0
			}
, 			{
				"name" : "livid_sysex",
				"default" : 				{
					"accentcolor" : [ 0.596078, 0.174761, 0.100412, 1.0 ],
					"textcolor_inverse" : [ 0.683327, 0.922818, 0.83347, 1.0 ]
				}
,
				"parentstyle" : "",
				"multi" : 0
			}
, 			{
				"name" : "newobjBlue-1",
				"default" : 				{
					"accentcolor" : [ 0.317647, 0.654902, 0.976471, 1.0 ]
				}
,
				"parentstyle" : "",
				"multi" : 0
			}
, 			{
				"name" : "newobjBrown-1",
				"default" : 				{
					"accentcolor" : [ 0.654902, 0.572549, 0.376471, 1.0 ]
				}
,
				"parentstyle" : "",
				"multi" : 0
			}
, 			{
				"name" : "newobjCyan-1",
				"default" : 				{
					"accentcolor" : [ 0.029546, 0.773327, 0.821113, 1.0 ]
				}
,
				"parentstyle" : "",
				"multi" : 0
			}
, 			{
				"name" : "newobjGreen-1",
				"default" : 				{
					"accentcolor" : [ 0.0, 0.533333, 0.168627, 1.0 ]
				}
,
				"parentstyle" : "",
				"multi" : 0
			}
, 			{
				"name" : "newobjYellow-1",
				"default" : 				{
					"accentcolor" : [ 0.82517, 0.78181, 0.059545, 1.0 ],
					"fontsize" : [ 12.059008 ]
				}
,
				"parentstyle" : "",
				"multi" : 0
			}
, 			{
				"name" : "numberGold-1",
				"default" : 				{
					"accentcolor" : [ 0.764706, 0.592157, 0.101961, 1.0 ]
				}
,
				"parentstyle" : "",
				"multi" : 0
			}
, 			{
				"name" : "oni",
				"umenu" : 				{
					"elementcolor" : [ 0.376471, 0.384314, 0.4, 1.0 ],
					"color" : [ 0.376471, 0.384314, 0.4, 1.0 ],
					"textcolor_inverse" : [ 1.0, 0.984314, 0.870588, 1.0 ]
				}
,
				"button" : 				{
					"elementcolor" : [ 0.4, 0.486275, 0.505882, 1.0 ],
					"color" : [ 1.0, 0.741176, 0.196078, 1.0 ]
				}
,
				"parentstyle" : "oni_default-1",
				"multi" : 1
			}
, 			{
				"name" : "oni_default",
				"number" : 				{
					"accentcolor" : [ 0.4, 0.486275, 0.505882, 1.0 ],
					"selectioncolor" : [ 1.0, 0.741176, 0.196078, 1.0 ],
					"textcolor_inverse" : [ 1.0, 0.984314, 0.870588, 1.0 ]
				}
,
				"newobj" : 				{
					"accentcolor" : [ 0.501961, 0.501961, 0.0, 1.0 ],
					"bgcolor" : [ 0.937255, 0.898039, 0.0, 1.0 ],
					"textcolor_inverse" : [ 0.0, 0.0, 0.0, 1.0 ]
				}
,
				"button" : 				{
					"elementcolor" : [ 0.4, 0.486275, 0.505882, 1.0 ],
					"color" : [ 1.0, 0.741176, 0.196078, 1.0 ]
				}
,
				"dial" : 				{
					"elementcolor" : [ 0.376471, 0.384314, 0.4, 1.0 ]
				}
,
				"slider" : 				{
					"bgcolor" : [ 0.4, 0.486275, 0.505882, 1.0 ]
				}
,
				"umenu" : 				{
					"color" : [ 0.4, 0.486275, 0.505882, 1.0 ],
					"textcolor_inverse" : [ 1.0, 0.984314, 0.870588, 1.0 ],
					"bgfillcolor" : 					{
						"type" : "color",
						"color1" : [ 0.376471, 0.384314, 0.4, 1.0 ],
						"color2" : [ 0.290196, 0.309804, 0.301961, 1.0 ],
						"color" : [ 0.290196, 0.309804, 0.301961, 1.0 ],
						"angle" : 270.0,
						"proportion" : 0.39,
						"autogradient" : 0
					}

				}
,
				"textbutton" : 				{
					"color" : [ 1.0, 0.741176, 0.196078, 1.0 ],
					"selectioncolor" : [ 1.0, 0.741176, 0.196078, 0.66 ]
				}
,
				"panel" : 				{
					"color" : [ 0.803922, 0.898039, 0.909804, 1.0 ]
				}
,
				"parentstyle" : "",
				"multi" : 1
			}
, 			{
				"name" : "oni_default-1",
				"umenu" : 				{
					"fontname" : [ "Futura Std Book" ],
					"textcolor_inverse" : [ 1.0, 0.998287, 0.929809, 1.0 ],
					"bgfillcolor" : 					{
						"type" : "color",
						"color1" : [ 0.376471, 0.384314, 0.4, 1.0 ],
						"color2" : [ 0.290196, 0.309804, 0.301961, 1.0 ],
						"color" : [ 0.25098, 0.25098, 0.25098, 1.0 ],
						"angle" : 270.0,
						"proportion" : 0.39,
						"autogradient" : 0
					}

				}
,
				"tab" : 				{
					"fontname" : [ "Futura Std Book" ],
					"elementcolor" : [ 0.6, 0.6, 0.6, 0.15 ],
					"color" : [ 1.0, 0.741176, 0.196078, 0.84 ],
					"textcolor_inverse" : [ 0.400043, 0.485168, 0.504775, 1.0 ]
				}
,
				"comment" : 				{
					"fontname" : [ "Futura Std Book" ],
					"textjustification" : [ 2 ],
					"textcolor" : [ 1.0, 0.998287, 0.929809, 1.0 ],
					"fontsize" : [ 12.0 ]
				}
,
				"preset" : 				{
					"fontname" : [ "Futura Std Book" ],
					"accentcolor" : [ 0.411765, 0.568627, 0.588235, 0.71 ],
					"elementcolor" : [ 0.431373, 0.431373, 0.431373, 0.46 ],
					"bgcolor" : [ 0.25098, 0.25098, 0.25098, 1.0 ],
					"color" : [ 1.0, 0.741176, 0.196078, 1.0 ],
					"textcolor" : [ 1.0, 0.995412, 0.945192, 1.0 ]
				}
,
				"textbutton" : 				{
					"fontname" : [ "Futura Std Book" ],
					"accentcolor" : [ 0.4, 0.486275, 0.505882, 1.0 ],
					"elementcolor" : [ 0.25098, 0.25098, 0.25098, 1.0 ],
					"bgcolor" : [ 0.25098, 0.25098, 0.25098, 1.0 ],
					"color" : [ 1.0, 0.741176, 0.196078, 1.0 ],
					"selectioncolor" : [ 0.968627, 0.768627, 0.101961, 0.509804 ]
				}
,
				"number" : 				{
					"fontname" : [ "Futura Std Book" ],
					"fontsize" : [ 12.0 ]
				}
,
				"button" : 				{
					"elementcolor" : [ 1.0, 0.101961, 0.305882, 1.0 ],
					"bgcolor" : [ 0.25098, 0.25098, 0.25098, 0.0 ],
					"color" : [ 1.0, 0.101961, 0.305882, 1.0 ]
				}
,
				"dial" : 				{
					"elementcolor" : [ 0.376471, 0.384314, 0.4, 1.0 ],
					"bgcolor" : [ 0.875413, 0.933282, 0.915502, 0.0 ],
					"color" : [ 1.0, 0.741176, 0.196078, 1.0 ]
				}
,
				"slider" : 				{
					"bgcolor" : [ 1.0, 1.0, 1.0, 1.0 ],
					"color" : [ 1.0, 0.741176, 0.196078, 1.0 ]
				}
,
				"panel" : 				{
					"color" : [ 0.803922, 0.898039, 0.909804, 1.0 ],
					"bgfillcolor" : 					{
						"type" : "gradient",
						"color1" : [ 0.25098, 0.25098, 0.25098, 1.0 ],
						"color2" : [ 0.25098, 0.25098, 0.25098, 1.0 ],
						"color" : [ 0.290196, 0.309804, 0.301961, 1.0 ],
						"angle" : 270.0,
						"proportion" : 0.39
					}

				}
,
				"parentstyle" : "",
				"multi" : 1
			}
, 			{
				"name" : "oni_default-2",
				"comment" : 				{
					"fontname" : [ "Futura Std Book" ],
					"textjustification" : [ 2 ],
					"textcolor" : [ 1.0, 0.998287, 0.929809, 1.0 ],
					"fontsize" : [ 12.0 ]
				}
,
				"textbutton" : 				{
					"fontname" : [ "Futura Std Book" ],
					"accentcolor" : [ 0.4, 0.486275, 0.505882, 1.0 ],
					"elementcolor" : [ 0.25098, 0.25098, 0.25098, 1.0 ],
					"bgcolor" : [ 0.25098, 0.25098, 0.25098, 1.0 ],
					"color" : [ 1.0, 0.741176, 0.196078, 1.0 ],
					"selectioncolor" : [ 0.968627, 0.768627, 0.101961, 0.509804 ]
				}
,
				"number" : 				{
					"fontname" : [ "Futura Std Book" ],
					"selectioncolor" : [ 1.0, 0.741176, 0.196078, 1.0 ],
					"textcolor_inverse" : [ 1.0, 0.984314, 0.870588, 1.0 ]
				}
,
				"parentstyle" : "",
				"multi" : 1
			}
, 			{
				"name" : "oni_default-3",
				"comment" : 				{
					"fontname" : [ "Futura Std Book" ],
					"textjustification" : [ 2 ],
					"textcolor" : [ 1.0, 0.998287, 0.929809, 1.0 ],
					"fontsize" : [ 12.0 ]
				}
,
				"textbutton" : 				{
					"fontname" : [ "Futura Std Book" ],
					"accentcolor" : [ 0.4, 0.486275, 0.505882, 1.0 ],
					"elementcolor" : [ 0.25098, 0.25098, 0.25098, 1.0 ],
					"bgcolor" : [ 0.25098, 0.25098, 0.25098, 1.0 ],
					"color" : [ 1.0, 0.741176, 0.196078, 1.0 ],
					"selectioncolor" : [ 0.968627, 0.768627, 0.101961, 0.509804 ]
				}
,
				"number" : 				{
					"fontname" : [ "Futura Std Book" ],
					"selectioncolor" : [ 1.0, 0.741176, 0.196078, 1.0 ],
					"textcolor_inverse" : [ 1.0, 0.984314, 0.870588, 1.0 ]
				}
,
				"parentstyle" : "",
				"multi" : 1
			}
, 			{
				"name" : "oni_default-4",
				"comment" : 				{
					"fontname" : [ "Futura Std Book" ],
					"textjustification" : [ 2 ],
					"textcolor" : [ 1.0, 0.998287, 0.929809, 1.0 ],
					"fontsize" : [ 12.0 ]
				}
,
				"textbutton" : 				{
					"fontname" : [ "Futura Std Book" ],
					"accentcolor" : [ 0.4, 0.486275, 0.505882, 1.0 ],
					"elementcolor" : [ 0.25098, 0.25098, 0.25098, 1.0 ],
					"bgcolor" : [ 0.25098, 0.25098, 0.25098, 1.0 ],
					"color" : [ 1.0, 0.741176, 0.196078, 1.0 ],
					"selectioncolor" : [ 0.968627, 0.768627, 0.101961, 0.509804 ]
				}
,
				"number" : 				{
					"fontname" : [ "Futura Std Book" ],
					"selectioncolor" : [ 1.0, 0.741176, 0.196078, 1.0 ],
					"textcolor_inverse" : [ 1.0, 0.984314, 0.870588, 1.0 ]
				}
,
				"parentstyle" : "",
				"multi" : 1
			}
, 			{
				"name" : "oni_default-5",
				"comment" : 				{
					"fontname" : [ "Futura Std Book" ],
					"textjustification" : [ 2 ],
					"textcolor" : [ 1.0, 0.998287, 0.929809, 1.0 ],
					"fontsize" : [ 12.0 ]
				}
,
				"textbutton" : 				{
					"fontname" : [ "Futura Std Book" ],
					"accentcolor" : [ 0.4, 0.486275, 0.505882, 1.0 ],
					"elementcolor" : [ 0.25098, 0.25098, 0.25098, 1.0 ],
					"bgcolor" : [ 0.25098, 0.25098, 0.25098, 1.0 ],
					"color" : [ 1.0, 0.741176, 0.196078, 1.0 ],
					"selectioncolor" : [ 0.968627, 0.768627, 0.101961, 0.509804 ]
				}
,
				"number" : 				{
					"fontname" : [ "Futura Std Book" ],
					"selectioncolor" : [ 1.0, 0.741176, 0.196078, 1.0 ],
					"textcolor_inverse" : [ 1.0, 0.984314, 0.870588, 1.0 ]
				}
,
				"parentstyle" : "",
				"multi" : 1
			}
, 			{
				"name" : "panelViolet",
				"default" : 				{
					"bgfillcolor" : 					{
						"type" : "color",
						"color" : [ 0.372549, 0.196078, 0.486275, 0.2 ],
						"color1" : [ 0.454902, 0.462745, 0.482353, 1.0 ],
						"color2" : [ 0.290196, 0.309804, 0.301961, 1.0 ],
						"angle" : 270.0,
						"proportion" : 0.39,
						"autogradient" : 0
					}

				}
,
				"parentstyle" : "",
				"multi" : 0
			}
, 			{
				"name" : "patcherargs",
				"default" : 				{
					"accentcolor" : [ 0.054902, 0.341176, 0.498039, 1.0 ],
					"bgcolor" : [ 0.545098, 0.85098, 0.592157, 1.0 ],
					"textcolor_inverse" : [ 0.0, 0.0, 0.0, 1.0 ]
				}
,
				"parentstyle" : "",
				"multi" : 0
			}
, 			{
				"name" : "pattr001",
				"newobj" : 				{
					"accentcolor" : [ 0.501961, 0.501961, 0.0, 1.0 ],
					"bgcolor" : [ 0.937255, 0.898039, 0.0, 1.0 ],
					"textcolor_inverse" : [ 0.0, 0.0, 0.0, 1.0 ]
				}
,
				"parentstyle" : "",
				"multi" : 1
			}
, 			{
				"name" : "pattr_inv",
				"default" : 				{
					"accentcolor" : [ 0.356495, 0.111353, 0.074435, 1.0 ],
					"bgcolor" : [ 0.545098, 0.85098, 0.592157, 1.0 ],
					"textcolor_inverse" : [ 0.0, 0.0, 0.0, 1.0 ]
				}
,
				"parentstyle" : "",
				"multi" : 0
			}
, 			{
				"name" : "tap",
				"default" : 				{
					"fontname" : [ "Lato Light" ]
				}
,
				"parentstyle" : "",
				"multi" : 0
			}
, 			{
				"name" : "thisdevice",
				"default" : 				{
					"accentcolor" : [ 0.501961, 0.501961, 0.0, 1.0 ],
					"bgcolor" : [ 0.937255, 0.796078, 0.0, 1.0 ],
					"textcolor_inverse" : [ 0.0, 0.0, 0.0, 1.0 ]
				}
,
				"parentstyle" : "",
				"multi" : 0
			}
 ],
		"color" : [ 0.937255, 0.763913, 0.302615, 1.0 ],
		"textcolor" : [ 1.0, 0.984314, 0.870588, 1.0 ],
		"patchlinecolor" : [ 1.0, 0.984314, 0.870588, 0.741017 ],
		"bgcolor" : [ 0.25098, 0.25098, 0.25098, 1.0 ],
		"editing_bgcolor" : [ 0.431373, 0.431373, 0.431373, 1.0 ]
	}

}
