{
	"patcher" : 	{
		"fileversion" : 1,
		"appversion" : 		{
			"major" : 8,
			"minor" : 1,
			"revision" : 7,
			"architecture" : "x64",
			"modernui" : 1
		}
,
		"classnamespace" : "box",
		"rect" : [ 34.0, 79.0, 1495.0, 901.0 ],
		"bglocked" : 0,
		"openinpresentation" : 0,
		"default_fontsize" : 12.0,
		"default_fontface" : 0,
		"default_fontname" : "Theinhardt Light",
		"gridonopen" : 1,
		"gridsize" : [ 15.0, 15.0 ],
		"gridsnaponopen" : 1,
		"objectsnaponopen" : 1,
		"statusbarvisible" : 2,
		"toolbarvisible" : 1,
		"lefttoolbarpinned" : 0,
		"toptoolbarpinned" : 0,
		"righttoolbarpinned" : 0,
		"bottomtoolbarpinned" : 0,
		"toolbars_unpinned_last_save" : 0,
		"tallnewobj" : 0,
		"boxanimatetime" : 200,
		"enablehscroll" : 1,
		"enablevscroll" : 1,
		"devicewidth" : 0.0,
		"description" : "",
		"digest" : "",
		"tags" : "",
		"style" : "",
		"subpatcher_template" : "XEN-init_template",
		"assistshowspatchername" : 0,
		"boxes" : [ 			{
				"box" : 				{
					"id" : "obj-94",
					"maxclass" : "newobj",
					"numinlets" : 2,
					"numoutlets" : 2,
					"outlettype" : [ "", "" ],
					"patching_rect" : [ 253.5, 929.0, 39.0, 20.0 ],
					"text" : "buddy"
				}

			}
, 			{
				"box" : 				{
					"id" : "obj-80",
					"maxclass" : "newobj",
					"numinlets" : 1,
					"numoutlets" : 2,
					"outlettype" : [ "bang", "" ],
					"patching_rect" : [ 973.5, 845.0, 51.5, 20.0 ],
					"text" : "t b l"
				}

			}
, 			{
				"box" : 				{
					"id" : "obj-77",
					"maxclass" : "newobj",
					"numinlets" : 1,
					"numoutlets" : 1,
					"outlettype" : [ "" ],
					"patching_rect" : [ 1006.0, 885.0, 182.0, 20.0 ],
					"text" : "prepend script newdefault pak pak"
				}

			}
, 			{
				"box" : 				{
					"id" : "obj-76",
					"maxclass" : "message",
					"numinlets" : 2,
					"numoutlets" : 1,
					"outlettype" : [ "" ],
					"patching_rect" : [ 973.5, 983.0, 321.0, 20.0 ],
					"text" : "script offsetfrom pak sum 0 0 -50, script connect pak 0 sum 0"
				}

			}
, 			{
				"box" : 				{
					"id" : "obj-75",
					"linecount" : 2,
					"maxclass" : "message",
					"numinlets" : 2,
					"numoutlets" : 1,
					"outlettype" : [ "" ],
					"patching_rect" : [ 1280.199951171875, 582.0, 508.0, 32.0 ],
					"text" : "script newdefault pak join $1 @triggers -1, script offsetfrom pak sum 0 0 -50, script connect pak 0 sum 0"
				}

			}
, 			{
				"box" : 				{
					"fontname" : "Theinhardt Light",
					"fontsize" : 12.0,
					"id" : "obj-73",
					"maxclass" : "message",
					"numinlets" : 2,
					"numoutlets" : 1,
					"outlettype" : [ "" ],
					"patching_rect" : [ 1280.199951171875, 550.0, 629.0, 20.0 ],
					"text" : "script delete pak, script newdefault pak join $1 @triggers -1, script offsetfrom pak sum 0 0 -50, script connect pak 0 sum 0"
				}

			}
, 			{
				"box" : 				{
					"id" : "obj-72",
					"maxclass" : "newobj",
					"numinlets" : 1,
					"numoutlets" : 3,
					"outlettype" : [ "int", "int", "bang" ],
					"patching_rect" : [ 880.25, 692.0, 184.5, 20.0 ],
					"text" : "t i i b"
				}

			}
, 			{
				"box" : 				{
					"id" : "obj-67",
					"maxclass" : "message",
					"numinlets" : 2,
					"numoutlets" : 1,
					"outlettype" : [ "" ],
					"patching_rect" : [ 1045.5, 845.0, 50.0, 20.0 ],
					"text" : "0"
				}

			}
, 			{
				"box" : 				{
					"id" : "obj-65",
					"maxclass" : "newobj",
					"numinlets" : 2,
					"numoutlets" : 2,
					"outlettype" : [ "", "" ],
					"patching_rect" : [ 973.5, 805.0, 48.0, 20.0 ],
					"text" : "zl group"
				}

			}
, 			{
				"box" : 				{
					"id" : "obj-60",
					"maxclass" : "newobj",
					"numinlets" : 2,
					"numoutlets" : 1,
					"outlettype" : [ "int" ],
					"patching_rect" : [ 962.5, 767.0, 93.5, 20.0 ],
					"text" : "i"
				}

			}
, 			{
				"box" : 				{
					"id" : "obj-57",
					"maxclass" : "newobj",
					"numinlets" : 2,
					"numoutlets" : 2,
					"outlettype" : [ "", "" ],
					"patching_rect" : [ 880.25, 654.0, 175.75, 20.0 ],
					"text" : "buddy"
				}

			}
, 			{
				"box" : 				{
					"id" : "obj-52",
					"maxclass" : "newobj",
					"numinlets" : 2,
					"numoutlets" : 3,
					"outlettype" : [ "bang", "bang", "int" ],
					"patching_rect" : [ 963.0, 730.0, 40.0, 20.0 ],
					"text" : "uzi"
				}

			}
, 			{
				"box" : 				{
					"id" : "obj-58",
					"maxclass" : "message",
					"numinlets" : 2,
					"numoutlets" : 1,
					"outlettype" : [ "" ],
					"patching_rect" : [ 759.0, 484.0, 50.0, 20.0 ],
					"text" : "0"
				}

			}
, 			{
				"box" : 				{
					"id" : "obj-56",
					"maxclass" : "toggle",
					"numinlets" : 1,
					"numoutlets" : 1,
					"outlettype" : [ "int" ],
					"parameter_enable" : 0,
					"patching_rect" : [ 781.0, 417.0, 24.0, 24.0 ]
				}

			}
, 			{
				"box" : 				{
					"comment" : "",
					"id" : "obj-51",
					"index" : 2,
					"maxclass" : "inlet",
					"numinlets" : 0,
					"numoutlets" : 1,
					"outlettype" : [ "" ],
					"patching_rect" : [ 779.0, 342.0, 30.0, 30.0 ]
				}

			}
, 			{
				"box" : 				{
					"id" : "obj-54",
					"maxclass" : "newobj",
					"numinlets" : 1,
					"numoutlets" : 5,
					"outlettype" : [ "", "", "", "", "" ],
					"patching_rect" : [ 525.7333984375, 748.0, 218.0, 20.0 ],
					"text" : "regexp \\\\((\\\\d+)\\\\) @substitute minusnull"
				}

			}
, 			{
				"box" : 				{
					"id" : "obj-139",
					"maxclass" : "newobj",
					"numinlets" : 1,
					"numoutlets" : 2,
					"outlettype" : [ "bang", "int" ],
					"patching_rect" : [ 206.8333740234375, 1703.0, 32.0, 20.0 ],
					"text" : "t b 0"
				}

			}
, 			{
				"box" : 				{
					"id" : "obj-108",
					"maxclass" : "newobj",
					"numinlets" : 2,
					"numoutlets" : 1,
					"outlettype" : [ "int" ],
					"patching_rect" : [ 374.8333740234375, 1663.26812744140625, 29.5, 20.0 ],
					"text" : "i"
				}

			}
, 			{
				"box" : 				{
					"id" : "obj-103",
					"maxclass" : "newobj",
					"numinlets" : 2,
					"numoutlets" : 2,
					"outlettype" : [ "", "" ],
					"patching_rect" : [ 206.8333740234375, 1663.26812744140625, 85.0, 20.0 ],
					"text" : "route minusnull"
				}

			}
, 			{
				"box" : 				{
					"id" : "obj-102",
					"maxclass" : "message",
					"numinlets" : 2,
					"numoutlets" : 1,
					"outlettype" : [ "" ],
					"patching_rect" : [ 1034.0, 1266.0, 41.0, 20.0 ],
					"text" : "barger"
				}

			}
, 			{
				"box" : 				{
					"id" : "obj-101",
					"maxclass" : "message",
					"numinlets" : 2,
					"numoutlets" : 1,
					"outlettype" : [ "" ],
					"patching_rect" : [ 1000.0, 1266.0, 29.5, 20.0 ],
					"text" : "(0)"
				}

			}
, 			{
				"box" : 				{
					"id" : "obj-98",
					"maxclass" : "message",
					"numinlets" : 2,
					"numoutlets" : 1,
					"outlettype" : [ "" ],
					"patching_rect" : [ 966.0, 1341.0, 53.0, 20.0 ],
					"text" : "modgate"
				}

			}
, 			{
				"box" : 				{
					"id" : "obj-96",
					"maxclass" : "newobj",
					"numinlets" : 1,
					"numoutlets" : 5,
					"outlettype" : [ "", "", "", "", "" ],
					"patching_rect" : [ 1000.0, 1302.0, 218.0, 20.0 ],
					"text" : "regexp \\\\((\\\\d+)\\\\) @substitute minusnull"
				}

			}
, 			{
				"box" : 				{
					"id" : "obj-84",
					"maxclass" : "newobj",
					"numinlets" : 1,
					"numoutlets" : 5,
					"outlettype" : [ "", "", "", "", "" ],
					"patching_rect" : [ 897.0, 1075.0, 218.0, 20.0 ],
					"text" : "regexp \\\\((\\\\d+)\\\\) @substitute minusnull"
				}

			}
, 			{
				"box" : 				{
					"id" : "obj-111",
					"maxclass" : "newobj",
					"numinlets" : 2,
					"numoutlets" : 2,
					"outlettype" : [ "", "" ],
					"patching_rect" : [ 674.9833984375, 782.0, 84.0, 20.0 ],
					"text" : "route modgate"
				}

			}
, 			{
				"box" : 				{
					"id" : "obj-36",
					"maxclass" : "newobj",
					"numinlets" : 2,
					"numoutlets" : 2,
					"outlettype" : [ "", "" ],
					"patching_rect" : [ 779.8333740234375, 1828.428955078125, 155.0, 20.0 ],
					"text" : "substitute #0_mode mode"
				}

			}
, 			{
				"box" : 				{
					"id" : "obj-19",
					"maxclass" : "newobj",
					"numinlets" : 2,
					"numoutlets" : 2,
					"outlettype" : [ "", "" ],
					"patching_rect" : [ 720.3333740234375, 1543.134033203125, 155.0, 20.0 ],
					"text" : "substitute mode #0_mode"
				}

			}
, 			{
				"box" : 				{
					"bgcolor" : [ 0.278431, 0.32549, 0.305882, 1.0 ],
					"color" : [ 0.345098, 0.513725, 0.572549, 1.0 ],
					"id" : "obj-1",
					"maxclass" : "newobj",
					"numinlets" : 2,
					"numoutlets" : 2,
					"outlettype" : [ "", "" ],
					"patching_rect" : [ 572.3333740234375, 1312.0, 52.0, 20.0 ],
					"text" : "zl slice 1",
					"textcolor" : [ 0.921569, 0.717647, 0.117647, 1.0 ]
				}

			}
, 			{
				"box" : 				{
					"bgcolor" : [ 0.344535, 0.418209, 0.290269, 1.0 ],
					"color" : [ 0.45522, 0.188215, 0.381035, 1.0 ],
					"id" : "obj-49",
					"maxclass" : "newobj",
					"numinlets" : 2,
					"numoutlets" : 2,
					"outlettype" : [ "", "" ],
					"patching_rect" : [ 525.3333740234375, 1286.0, 66.0, 20.0 ],
					"text" : "route mode",
					"textcolor" : [ 1.0, 1.0, 1.0, 1.0 ]
				}

			}
, 			{
				"box" : 				{
					"id" : "obj-20",
					"maxclass" : "button",
					"numinlets" : 1,
					"numoutlets" : 1,
					"outlettype" : [ "bang" ],
					"parameter_enable" : 0,
					"patching_rect" : [ 544.0, 1149.0, 24.0, 24.0 ]
				}

			}
, 			{
				"box" : 				{
					"id" : "obj-45",
					"maxclass" : "newobj",
					"numinlets" : 1,
					"numoutlets" : 1,
					"outlettype" : [ "" ],
					"patching_rect" : [ 555.8333740234375, 2179.0, 139.0, 20.0 ],
					"text" : "prepend script newdefault"
				}

			}
, 			{
				"box" : 				{
					"bgcolor" : [ 0.290196, 0.309804, 0.301961, 1.0 ],
					"color" : [ 0.652473, 0.275229, 0.107814, 1.0 ],
					"id" : "obj-44",
					"maxclass" : "newobj",
					"numinlets" : 1,
					"numoutlets" : 2,
					"outlettype" : [ "", "" ],
					"patching_rect" : [ 555.8333740234375, 2103.928955078125, 63.5, 20.0 ],
					"text" : "t l l",
					"textcolor" : [ 0.921569, 0.917647, 0.933333, 1.0 ]
				}

			}
, 			{
				"box" : 				{
					"fontname" : "Theinhardt Light",
					"fontsize" : 12.0,
					"id" : "obj-17",
					"maxclass" : "message",
					"numinlets" : 2,
					"numoutlets" : 1,
					"outlettype" : [ "" ],
					"patching_rect" : [ 316.0, 560.0, 347.0, 20.0 ],
					"text" : "rlf_preview"
				}

			}
, 			{
				"box" : 				{
					"bgcolor" : [ 0.937255, 0.796078, 0.0, 1.0 ],
					"color" : [ 0.50177, 0.501666, 0.0, 1.0 ],
					"fontname" : "Theinhardt Light",
					"fontsize" : 12.0,
					"id" : "obj-43",
					"maxclass" : "newobj",
					"numinlets" : 1,
					"numoutlets" : 2,
					"outlettype" : [ "", "" ],
					"patching_rect" : [ 253.5, 1217.1666259765625, 72.0, 20.0 ],
					"save" : [ "#N", "thispatcher", ";", "#Q", "end", ";" ],
					"text" : "thispatcher",
					"textcolor" : [ 0.0, 0.0, 0.0, 1.0 ]
				}

			}
, 			{
				"box" : 				{
					"fontname" : "Theinhardt Light",
					"fontsize" : 12.0,
					"id" : "obj-38",
					"maxclass" : "message",
					"numinlets" : 2,
					"numoutlets" : 1,
					"outlettype" : [ "" ],
					"patching_rect" : [ 253.5, 1165.0, 102.0, 20.0 ],
					"text" : "script send amt $1"
				}

			}
, 			{
				"box" : 				{
					"id" : "obj-24",
					"maxclass" : "newobj",
					"numinlets" : 2,
					"numoutlets" : 1,
					"outlettype" : [ "int" ],
					"patching_rect" : [ 253.5, 1034.5, 39.0, 20.0 ],
					"text" : "i"
				}

			}
, 			{
				"box" : 				{
					"bgcolor" : [ 0.937255, 0.796078, 0.0, 1.0 ],
					"color" : [ 0.50177, 0.501666, 0.0, 1.0 ],
					"fontname" : "Theinhardt Light",
					"fontsize" : 12.0,
					"id" : "obj-16",
					"maxclass" : "newobj",
					"numinlets" : 1,
					"numoutlets" : 2,
					"outlettype" : [ "", "" ],
					"patching_rect" : [ 38.8333740234375, 2264.428955078125, 72.0, 20.0 ],
					"save" : [ "#N", "thispatcher", ";", "#Q", "end", ";" ],
					"text" : "thispatcher",
					"textcolor" : [ 0.0, 0.0, 0.0, 1.0 ]
				}

			}
, 			{
				"box" : 				{
					"bgcolor" : [ 0.937255, 0.796078, 0.0, 1.0 ],
					"color" : [ 0.50177, 0.501666, 0.0, 1.0 ],
					"fontname" : "Theinhardt Light",
					"fontsize" : 12.0,
					"id" : "obj-15",
					"maxclass" : "newobj",
					"numinlets" : 1,
					"numoutlets" : 2,
					"outlettype" : [ "", "" ],
					"patching_rect" : [ 1130.199951171875, 950.1666259765625, 72.0, 20.0 ],
					"save" : [ "#N", "thispatcher", ";", "#Q", "end", ";" ],
					"text" : "thispatcher",
					"textcolor" : [ 0.0, 0.0, 0.0, 1.0 ]
				}

			}
, 			{
				"box" : 				{
					"id" : "obj-14",
					"maxclass" : "newobj",
					"numinlets" : 2,
					"numoutlets" : 1,
					"outlettype" : [ "int" ],
					"patching_rect" : [ 515.199951171875, 864.5, 29.5, 20.0 ],
					"text" : "i"
				}

			}
, 			{
				"box" : 				{
					"id" : "obj-13",
					"maxclass" : "number",
					"numinlets" : 1,
					"numoutlets" : 2,
					"outlettype" : [ "", "bang" ],
					"parameter_enable" : 0,
					"patching_rect" : [ 515.199951171875, 908.0, 50.0, 20.0 ]
				}

			}
, 			{
				"box" : 				{
					"id" : "obj-7",
					"maxclass" : "newobj",
					"numinlets" : 1,
					"numoutlets" : 1,
					"outlettype" : [ "" ],
					"patching_rect" : [ 400.0999755859375, 647.5, 75.0, 20.0 ],
					"text" : "append bang"
				}

			}
, 			{
				"box" : 				{
					"bgcolor" : [ 0.290196, 0.309804, 0.301961, 1.0 ],
					"color" : [ 0.652473, 0.275229, 0.107814, 1.0 ],
					"id" : "obj-8",
					"maxclass" : "newobj",
					"numinlets" : 1,
					"numoutlets" : 3,
					"outlettype" : [ "", "", "int" ],
					"patching_rect" : [ 253.5, 609.0, 312.199951171875, 20.0 ],
					"text" : "t l l 1",
					"textcolor" : [ 0.921569, 0.917647, 0.933333, 1.0 ]
				}

			}
, 			{
				"box" : 				{
					"bgcolor" : [ 0.290196, 0.309804, 0.301961, 1.0 ],
					"color" : [ 0.80333, 0.486758, 0.705232, 1.0 ],
					"id" : "obj-9",
					"maxclass" : "newobj",
					"numinlets" : 1,
					"numoutlets" : 1,
					"outlettype" : [ "" ],
					"patching_rect" : [ 400.0999755859375, 676.0, 25.0, 20.0 ],
					"text" : "iter",
					"textcolor" : [ 0.921569, 0.917647, 0.933333, 1.0 ]
				}

			}
, 			{
				"box" : 				{
					"bgcolor" : [ 0.120676, 0.498039, 0.402411, 1.0 ],
					"color" : [ 0.035294, 0.203922, 0.290196, 1.0 ],
					"id" : "obj-10",
					"maxclass" : "newobj",
					"numinlets" : 5,
					"numoutlets" : 4,
					"outlettype" : [ "int", "", "", "int" ],
					"patching_rect" : [ 739.9833984375, 867.0, 61.0, 20.0 ],
					"text" : "counter",
					"textcolor" : [ 0.937255, 0.764706, 0.301961, 1.0 ]
				}

			}
, 			{
				"box" : 				{
					"bgcolor" : [ 0.290196, 0.309804, 0.301961, 1.0 ],
					"color" : [ 0.652473, 0.275229, 0.107814, 1.0 ],
					"id" : "obj-11",
					"maxclass" : "newobj",
					"numinlets" : 1,
					"numoutlets" : 1,
					"outlettype" : [ "bang" ],
					"patching_rect" : [ 739.9833984375, 819.0, 22.0, 20.0 ],
					"text" : "t b",
					"textcolor" : [ 0.921569, 0.917647, 0.933333, 1.0 ]
				}

			}
, 			{
				"box" : 				{
					"bgcolor" : [ 0.196078, 0.223529, 0.25098, 1.0 ],
					"color" : [ 0.482353, 0.0, 0.0, 1.0 ],
					"id" : "obj-12",
					"maxclass" : "newobj",
					"numinlets" : 1,
					"numoutlets" : 6,
					"outlettype" : [ "signal", "bang", "int", "float", "", "list" ],
					"patching_rect" : [ 400.0999755859375, 715.0, 176.0, 20.0 ],
					"text" : "typeroute~",
					"textcolor" : [ 1.0, 0.984314, 0.870588, 1.0 ]
				}

			}
, 			{
				"box" : 				{
					"fontname" : "Theinhardt Light",
					"fontsize" : 12.0,
					"id" : "obj-258",
					"maxclass" : "message",
					"numinlets" : 2,
					"numoutlets" : 1,
					"outlettype" : [ "" ],
					"patching_rect" : [ 600.3333740234375, 2137.428955078125, 88.0, 20.0 ],
					"text" : "script delete $1"
				}

			}
, 			{
				"box" : 				{
					"id" : "obj-251",
					"linecount" : 2,
					"maxclass" : "newobj",
					"numinlets" : 1,
					"numoutlets" : 1,
					"outlettype" : [ "" ],
					"patching_rect" : [ 555.8333740234375, 2028.178955078125, 130.0, 32.0 ],
					"text" : "append oni.modgate.component"
				}

			}
, 			{
				"box" : 				{
					"bgcolor" : [ 0.290196, 0.309804, 0.301961, 1.0 ],
					"color" : [ 0.089048, 0.464451, 0.299708, 1.0 ],
					"id" : "obj-246",
					"maxclass" : "newobj",
					"numinlets" : 3,
					"numoutlets" : 1,
					"outlettype" : [ "" ],
					"patching_rect" : [ 555.8333740234375, 2079.428955078125, 151.0, 20.0 ],
					"text" : "join 3",
					"textcolor" : [ 1.0, 1.0, 1.0, 1.0 ]
				}

			}
, 			{
				"box" : 				{
					"bgcolor" : [ 0.278431, 0.32549, 0.305882, 1.0 ],
					"color" : [ 0.345098, 0.513725, 0.572549, 1.0 ],
					"id" : "obj-245",
					"maxclass" : "newobj",
					"numinlets" : 2,
					"numoutlets" : 2,
					"outlettype" : [ "", "" ],
					"patching_rect" : [ 752.8333740234375, 1601.2144775390625, 136.166748046875, 20.0 ],
					"text" : "zl ecils 1",
					"textcolor" : [ 0.921569, 0.717647, 0.117647, 1.0 ]
				}

			}
, 			{
				"box" : 				{
					"bgcolor" : [ 0.278431, 0.32549, 0.305882, 1.0 ],
					"color" : [ 0.345098, 0.513725, 0.572549, 1.0 ],
					"id" : "obj-244",
					"maxclass" : "newobj",
					"numinlets" : 2,
					"numoutlets" : 2,
					"outlettype" : [ "", "" ],
					"patching_rect" : [ 719.8333740234375, 1571.160888671875, 52.0, 20.0 ],
					"text" : "zl slice 1",
					"textcolor" : [ 0.921569, 0.717647, 0.117647, 1.0 ]
				}

			}
, 			{
				"box" : 				{
					"bgcolor" : [ 0.937255, 0.796078, 0.0, 1.0 ],
					"color" : [ 0.50177, 0.501666, 0.0, 1.0 ],
					"id" : "obj-243",
					"maxclass" : "newobj",
					"numinlets" : 1,
					"numoutlets" : 2,
					"outlettype" : [ "", "" ],
					"patching_rect" : [ 719.8333740234375, 2193.21435546875, 64.0, 20.0 ],
					"save" : [ "#N", "thispatcher", ";", "#Q", "end", ";" ],
					"text" : "thispatcher",
					"textcolor" : [ 0.0, 0.0, 0.0, 1.0 ]
				}

			}
, 			{
				"box" : 				{
					"bgcolor" : [ 0.290196, 0.309804, 0.301961, 1.0 ],
					"color" : [ 0.652473, 0.275229, 0.107814, 1.0 ],
					"id" : "obj-226",
					"maxclass" : "newobj",
					"numinlets" : 1,
					"numoutlets" : 3,
					"outlettype" : [ "", "", "" ],
					"patching_rect" : [ 719.8333740234375, 1893.3753662109375, 139.0, 20.0 ],
					"text" : "t s s s",
					"textcolor" : [ 0.921569, 0.917647, 0.933333, 1.0 ]
				}

			}
, 			{
				"box" : 				{
					"bgcolor" : [ 1.0, 0.984314, 0.870588, 1.0 ],
					"color" : [ 0.77999, 0.753768, 0.620778, 1.0 ],
					"id" : "obj-227",
					"maxclass" : "newobj",
					"numinlets" : 2,
					"numoutlets" : 1,
					"outlettype" : [ "" ],
					"patching_rect" : [ 719.8333740234375, 1865.428955078125, 79.0, 20.0 ],
					"text" : "sprintf %i_%s",
					"textcolor" : [ 0.0, 0.0, 0.0, 1.0 ]
				}

			}
, 			{
				"box" : 				{
					"bgcolor" : [ 0.290196, 0.309804, 0.301961, 1.0 ],
					"color" : [ 0.652473, 0.275229, 0.107814, 1.0 ],
					"id" : "obj-228",
					"maxclass" : "newobj",
					"numinlets" : 1,
					"numoutlets" : 2,
					"outlettype" : [ "bang", "" ],
					"patching_rect" : [ 719.8333740234375, 1687.428955078125, 79.0, 20.0 ],
					"text" : "t b s",
					"textcolor" : [ 0.921569, 0.917647, 0.933333, 1.0 ]
				}

			}
, 			{
				"box" : 				{
					"id" : "obj-229",
					"maxclass" : "newobj",
					"numinlets" : 2,
					"numoutlets" : 1,
					"outlettype" : [ "int" ],
					"patching_rect" : [ 719.8333740234375, 1828.428955078125, 29.5, 20.0 ],
					"text" : "i"
				}

			}
, 			{
				"box" : 				{
					"color" : [ 0.490196, 0.498039, 0.517647, 1.0 ],
					"id" : "obj-238",
					"maxclass" : "newobj",
					"numinlets" : 2,
					"numoutlets" : 1,
					"outlettype" : [ "int" ],
					"patching_rect" : [ 870.0001220703125, 1899.928955078125, 29.5, 20.0 ],
					"text" : "- 1",
					"textcolor" : [ 0.996023, 0.809997, 0.403347, 1.0 ]
				}

			}
, 			{
				"box" : 				{
					"bgcolor" : [ 1.0, 0.984314, 0.870588, 1.0 ],
					"color" : [ 0.77999, 0.753768, 0.620778, 1.0 ],
					"id" : "obj-239",
					"maxclass" : "newobj",
					"numinlets" : 3,
					"numoutlets" : 1,
					"outlettype" : [ "" ],
					"patching_rect" : [ 719.8333740234375, 2079.428955078125, 169.166748046875, 20.0 ],
					"text" : "sprintf %s %s %i",
					"textcolor" : [ 0.0, 0.0, 0.0, 1.0 ]
				}

			}
, 			{
				"box" : 				{
					"fontname" : "Theinhardt Light",
					"fontsize" : 12.0,
					"id" : "obj-241",
					"maxclass" : "message",
					"numinlets" : 2,
					"numoutlets" : 1,
					"outlettype" : [ "" ],
					"patching_rect" : [ 719.8333740234375, 2128.428955078125, 314.0, 20.0 ],
					"text" : "script offsetfrom $1 $2 0 240 0, script connect $1 0 pak $3"
				}

			}
, 			{
				"box" : 				{
					"bgcolor" : [ 0.290196, 0.309804, 0.301961, 1.0 ],
					"color" : [ 0.089048, 0.464451, 0.299708, 1.0 ],
					"id" : "obj-201",
					"maxclass" : "newobj",
					"numinlets" : 2,
					"numoutlets" : 1,
					"outlettype" : [ "" ],
					"patching_rect" : [ 720.3333740234375, 1515.107177734375, 69.4000244140625, 20.0 ],
					"text" : "join",
					"textcolor" : [ 1.0, 1.0, 1.0, 1.0 ]
				}

			}
, 			{
				"box" : 				{
					"bgcolor" : [ 0.290196, 0.309804, 0.301961, 1.0 ],
					"color" : [ 0.089048, 0.464451, 0.299708, 1.0 ],
					"id" : "obj-62",
					"maxclass" : "newobj",
					"numinlets" : 2,
					"numoutlets" : 1,
					"outlettype" : [ "" ],
					"patching_rect" : [ 525.3333740234375, 1521.107177734375, 82.9000244140625, 20.0 ],
					"text" : "join",
					"textcolor" : [ 1.0, 1.0, 1.0, 1.0 ]
				}

			}
, 			{
				"box" : 				{
					"id" : "obj-61",
					"maxclass" : "number",
					"numinlets" : 1,
					"numoutlets" : 2,
					"outlettype" : [ "", "bang" ],
					"parameter_enable" : 0,
					"patching_rect" : [ 770.2333984375, 1385.0, 50.0, 20.0 ]
				}

			}
, 			{
				"box" : 				{
					"bgcolor" : [ 0.120676, 0.498039, 0.402411, 1.0 ],
					"color" : [ 0.035294, 0.203922, 0.290196, 1.0 ],
					"id" : "obj-59",
					"maxclass" : "newobj",
					"numinlets" : 5,
					"numoutlets" : 4,
					"outlettype" : [ "int", "", "", "int" ],
					"patching_rect" : [ 770.2333984375, 1349.0, 61.0, 20.0 ],
					"text" : "counter",
					"textcolor" : [ 0.937255, 0.764706, 0.301961, 1.0 ]
				}

			}
, 			{
				"box" : 				{
					"bgcolor" : [ 0.290196, 0.309804, 0.301961, 1.0 ],
					"color" : [ 0.652473, 0.275229, 0.107814, 1.0 ],
					"id" : "obj-46",
					"maxclass" : "newobj",
					"numinlets" : 1,
					"numoutlets" : 4,
					"outlettype" : [ "bang", "", "int", "dummy" ],
					"patching_rect" : [ 253.5, 997.1666259765625, 251.3333740234375, 20.0 ],
					"text" : "t b l 1 dummy",
					"textcolor" : [ 0.921569, 0.917647, 0.933333, 1.0 ]
				}

			}
, 			{
				"box" : 				{
					"bgcolor" : [ 0.811765, 1.0, 0.976471, 1.0 ],
					"color" : [ 0.211765, 0.898039, 0.576471, 1.0 ],
					"id" : "obj-203",
					"maxclass" : "newobj",
					"numinlets" : 2,
					"numoutlets" : 2,
					"outlettype" : [ "", "" ],
					"patching_rect" : [ 525.3333740234375, 1482.0, 214.0, 20.0 ],
					"text" : "gate 2",
					"textcolor" : [ 0.0, 0.0, 0.0, 1.0 ]
				}

			}
, 			{
				"box" : 				{
					"color" : [ 0.490196, 0.498039, 0.517647, 1.0 ],
					"id" : "obj-204",
					"maxclass" : "newobj",
					"numinlets" : 2,
					"numoutlets" : 1,
					"outlettype" : [ "int" ],
					"patching_rect" : [ 525.3333740234375, 1424.0, 29.5, 20.0 ],
					"text" : "+ 1",
					"textcolor" : [ 0.392137, 0.95897, 0.351168, 1.0 ]
				}

			}
, 			{
				"box" : 				{
					"bgcolor" : [ 0.196078, 0.223529, 0.25098, 1.0 ],
					"color" : [ 0.481539, 0.0, 0.0, 1.0 ],
					"id" : "obj-205",
					"maxclass" : "newobj",
					"numinlets" : 2,
					"numoutlets" : 1,
					"outlettype" : [ "int" ],
					"patching_rect" : [ 525.3333740234375, 1385.0, 29.5, 20.0 ],
					"text" : "> 1",
					"textcolor" : [ 0.8, 0.839216, 0.709804, 1.0 ]
				}

			}
, 			{
				"box" : 				{
					"bgcolor" : [ 0.278431, 0.32549, 0.305882, 1.0 ],
					"color" : [ 0.345098, 0.513725, 0.572549, 1.0 ],
					"id" : "obj-206",
					"maxclass" : "newobj",
					"numinlets" : 2,
					"numoutlets" : 2,
					"outlettype" : [ "", "" ],
					"patching_rect" : [ 525.3333740234375, 1349.0, 34.0, 20.0 ],
					"text" : "zl len",
					"textcolor" : [ 0.921569, 0.717647, 0.117647, 1.0 ]
				}

			}
, 			{
				"box" : 				{
					"bgcolor" : [ 0.290196, 0.309804, 0.301961, 1.0 ],
					"color" : [ 0.652473, 0.275229, 0.107814, 1.0 ],
					"id" : "obj-30",
					"maxclass" : "newobj",
					"numinlets" : 1,
					"numoutlets" : 3,
					"outlettype" : [ "", "", "bang" ],
					"patching_rect" : [ 461.433349609375, 1253.0, 146.800048828125, 20.0 ],
					"text" : "t l l b",
					"textcolor" : [ 0.921569, 0.917647, 0.933333, 1.0 ]
				}

			}
, 			{
				"box" : 				{
					"id" : "obj-29",
					"maxclass" : "newobj",
					"numinlets" : 1,
					"numoutlets" : 1,
					"outlettype" : [ "" ],
					"patching_rect" : [ 253.5, 647.5, 75.0, 20.0 ],
					"text" : "append bang"
				}

			}
, 			{
				"box" : 				{
					"bgcolor" : [ 0.278431, 0.32549, 0.305882, 1.0 ],
					"color" : [ 0.345098, 0.513725, 0.572549, 1.0 ],
					"id" : "obj-26",
					"maxclass" : "newobj",
					"numinlets" : 2,
					"numoutlets" : 2,
					"outlettype" : [ "", "" ],
					"patching_rect" : [ 398.6334228515625, 1165.0, 48.0, 20.0 ],
					"text" : "zl group",
					"textcolor" : [ 0.921569, 0.717647, 0.117647, 1.0 ]
				}

			}
, 			{
				"box" : 				{
					"bgcolor" : [ 0.290196, 0.309804, 0.301961, 1.0 ],
					"color" : [ 0.089048, 0.464451, 0.299708, 1.0 ],
					"id" : "obj-25",
					"maxclass" : "newobj",
					"numinlets" : 2,
					"numoutlets" : 1,
					"outlettype" : [ "" ],
					"patching_rect" : [ 461.433349609375, 1217.0, 88.0, 20.0 ],
					"text" : "join @triggers 1",
					"textcolor" : [ 1.0, 1.0, 1.0, 1.0 ]
				}

			}
, 			{
				"box" : 				{
					"bgcolor" : [ 0.290196, 0.309804, 0.301961, 1.0 ],
					"color" : [ 0.652473, 0.275229, 0.107814, 1.0 ],
					"id" : "obj-23",
					"maxclass" : "newobj",
					"numinlets" : 1,
					"numoutlets" : 2,
					"outlettype" : [ "", "bang" ],
					"patching_rect" : [ 461.433349609375, 1114.0, 30.0, 20.0 ],
					"text" : "t s b",
					"textcolor" : [ 0.921569, 0.917647, 0.933333, 1.0 ]
				}

			}
, 			{
				"box" : 				{
					"bgcolor" : [ 0.290196, 0.309804, 0.301961, 1.0 ],
					"color" : [ 0.80333, 0.486758, 0.705232, 1.0 ],
					"id" : "obj-18",
					"maxclass" : "newobj",
					"numinlets" : 1,
					"numoutlets" : 1,
					"outlettype" : [ "" ],
					"patching_rect" : [ 330.8333740234375, 1034.5, 25.0, 20.0 ],
					"text" : "iter",
					"textcolor" : [ 0.921569, 0.917647, 0.933333, 1.0 ]
				}

			}
, 			{
				"box" : 				{
					"bgcolor" : [ 0.196078, 0.223529, 0.25098, 1.0 ],
					"color" : [ 0.482353, 0.0, 0.0, 1.0 ],
					"id" : "obj-207",
					"maxclass" : "newobj",
					"numinlets" : 1,
					"numoutlets" : 6,
					"outlettype" : [ "signal", "bang", "int", "float", "", "list" ],
					"patching_rect" : [ 335.833251953124943, 1072.0, 176.000122070312557, 20.0 ],
					"text" : "typeroute~",
					"textcolor" : [ 1.0, 0.984314, 0.870588, 1.0 ]
				}

			}
, 			{
				"box" : 				{
					"id" : "obj-168",
					"maxclass" : "newobj",
					"numinlets" : 2,
					"numoutlets" : 1,
					"outlettype" : [ "int" ],
					"patching_rect" : [ 310.5, 425.2144775390625, 29.5, 20.0 ],
					"text" : "i",
					"varname" : "amt"
				}

			}
, 			{
				"box" : 				{
					"color" : [ 0.490196, 0.498039, 0.517647, 1.0 ],
					"id" : "obj-167",
					"maxclass" : "newobj",
					"numinlets" : 2,
					"numoutlets" : 1,
					"outlettype" : [ "int" ],
					"patching_rect" : [ 254.0, 460.4644775390625, 75.5, 20.0 ],
					"text" : "==",
					"textcolor" : [ 0.909223, 0.56404, 0.031589, 1.0 ]
				}

			}
, 			{
				"box" : 				{
					"bgcolor" : [ 0.290196, 0.309804, 0.301961, 1.0 ],
					"color" : [ 0.652473, 0.275229, 0.107814, 1.0 ],
					"id" : "obj-79",
					"maxclass" : "newobj",
					"numinlets" : 1,
					"numoutlets" : 2,
					"outlettype" : [ "", "" ],
					"patching_rect" : [ 38.8333740234375, 1893.3753662109375, 29.5, 20.0 ],
					"text" : "t s s",
					"textcolor" : [ 0.921569, 0.917647, 0.933333, 1.0 ]
				}

			}
, 			{
				"box" : 				{
					"bgcolor" : [ 1.0, 0.984314, 0.870588, 1.0 ],
					"color" : [ 0.77999, 0.753768, 0.620778, 1.0 ],
					"id" : "obj-78",
					"maxclass" : "newobj",
					"numinlets" : 2,
					"numoutlets" : 1,
					"outlettype" : [ "" ],
					"patching_rect" : [ 38.8333740234375, 1854.3753662109375, 79.0, 20.0 ],
					"text" : "sprintf %i_%s",
					"textcolor" : [ 0.0, 0.0, 0.0, 1.0 ]
				}

			}
, 			{
				"box" : 				{
					"bgcolor" : [ 0.290196, 0.309804, 0.301961, 1.0 ],
					"color" : [ 0.652473, 0.275229, 0.107814, 1.0 ],
					"id" : "obj-64",
					"maxclass" : "newobj",
					"numinlets" : 1,
					"numoutlets" : 3,
					"outlettype" : [ "bang", "", "" ],
					"patching_rect" : [ 38.8333740234375, 1661.3753662109375, 71.0, 20.0 ],
					"text" : "t b s s",
					"textcolor" : [ 0.921569, 0.917647, 0.933333, 1.0 ]
				}

			}
, 			{
				"box" : 				{
					"id" : "obj-63",
					"maxclass" : "newobj",
					"numinlets" : 2,
					"numoutlets" : 1,
					"outlettype" : [ "int" ],
					"patching_rect" : [ 38.8333740234375, 1814.3753662109375, 29.5, 20.0 ],
					"text" : "i"
				}

			}
, 			{
				"box" : 				{
					"bgcolor" : [ 0.278431, 0.32549, 0.305882, 1.0 ],
					"color" : [ 0.345098, 0.513725, 0.572549, 1.0 ],
					"id" : "obj-55",
					"maxclass" : "newobj",
					"numinlets" : 2,
					"numoutlets" : 2,
					"outlettype" : [ "", "" ],
					"patching_rect" : [ 469.8333740234375, 2036.3753662109375, 35.0, 20.0 ],
					"text" : "zl reg",
					"textcolor" : [ 0.921569, 0.717647, 0.117647, 1.0 ]
				}

			}
, 			{
				"box" : 				{
					"bgcolor" : [ 0.290196, 0.309804, 0.301961, 1.0 ],
					"color" : [ 0.652473, 0.275229, 0.107814, 1.0 ],
					"id" : "obj-53",
					"maxclass" : "newobj",
					"numinlets" : 1,
					"numoutlets" : 2,
					"outlettype" : [ "", "bang" ],
					"patching_rect" : [ 458.8333740234375, 1986.3753662109375, 30.0, 20.0 ],
					"text" : "t s b",
					"textcolor" : [ 0.921569, 0.917647, 0.933333, 1.0 ]
				}

			}
, 			{
				"box" : 				{
					"id" : "obj-42",
					"maxclass" : "newobj",
					"numinlets" : 1,
					"numoutlets" : 1,
					"outlettype" : [ "int" ],
					"patching_rect" : [ 318.8333740234375, 1893.3753662109375, 26.0, 20.0 ],
					"text" : "abs",
					"textcolor" : [ 0.996078, 0.87451, 0.717647, 1.0 ]
				}

			}
, 			{
				"box" : 				{
					"fontname" : "Theinhardt Light",
					"fontsize" : 12.0,
					"id" : "obj-40",
					"maxclass" : "message",
					"numinlets" : 2,
					"numoutlets" : 1,
					"outlettype" : [ "" ],
					"patching_rect" : [ 262.8333740234375, 1893.3753662109375, 30.0, 20.0 ],
					"text" : "!"
				}

			}
, 			{
				"box" : 				{
					"fontname" : "Theinhardt Light",
					"fontsize" : 12.0,
					"id" : "obj-39",
					"maxclass" : "message",
					"numinlets" : 2,
					"numoutlets" : 1,
					"outlettype" : [ "" ],
					"patching_rect" : [ 206.8333740234375, 1893.3753662109375, 30.0, 20.0 ],
					"text" : "="
				}

			}
, 			{
				"box" : 				{
					"bgcolor" : [ 0.0, 0.0, 0.0, 1.0 ],
					"color" : [ 0.333671, 0.378149, 0.42558, 1.0 ],
					"id" : "obj-37",
					"maxclass" : "newobj",
					"numinlets" : 3,
					"numoutlets" : 3,
					"outlettype" : [ "bang", "bang", "" ],
					"patching_rect" : [ 206.8333740234375, 1854.3753662109375, 131.0, 20.0 ],
					"text" : "sel 1 0",
					"textcolor" : [ 0.862745, 0.870588, 0.878431, 1.0 ]
				}

			}
, 			{
				"box" : 				{
					"bgcolor" : [ 0.196078, 0.223529, 0.25098, 1.0 ],
					"color" : [ 0.481539, 0.0, 0.0, 1.0 ],
					"id" : "obj-34",
					"maxclass" : "newobj",
					"numinlets" : 2,
					"numoutlets" : 1,
					"outlettype" : [ "int" ],
					"patching_rect" : [ 269.8333740234375, 1814.3753662109375, 37.0, 20.0 ],
					"text" : ">= 0",
					"textcolor" : [ 0.8, 0.839216, 0.709804, 1.0 ]
				}

			}
, 			{
				"box" : 				{
					"bgcolor" : [ 0.290196, 0.309804, 0.301961, 1.0 ],
					"color" : [ 0.666933, 0.499359, 0.020125, 1.0 ],
					"id" : "obj-33",
					"maxclass" : "newobj",
					"numinlets" : 1,
					"numoutlets" : 4,
					"outlettype" : [ "", "", "", "" ],
					"patching_rect" : [ 38.8333740234375, 1617.160888671875, 523.0, 20.0 ],
					"text" : "unjoin 3",
					"textcolor" : [ 1.0, 1.0, 1.0, 1.0 ]
				}

			}
, 			{
				"box" : 				{
					"color" : [ 0.490196, 0.498039, 0.517647, 1.0 ],
					"id" : "obj-32",
					"maxclass" : "newobj",
					"numinlets" : 2,
					"numoutlets" : 1,
					"outlettype" : [ "int" ],
					"patching_rect" : [ 374.8333740234375, 1893.3753662109375, 29.5, 20.0 ],
					"text" : "- 1",
					"textcolor" : [ 0.996023, 0.809997, 0.403347, 1.0 ]
				}

			}
, 			{
				"box" : 				{
					"bgcolor" : [ 1.0, 0.984314, 0.870588, 1.0 ],
					"color" : [ 0.77999, 0.753768, 0.620778, 1.0 ],
					"id" : "obj-31",
					"maxclass" : "newobj",
					"numinlets" : 7,
					"numoutlets" : 1,
					"outlettype" : [ "" ],
					"patching_rect" : [ 38.8333740234375, 2079.428955078125, 355.0, 20.0 ],
					"text" : "sprintf %s %s %s arg[%i] %s= %i %i",
					"textcolor" : [ 0.0, 0.0, 0.0, 1.0 ]
				}

			}
, 			{
				"box" : 				{
					"bubble" : 1,
					"bubbleside" : 3,
					"fontname" : "Theinhardt Light",
					"id" : "obj-22",
					"linecount" : 2,
					"maxclass" : "comment",
					"numinlets" : 1,
					"numoutlets" : 0,
					"patching_rect" : [ 14.0, 194.2144775390625, 126.0, 34.0 ],
					"text" : "instantiate receive ports",
					"textcolor" : [ 0.0, 0.0, 0.0, 1.0 ],
					"textjustification" : 1,
					"varname" : "dummy"
				}

			}
, 			{
				"box" : 				{
					"bgcolor" : [ 0.278431, 0.32549, 0.305882, 1.0 ],
					"color" : [ 0.345098, 0.513725, 0.572549, 1.0 ],
					"id" : "obj-21",
					"maxclass" : "newobj",
					"numinlets" : 2,
					"numoutlets" : 2,
					"outlettype" : [ "", "" ],
					"patching_rect" : [ 254.0, 425.2144775390625, 40.0, 20.0 ],
					"text" : "zl sum",
					"textcolor" : [ 0.921569, 0.717647, 0.117647, 1.0 ],
					"varname" : "sum"
				}

			}
, 			{
				"box" : 				{
					"fontname" : "Theinhardt Light",
					"fontsize" : 12.0,
					"id" : "obj-27",
					"maxclass" : "message",
					"numinlets" : 2,
					"numoutlets" : 1,
					"outlettype" : [ "" ],
					"patching_rect" : [ 1130.199951171875, 767.0, 92.0, 20.0 ],
					"text" : "script delete pak"
				}

			}
, 			{
				"box" : 				{
					"fontname" : "Theinhardt Light",
					"fontsize" : 12.0,
					"id" : "obj-28",
					"maxclass" : "message",
					"numinlets" : 2,
					"numoutlets" : 1,
					"outlettype" : [ "" ],
					"patching_rect" : [ 38.8333740234375, 2226.428955078125, 1055.0, 20.0 ],
					"text" : "script delete $1, script delete $4, script newdefault $1 r $2, script offsetfrom $1 $3 0 240 0, script newdefault $4 $5 $6, script offsetfrom $4 $1 0 0 50, script connect $1 0 $4 0, script connect $4 0 pak $7"
				}

			}
, 			{
				"box" : 				{
					"comment" : "",
					"id" : "obj-276",
					"index" : 1,
					"maxclass" : "inlet",
					"numinlets" : 0,
					"numoutlets" : 1,
					"outlettype" : [ "" ],
					"patching_rect" : [ 253.5, 554.0, 30.0, 30.0 ]
				}

			}
, 			{
				"box" : 				{
					"comment" : "",
					"id" : "obj-277",
					"index" : 1,
					"maxclass" : "outlet",
					"numinlets" : 1,
					"numoutlets" : 0,
					"patching_rect" : [ 254.0, 496.2144775390625, 30.0, 30.0 ]
				}

			}
, 			{
				"box" : 				{
					"fontname" : "Theinhardt Light",
					"fontsize" : 31.601106143802621,
					"id" : "obj-4",
					"maxclass" : "comment",
					"numinlets" : 1,
					"numoutlets" : 0,
					"patching_rect" : [ 14.0, 18.7855224609375, 408.0, 38.0 ],
					"text" : "oni.modgate_remote.ports",
					"varname" : "title[2]"
				}

			}
, 			{
				"box" : 				{
					"border" : 1.57,
					"id" : "obj-2",
					"justification" : 2,
					"linecolor" : [ 1.0, 0.984314, 0.870588, 1.0 ],
					"maxclass" : "live.line",
					"numinlets" : 1,
					"numoutlets" : 0,
					"patching_rect" : [ 14.0, 141.7855224609375, 509.0, 7.0 ]
				}

			}
, 			{
				"box" : 				{
					"fontname" : "Theinhardt Light",
					"fontsize" : 18.0,
					"id" : "obj-3",
					"maxclass" : "comment",
					"numinlets" : 1,
					"numoutlets" : 0,
					"patching_rect" : [ 14.0, 150.7855224609375, 409.0, 24.0 ],
					"text" : "monitor given receive ports as per parent patcherargs",
					"varname" : "title[1]"
				}

			}
, 			{
				"box" : 				{
					"fontname" : "Theinhardt Light",
					"fontsize" : 14.0,
					"id" : "obj-35",
					"maxclass" : "comment",
					"numinlets" : 1,
					"numoutlets" : 0,
					"patching_rect" : [ 14.0, 107.0, 410.0, 20.0 ],
					"text" : "args:"
				}

			}
, 			{
				"box" : 				{
					"border" : 1.57,
					"id" : "obj-41",
					"justification" : 2,
					"linecolor" : [ 1.0, 0.984314, 0.870588, 1.0 ],
					"maxclass" : "live.line",
					"numinlets" : 1,
					"numoutlets" : 0,
					"patching_rect" : [ 14.0, 12.0, 408.0, 5.0 ]
				}

			}
, 			{
				"box" : 				{
					"fontname" : "Theinhardt Light",
					"fontsize" : 18.0,
					"id" : "obj-131",
					"maxclass" : "comment",
					"numinlets" : 1,
					"numoutlets" : 0,
					"patching_rect" : [ 14.0, 63.0, 410.0, 24.0 ],
					"text" : "info~",
					"varname" : "title"
				}

			}
, 			{
				"box" : 				{
					"id" : "obj-5",
					"maxclass" : "newobj",
					"numinlets" : 1,
					"numoutlets" : 1,
					"outlettype" : [ "" ],
					"patching_rect" : [ 254.0, 375.2144775390625, 100.0, 20.0 ],
					"text" : "pak 0",
					"varname" : "pak"
				}

			}
 ],
		"lines" : [ 			{
				"patchline" : 				{
					"destination" : [ "obj-206", 0 ],
					"source" : [ "obj-1", 1 ]
				}

			}
, 			{
				"patchline" : 				{
					"destination" : [ "obj-14", 1 ],
					"source" : [ "obj-10", 0 ]
				}

			}
, 			{
				"patchline" : 				{
					"destination" : [ "obj-96", 0 ],
					"source" : [ "obj-101", 0 ]
				}

			}
, 			{
				"patchline" : 				{
					"destination" : [ "obj-96", 0 ],
					"source" : [ "obj-102", 0 ]
				}

			}
, 			{
				"patchline" : 				{
					"destination" : [ "obj-139", 0 ],
					"source" : [ "obj-103", 0 ]
				}

			}
, 			{
				"patchline" : 				{
					"destination" : [ "obj-34", 0 ],
					"order" : 1,
					"source" : [ "obj-103", 1 ]
				}

			}
, 			{
				"patchline" : 				{
					"destination" : [ "obj-42", 0 ],
					"order" : 0,
					"source" : [ "obj-103", 1 ]
				}

			}
, 			{
				"patchline" : 				{
					"destination" : [ "obj-31", 3 ],
					"order" : 1,
					"source" : [ "obj-108", 0 ]
				}

			}
, 			{
				"patchline" : 				{
					"destination" : [ "obj-32", 0 ],
					"order" : 0,
					"source" : [ "obj-108", 0 ]
				}

			}
, 			{
				"patchline" : 				{
					"destination" : [ "obj-63", 1 ],
					"midpoints" : [ 384.3333740234375, 1798.76812744140625, 58.8333740234375, 1798.76812744140625 ],
					"order" : 2,
					"source" : [ "obj-108", 0 ]
				}

			}
, 			{
				"patchline" : 				{
					"destination" : [ "obj-10", 0 ],
					"source" : [ "obj-11", 0 ]
				}

			}
, 			{
				"patchline" : 				{
					"destination" : [ "obj-11", 0 ],
					"source" : [ "obj-111", 1 ]
				}

			}
, 			{
				"patchline" : 				{
					"destination" : [ "obj-14", 0 ],
					"source" : [ "obj-12", 1 ]
				}

			}
, 			{
				"patchline" : 				{
					"destination" : [ "obj-54", 0 ],
					"source" : [ "obj-12", 4 ]
				}

			}
, 			{
				"patchline" : 				{
					"destination" : [ "obj-57", 0 ],
					"source" : [ "obj-13", 0 ]
				}

			}
, 			{
				"patchline" : 				{
					"destination" : [ "obj-40", 0 ],
					"source" : [ "obj-139", 0 ]
				}

			}
, 			{
				"patchline" : 				{
					"destination" : [ "obj-42", 0 ],
					"source" : [ "obj-139", 1 ]
				}

			}
, 			{
				"patchline" : 				{
					"destination" : [ "obj-13", 0 ],
					"source" : [ "obj-14", 0 ]
				}

			}
, 			{
				"patchline" : 				{
					"destination" : [ "obj-277", 0 ],
					"source" : [ "obj-167", 0 ]
				}

			}
, 			{
				"patchline" : 				{
					"destination" : [ "obj-167", 1 ],
					"source" : [ "obj-168", 0 ]
				}

			}
, 			{
				"patchline" : 				{
					"destination" : [ "obj-8", 0 ],
					"source" : [ "obj-17", 0 ]
				}

			}
, 			{
				"patchline" : 				{
					"destination" : [ "obj-207", 0 ],
					"source" : [ "obj-18", 0 ]
				}

			}
, 			{
				"patchline" : 				{
					"destination" : [ "obj-244", 0 ],
					"source" : [ "obj-19", 1 ]
				}

			}
, 			{
				"patchline" : 				{
					"destination" : [ "obj-244", 0 ],
					"source" : [ "obj-19", 0 ]
				}

			}
, 			{
				"patchline" : 				{
					"destination" : [ "obj-25", 0 ],
					"source" : [ "obj-20", 0 ]
				}

			}
, 			{
				"patchline" : 				{
					"destination" : [ "obj-19", 0 ],
					"source" : [ "obj-201", 0 ]
				}

			}
, 			{
				"patchline" : 				{
					"destination" : [ "obj-201", 0 ],
					"source" : [ "obj-203", 1 ]
				}

			}
, 			{
				"patchline" : 				{
					"destination" : [ "obj-62", 0 ],
					"source" : [ "obj-203", 0 ]
				}

			}
, 			{
				"patchline" : 				{
					"destination" : [ "obj-203", 0 ],
					"source" : [ "obj-204", 0 ]
				}

			}
, 			{
				"patchline" : 				{
					"destination" : [ "obj-204", 0 ],
					"source" : [ "obj-205", 0 ]
				}

			}
, 			{
				"patchline" : 				{
					"destination" : [ "obj-205", 0 ],
					"source" : [ "obj-206", 0 ]
				}

			}
, 			{
				"patchline" : 				{
					"destination" : [ "obj-26", 0 ],
					"source" : [ "obj-207", 2 ]
				}

			}
, 			{
				"patchline" : 				{
					"destination" : [ "obj-26", 0 ],
					"source" : [ "obj-207", 1 ]
				}

			}
, 			{
				"patchline" : 				{
					"destination" : [ "obj-84", 0 ],
					"source" : [ "obj-207", 4 ]
				}

			}
, 			{
				"patchline" : 				{
					"destination" : [ "obj-167", 0 ],
					"source" : [ "obj-21", 0 ]
				}

			}
, 			{
				"patchline" : 				{
					"destination" : [ "obj-239", 0 ],
					"source" : [ "obj-226", 0 ]
				}

			}
, 			{
				"patchline" : 				{
					"destination" : [ "obj-251", 0 ],
					"source" : [ "obj-226", 1 ]
				}

			}
, 			{
				"patchline" : 				{
					"destination" : [ "obj-53", 0 ],
					"midpoints" : [ 849.3333740234375, 1949.3753662109375, 468.3333740234375, 1949.3753662109375 ],
					"source" : [ "obj-226", 2 ]
				}

			}
, 			{
				"patchline" : 				{
					"destination" : [ "obj-226", 0 ],
					"source" : [ "obj-227", 0 ]
				}

			}
, 			{
				"patchline" : 				{
					"destination" : [ "obj-229", 0 ],
					"source" : [ "obj-228", 0 ]
				}

			}
, 			{
				"patchline" : 				{
					"destination" : [ "obj-36", 0 ],
					"source" : [ "obj-228", 1 ]
				}

			}
, 			{
				"patchline" : 				{
					"destination" : [ "obj-227", 0 ],
					"source" : [ "obj-229", 0 ]
				}

			}
, 			{
				"patchline" : 				{
					"destination" : [ "obj-25", 0 ],
					"source" : [ "obj-23", 0 ]
				}

			}
, 			{
				"patchline" : 				{
					"destination" : [ "obj-26", 0 ],
					"midpoints" : [ 481.933349609375, 1149.0, 408.1334228515625, 1149.0 ],
					"source" : [ "obj-23", 1 ]
				}

			}
, 			{
				"patchline" : 				{
					"destination" : [ "obj-239", 2 ],
					"source" : [ "obj-238", 0 ]
				}

			}
, 			{
				"patchline" : 				{
					"destination" : [ "obj-241", 0 ],
					"source" : [ "obj-239", 0 ]
				}

			}
, 			{
				"patchline" : 				{
					"destination" : [ "obj-38", 0 ],
					"source" : [ "obj-24", 0 ]
				}

			}
, 			{
				"patchline" : 				{
					"destination" : [ "obj-243", 0 ],
					"source" : [ "obj-241", 0 ]
				}

			}
, 			{
				"patchline" : 				{
					"destination" : [ "obj-228", 0 ],
					"source" : [ "obj-244", 0 ]
				}

			}
, 			{
				"patchline" : 				{
					"destination" : [ "obj-245", 0 ],
					"source" : [ "obj-244", 1 ]
				}

			}
, 			{
				"patchline" : 				{
					"destination" : [ "obj-229", 1 ],
					"midpoints" : [ 879.5001220703125, 1716.82171630859375, 739.8333740234375, 1716.82171630859375 ],
					"order" : 1,
					"source" : [ "obj-245", 1 ]
				}

			}
, 			{
				"patchline" : 				{
					"destination" : [ "obj-238", 0 ],
					"order" : 0,
					"source" : [ "obj-245", 1 ]
				}

			}
, 			{
				"patchline" : 				{
					"destination" : [ "obj-246", 2 ],
					"midpoints" : [ 762.3333740234375, 1650.32171630859375, 697.3333740234375, 1650.32171630859375 ],
					"source" : [ "obj-245", 0 ]
				}

			}
, 			{
				"patchline" : 				{
					"destination" : [ "obj-44", 0 ],
					"source" : [ "obj-246", 0 ]
				}

			}
, 			{
				"patchline" : 				{
					"destination" : [ "obj-30", 0 ],
					"source" : [ "obj-25", 0 ]
				}

			}
, 			{
				"patchline" : 				{
					"destination" : [ "obj-246", 0 ],
					"source" : [ "obj-251", 0 ]
				}

			}
, 			{
				"patchline" : 				{
					"destination" : [ "obj-243", 0 ],
					"source" : [ "obj-258", 0 ]
				}

			}
, 			{
				"patchline" : 				{
					"destination" : [ "obj-25", 1 ],
					"midpoints" : [ 408.1334228515625, 1200.5, 539.933349609375, 1200.5 ],
					"source" : [ "obj-26", 0 ]
				}

			}
, 			{
				"patchline" : 				{
					"destination" : [ "obj-15", 0 ],
					"source" : [ "obj-27", 0 ]
				}

			}
, 			{
				"patchline" : 				{
					"destination" : [ "obj-17", 1 ],
					"order" : 0,
					"source" : [ "obj-276", 0 ]
				}

			}
, 			{
				"patchline" : 				{
					"destination" : [ "obj-8", 0 ],
					"order" : 1,
					"source" : [ "obj-276", 0 ]
				}

			}
, 			{
				"patchline" : 				{
					"destination" : [ "obj-16", 0 ],
					"source" : [ "obj-28", 0 ]
				}

			}
, 			{
				"patchline" : 				{
					"destination" : [ "obj-94", 0 ],
					"source" : [ "obj-29", 0 ]
				}

			}
, 			{
				"patchline" : 				{
					"destination" : [ "obj-203", 1 ],
					"midpoints" : [ 470.933349609375, 1463.0, 729.8333740234375, 1463.0 ],
					"source" : [ "obj-30", 0 ]
				}

			}
, 			{
				"patchline" : 				{
					"destination" : [ "obj-49", 0 ],
					"source" : [ "obj-30", 1 ]
				}

			}
, 			{
				"patchline" : 				{
					"destination" : [ "obj-59", 0 ],
					"source" : [ "obj-30", 2 ]
				}

			}
, 			{
				"patchline" : 				{
					"destination" : [ "obj-28", 0 ],
					"source" : [ "obj-31", 0 ]
				}

			}
, 			{
				"patchline" : 				{
					"destination" : [ "obj-31", 6 ],
					"source" : [ "obj-32", 0 ]
				}

			}
, 			{
				"patchline" : 				{
					"destination" : [ "obj-103", 0 ],
					"source" : [ "obj-33", 1 ]
				}

			}
, 			{
				"patchline" : 				{
					"destination" : [ "obj-108", 0 ],
					"source" : [ "obj-33", 2 ]
				}

			}
, 			{
				"patchline" : 				{
					"destination" : [ "obj-64", 0 ],
					"source" : [ "obj-33", 0 ]
				}

			}
, 			{
				"patchline" : 				{
					"destination" : [ "obj-37", 0 ],
					"source" : [ "obj-34", 0 ]
				}

			}
, 			{
				"patchline" : 				{
					"destination" : [ "obj-227", 1 ],
					"order" : 0,
					"source" : [ "obj-36", 1 ]
				}

			}
, 			{
				"patchline" : 				{
					"destination" : [ "obj-227", 1 ],
					"order" : 0,
					"source" : [ "obj-36", 0 ]
				}

			}
, 			{
				"patchline" : 				{
					"destination" : [ "obj-246", 1 ],
					"order" : 1,
					"source" : [ "obj-36", 1 ]
				}

			}
, 			{
				"patchline" : 				{
					"destination" : [ "obj-246", 1 ],
					"order" : 1,
					"source" : [ "obj-36", 0 ]
				}

			}
, 			{
				"patchline" : 				{
					"destination" : [ "obj-39", 0 ],
					"source" : [ "obj-37", 0 ]
				}

			}
, 			{
				"patchline" : 				{
					"destination" : [ "obj-40", 0 ],
					"source" : [ "obj-37", 1 ]
				}

			}
, 			{
				"patchline" : 				{
					"destination" : [ "obj-43", 0 ],
					"source" : [ "obj-38", 0 ]
				}

			}
, 			{
				"patchline" : 				{
					"destination" : [ "obj-31", 4 ],
					"source" : [ "obj-39", 0 ]
				}

			}
, 			{
				"patchline" : 				{
					"destination" : [ "obj-31", 4 ],
					"source" : [ "obj-40", 0 ]
				}

			}
, 			{
				"patchline" : 				{
					"destination" : [ "obj-31", 5 ],
					"source" : [ "obj-42", 0 ]
				}

			}
, 			{
				"patchline" : 				{
					"destination" : [ "obj-258", 0 ],
					"source" : [ "obj-44", 1 ]
				}

			}
, 			{
				"patchline" : 				{
					"destination" : [ "obj-45", 0 ],
					"source" : [ "obj-44", 0 ]
				}

			}
, 			{
				"patchline" : 				{
					"destination" : [ "obj-243", 0 ],
					"source" : [ "obj-45", 0 ]
				}

			}
, 			{
				"patchline" : 				{
					"destination" : [ "obj-18", 0 ],
					"source" : [ "obj-46", 1 ]
				}

			}
, 			{
				"patchline" : 				{
					"destination" : [ "obj-24", 0 ],
					"source" : [ "obj-46", 0 ]
				}

			}
, 			{
				"patchline" : 				{
					"destination" : [ "obj-55", 1 ],
					"source" : [ "obj-46", 3 ]
				}

			}
, 			{
				"patchline" : 				{
					"destination" : [ "obj-59", 2 ],
					"midpoints" : [ 417.888916015625, 1078.6875, 800.7333984375, 1078.6875 ],
					"source" : [ "obj-46", 2 ]
				}

			}
, 			{
				"patchline" : 				{
					"destination" : [ "obj-1", 0 ],
					"source" : [ "obj-49", 1 ]
				}

			}
, 			{
				"patchline" : 				{
					"destination" : [ "obj-206", 0 ],
					"source" : [ "obj-49", 0 ]
				}

			}
, 			{
				"patchline" : 				{
					"destination" : [ "obj-21", 0 ],
					"source" : [ "obj-5", 0 ]
				}

			}
, 			{
				"patchline" : 				{
					"destination" : [ "obj-56", 0 ],
					"source" : [ "obj-51", 0 ]
				}

			}
, 			{
				"patchline" : 				{
					"destination" : [ "obj-60", 0 ],
					"source" : [ "obj-52", 0 ]
				}

			}
, 			{
				"patchline" : 				{
					"destination" : [ "obj-65", 0 ],
					"source" : [ "obj-52", 1 ]
				}

			}
, 			{
				"patchline" : 				{
					"destination" : [ "obj-55", 0 ],
					"source" : [ "obj-53", 1 ]
				}

			}
, 			{
				"patchline" : 				{
					"destination" : [ "obj-55", 1 ],
					"midpoints" : [ 468.3333740234375, 2020.8753662109375, 495.3333740234375, 2020.8753662109375 ],
					"source" : [ "obj-53", 0 ]
				}

			}
, 			{
				"patchline" : 				{
					"destination" : [ "obj-111", 0 ],
					"source" : [ "obj-54", 3 ]
				}

			}
, 			{
				"patchline" : 				{
					"destination" : [ "obj-239", 1 ],
					"midpoints" : [ 479.3333740234375, 2067.40216064453125, 804.416748046875, 2067.40216064453125 ],
					"order" : 0,
					"source" : [ "obj-55", 0 ]
				}

			}
, 			{
				"patchline" : 				{
					"destination" : [ "obj-31", 2 ],
					"midpoints" : [ 479.3333740234375, 2067.40216064453125, 160.3333740234375, 2067.40216064453125 ],
					"order" : 1,
					"source" : [ "obj-55", 0 ]
				}

			}
, 			{
				"patchline" : 				{
					"destination" : [ "obj-57", 1 ],
					"order" : 0,
					"source" : [ "obj-56", 0 ]
				}

			}
, 			{
				"patchline" : 				{
					"destination" : [ "obj-58", 1 ],
					"order" : 1,
					"source" : [ "obj-56", 0 ]
				}

			}
, 			{
				"patchline" : 				{
					"destination" : [ "obj-60", 1 ],
					"source" : [ "obj-57", 1 ]
				}

			}
, 			{
				"patchline" : 				{
					"destination" : [ "obj-72", 0 ],
					"source" : [ "obj-57", 0 ]
				}

			}
, 			{
				"patchline" : 				{
					"destination" : [ "obj-61", 0 ],
					"source" : [ "obj-59", 0 ]
				}

			}
, 			{
				"patchline" : 				{
					"destination" : [ "obj-65", 0 ],
					"source" : [ "obj-60", 0 ]
				}

			}
, 			{
				"patchline" : 				{
					"destination" : [ "obj-201", 1 ],
					"midpoints" : [ 779.7333984375, 1442.553619384765625, 780.2333984375, 1442.553619384765625 ],
					"order" : 0,
					"source" : [ "obj-61", 0 ]
				}

			}
, 			{
				"patchline" : 				{
					"destination" : [ "obj-62", 1 ],
					"order" : 1,
					"source" : [ "obj-61", 0 ]
				}

			}
, 			{
				"patchline" : 				{
					"destination" : [ "obj-33", 0 ],
					"midpoints" : [ 534.8333740234375, 1578.634063720703125, 48.3333740234375, 1578.634063720703125 ],
					"source" : [ "obj-62", 0 ]
				}

			}
, 			{
				"patchline" : 				{
					"destination" : [ "obj-78", 0 ],
					"source" : [ "obj-63", 0 ]
				}

			}
, 			{
				"patchline" : 				{
					"destination" : [ "obj-31", 1 ],
					"source" : [ "obj-64", 2 ]
				}

			}
, 			{
				"patchline" : 				{
					"destination" : [ "obj-63", 0 ],
					"source" : [ "obj-64", 0 ]
				}

			}
, 			{
				"patchline" : 				{
					"destination" : [ "obj-78", 1 ],
					"source" : [ "obj-64", 1 ]
				}

			}
, 			{
				"patchline" : 				{
					"destination" : [ "obj-67", 1 ],
					"order" : 0,
					"source" : [ "obj-65", 0 ]
				}

			}
, 			{
				"patchline" : 				{
					"destination" : [ "obj-80", 0 ],
					"order" : 1,
					"source" : [ "obj-65", 0 ]
				}

			}
, 			{
				"patchline" : 				{
					"destination" : [ "obj-9", 0 ],
					"source" : [ "obj-7", 0 ]
				}

			}
, 			{
				"patchline" : 				{
					"destination" : [ "obj-27", 0 ],
					"source" : [ "obj-72", 2 ]
				}

			}
, 			{
				"patchline" : 				{
					"destination" : [ "obj-52", 0 ],
					"source" : [ "obj-72", 1 ]
				}

			}
, 			{
				"patchline" : 				{
					"destination" : [ "obj-94", 1 ],
					"source" : [ "obj-72", 0 ]
				}

			}
, 			{
				"patchline" : 				{
					"destination" : [ "obj-15", 0 ],
					"source" : [ "obj-76", 0 ]
				}

			}
, 			{
				"patchline" : 				{
					"destination" : [ "obj-15", 0 ],
					"source" : [ "obj-77", 0 ]
				}

			}
, 			{
				"patchline" : 				{
					"destination" : [ "obj-79", 0 ],
					"source" : [ "obj-78", 0 ]
				}

			}
, 			{
				"patchline" : 				{
					"destination" : [ "obj-31", 0 ],
					"source" : [ "obj-79", 0 ]
				}

			}
, 			{
				"patchline" : 				{
					"destination" : [ "obj-53", 0 ],
					"midpoints" : [ 58.8333740234375, 1949.3753662109375, 468.3333740234375, 1949.3753662109375 ],
					"source" : [ "obj-79", 1 ]
				}

			}
, 			{
				"patchline" : 				{
					"destination" : [ "obj-10", 2 ],
					"source" : [ "obj-8", 2 ]
				}

			}
, 			{
				"patchline" : 				{
					"destination" : [ "obj-29", 0 ],
					"source" : [ "obj-8", 0 ]
				}

			}
, 			{
				"patchline" : 				{
					"destination" : [ "obj-7", 0 ],
					"source" : [ "obj-8", 1 ]
				}

			}
, 			{
				"patchline" : 				{
					"destination" : [ "obj-76", 0 ],
					"source" : [ "obj-80", 0 ]
				}

			}
, 			{
				"patchline" : 				{
					"destination" : [ "obj-77", 0 ],
					"source" : [ "obj-80", 1 ]
				}

			}
, 			{
				"patchline" : 				{
					"destination" : [ "obj-23", 0 ],
					"source" : [ "obj-84", 3 ]
				}

			}
, 			{
				"patchline" : 				{
					"destination" : [ "obj-26", 0 ],
					"source" : [ "obj-84", 0 ]
				}

			}
, 			{
				"patchline" : 				{
					"destination" : [ "obj-12", 0 ],
					"source" : [ "obj-9", 0 ]
				}

			}
, 			{
				"patchline" : 				{
					"destination" : [ "obj-24", 1 ],
					"source" : [ "obj-94", 1 ]
				}

			}
, 			{
				"patchline" : 				{
					"destination" : [ "obj-46", 0 ],
					"source" : [ "obj-94", 0 ]
				}

			}
, 			{
				"patchline" : 				{
					"destination" : [ "obj-98", 1 ],
					"source" : [ "obj-96", 0 ]
				}

			}
 ],
		"styles" : [ 			{
				"name" : "AudioStatus_Menu",
				"default" : 				{
					"bgfillcolor" : 					{
						"type" : "color",
						"color" : [ 0.294118, 0.313726, 0.337255, 1 ],
						"color1" : [ 0.454902, 0.462745, 0.482353, 0.0 ],
						"color2" : [ 0.290196, 0.309804, 0.301961, 1.0 ],
						"angle" : 270.0,
						"proportion" : 0.39,
						"autogradient" : 0
					}

				}
,
				"parentstyle" : "",
				"multi" : 0
			}
, 			{
				"name" : "Xenorama",
				"default" : 				{
					"color" : [ 0.937255, 0.763913, 0.302615, 1.0 ],
					"textcolor" : [ 1.0, 0.984314, 0.870588, 1.0 ],
					"fontname" : [ "Theinhardt Light" ],
					"patchlinecolor" : [ 1.0, 0.984314, 0.870588, 0.741017 ],
					"bgfillcolor" : 					{
						"type" : "gradient",
						"color1" : [ 0.376471, 0.384314, 0.4, 1.0 ],
						"color2" : [ 0.290196, 0.309804, 0.301961, 1.0 ],
						"color" : [ 0.290196, 0.309804, 0.301961, 1.0 ],
						"angle" : 270.0,
						"proportion" : 0.39
					}

				}
,
				"parentstyle" : "",
				"multi" : 0
			}
, 			{
				"name" : "livid_sysex",
				"default" : 				{
					"accentcolor" : [ 0.596078, 0.174761, 0.100412, 1.0 ],
					"textcolor_inverse" : [ 0.683327, 0.922818, 0.83347, 1.0 ]
				}
,
				"parentstyle" : "",
				"multi" : 0
			}
, 			{
				"name" : "newobjBlue-1",
				"default" : 				{
					"accentcolor" : [ 0.317647, 0.654902, 0.976471, 1.0 ]
				}
,
				"parentstyle" : "",
				"multi" : 0
			}
, 			{
				"name" : "newobjBrown-1",
				"default" : 				{
					"accentcolor" : [ 0.654902, 0.572549, 0.376471, 1.0 ]
				}
,
				"parentstyle" : "",
				"multi" : 0
			}
, 			{
				"name" : "newobjCyan-1",
				"default" : 				{
					"accentcolor" : [ 0.029546, 0.773327, 0.821113, 1.0 ]
				}
,
				"parentstyle" : "",
				"multi" : 0
			}
, 			{
				"name" : "newobjGreen-1",
				"default" : 				{
					"accentcolor" : [ 0.0, 0.533333, 0.168627, 1.0 ]
				}
,
				"parentstyle" : "",
				"multi" : 0
			}
, 			{
				"name" : "newobjYellow-1",
				"default" : 				{
					"fontsize" : [ 12.059008 ],
					"accentcolor" : [ 0.82517, 0.78181, 0.059545, 1.0 ]
				}
,
				"parentstyle" : "",
				"multi" : 0
			}
, 			{
				"name" : "numberGold-1",
				"default" : 				{
					"accentcolor" : [ 0.764706, 0.592157, 0.101961, 1.0 ]
				}
,
				"parentstyle" : "",
				"multi" : 0
			}
, 			{
				"name" : "oni",
				"umenu" : 				{
					"color" : [ 0.376471, 0.384314, 0.4, 1.0 ],
					"elementcolor" : [ 0.376471, 0.384314, 0.4, 1.0 ],
					"textcolor_inverse" : [ 1.0, 0.984314, 0.870588, 1.0 ]
				}
,
				"button" : 				{
					"color" : [ 1.0, 0.741176, 0.196078, 1.0 ],
					"elementcolor" : [ 0.4, 0.486275, 0.505882, 1.0 ]
				}
,
				"parentstyle" : "oni_default-1",
				"multi" : 1
			}
, 			{
				"name" : "oni_default",
				"umenu" : 				{
					"color" : [ 0.4, 0.486275, 0.505882, 1.0 ],
					"textcolor_inverse" : [ 1.0, 0.984314, 0.870588, 1.0 ],
					"bgfillcolor" : 					{
						"type" : "color",
						"color1" : [ 0.376471, 0.384314, 0.4, 1.0 ],
						"color2" : [ 0.290196, 0.309804, 0.301961, 1.0 ],
						"color" : [ 0.290196, 0.309804, 0.301961, 1.0 ],
						"angle" : 270.0,
						"proportion" : 0.39,
						"autogradient" : 0
					}

				}
,
				"textbutton" : 				{
					"color" : [ 1.0, 0.741176, 0.196078, 1.0 ],
					"selectioncolor" : [ 1.0, 0.741176, 0.196078, 0.66 ]
				}
,
				"button" : 				{
					"color" : [ 1.0, 0.741176, 0.196078, 1.0 ],
					"elementcolor" : [ 0.4, 0.486275, 0.505882, 1.0 ]
				}
,
				"panel" : 				{
					"color" : [ 0.803922, 0.898039, 0.909804, 1.0 ]
				}
,
				"number" : 				{
					"accentcolor" : [ 0.4, 0.486275, 0.505882, 1.0 ],
					"selectioncolor" : [ 1.0, 0.741176, 0.196078, 1.0 ],
					"textcolor_inverse" : [ 1.0, 0.984314, 0.870588, 1.0 ]
				}
,
				"newobj" : 				{
					"accentcolor" : [ 0.501961, 0.501961, 0.0, 1.0 ],
					"textcolor_inverse" : [ 0.0, 0.0, 0.0, 1.0 ],
					"bgcolor" : [ 0.937255, 0.898039, 0.0, 1.0 ]
				}
,
				"dial" : 				{
					"elementcolor" : [ 0.376471, 0.384314, 0.4, 1.0 ]
				}
,
				"slider" : 				{
					"bgcolor" : [ 0.4, 0.486275, 0.505882, 1.0 ]
				}
,
				"parentstyle" : "",
				"multi" : 1
			}
, 			{
				"name" : "oni_default-1",
				"dial" : 				{
					"color" : [ 1.0, 0.741176, 0.196078, 1.0 ],
					"elementcolor" : [ 0.376471, 0.384314, 0.4, 1.0 ],
					"bgcolor" : [ 0.875413, 0.933282, 0.915502, 0.0 ]
				}
,
				"textbutton" : 				{
					"color" : [ 1.0, 0.741176, 0.196078, 1.0 ],
					"accentcolor" : [ 0.4, 0.486275, 0.505882, 1.0 ],
					"fontname" : [ "Futura Std Book" ],
					"selectioncolor" : [ 0.968627, 0.768627, 0.101961, 0.509804 ],
					"elementcolor" : [ 0.25098, 0.25098, 0.25098, 1.0 ],
					"bgcolor" : [ 0.25098, 0.25098, 0.25098, 1.0 ]
				}
,
				"slider" : 				{
					"color" : [ 1.0, 0.741176, 0.196078, 1.0 ],
					"bgcolor" : [ 1.0, 1.0, 1.0, 1.0 ]
				}
,
				"tab" : 				{
					"color" : [ 1.0, 0.741176, 0.196078, 0.84 ],
					"fontname" : [ "Futura Std Book" ],
					"elementcolor" : [ 0.6, 0.6, 0.6, 0.15 ],
					"textcolor_inverse" : [ 0.400043, 0.485168, 0.504775, 1.0 ]
				}
,
				"button" : 				{
					"color" : [ 1.0, 0.101961, 0.305882, 1.0 ],
					"elementcolor" : [ 1.0, 0.101961, 0.305882, 1.0 ],
					"bgcolor" : [ 0.25098, 0.25098, 0.25098, 0.0 ]
				}
,
				"preset" : 				{
					"color" : [ 1.0, 0.741176, 0.196078, 1.0 ],
					"textcolor" : [ 1.0, 0.995412, 0.945192, 1.0 ],
					"accentcolor" : [ 0.411765, 0.568627, 0.588235, 0.71 ],
					"fontname" : [ "Futura Std Book" ],
					"elementcolor" : [ 0.431373, 0.431373, 0.431373, 0.46 ],
					"bgcolor" : [ 0.25098, 0.25098, 0.25098, 1.0 ]
				}
,
				"panel" : 				{
					"color" : [ 0.803922, 0.898039, 0.909804, 1.0 ],
					"bgfillcolor" : 					{
						"type" : "gradient",
						"color1" : [ 0.25098, 0.25098, 0.25098, 1.0 ],
						"color2" : [ 0.25098, 0.25098, 0.25098, 1.0 ],
						"color" : [ 0.290196, 0.309804, 0.301961, 1.0 ],
						"angle" : 270.0,
						"proportion" : 0.39
					}

				}
,
				"number" : 				{
					"fontsize" : [ 12.0 ],
					"fontname" : [ "Futura Std Book" ]
				}
,
				"comment" : 				{
					"fontsize" : [ 12.0 ],
					"textcolor" : [ 1.0, 0.998287, 0.929809, 1.0 ],
					"fontname" : [ "Futura Std Book" ],
					"textjustification" : [ 2 ]
				}
,
				"umenu" : 				{
					"fontname" : [ "Futura Std Book" ],
					"textcolor_inverse" : [ 1.0, 0.998287, 0.929809, 1.0 ],
					"bgfillcolor" : 					{
						"type" : "color",
						"color1" : [ 0.376471, 0.384314, 0.4, 1.0 ],
						"color2" : [ 0.290196, 0.309804, 0.301961, 1.0 ],
						"color" : [ 0.25098, 0.25098, 0.25098, 1.0 ],
						"angle" : 270.0,
						"proportion" : 0.39,
						"autogradient" : 0
					}

				}
,
				"parentstyle" : "",
				"multi" : 1
			}
, 			{
				"name" : "oni_default-2",
				"textbutton" : 				{
					"color" : [ 1.0, 0.741176, 0.196078, 1.0 ],
					"accentcolor" : [ 0.4, 0.486275, 0.505882, 1.0 ],
					"fontname" : [ "Futura Std Book" ],
					"selectioncolor" : [ 0.968627, 0.768627, 0.101961, 0.509804 ],
					"elementcolor" : [ 0.25098, 0.25098, 0.25098, 1.0 ],
					"bgcolor" : [ 0.25098, 0.25098, 0.25098, 1.0 ]
				}
,
				"comment" : 				{
					"fontsize" : [ 12.0 ],
					"textcolor" : [ 1.0, 0.998287, 0.929809, 1.0 ],
					"fontname" : [ "Futura Std Book" ],
					"textjustification" : [ 2 ]
				}
,
				"number" : 				{
					"fontname" : [ "Futura Std Book" ],
					"selectioncolor" : [ 1.0, 0.741176, 0.196078, 1.0 ],
					"textcolor_inverse" : [ 1.0, 0.984314, 0.870588, 1.0 ]
				}
,
				"parentstyle" : "",
				"multi" : 1
			}
, 			{
				"name" : "oni_default-3",
				"textbutton" : 				{
					"color" : [ 1.0, 0.741176, 0.196078, 1.0 ],
					"accentcolor" : [ 0.4, 0.486275, 0.505882, 1.0 ],
					"fontname" : [ "Futura Std Book" ],
					"selectioncolor" : [ 0.968627, 0.768627, 0.101961, 0.509804 ],
					"elementcolor" : [ 0.25098, 0.25098, 0.25098, 1.0 ],
					"bgcolor" : [ 0.25098, 0.25098, 0.25098, 1.0 ]
				}
,
				"comment" : 				{
					"fontsize" : [ 12.0 ],
					"textcolor" : [ 1.0, 0.998287, 0.929809, 1.0 ],
					"fontname" : [ "Futura Std Book" ],
					"textjustification" : [ 2 ]
				}
,
				"number" : 				{
					"fontname" : [ "Futura Std Book" ],
					"selectioncolor" : [ 1.0, 0.741176, 0.196078, 1.0 ],
					"textcolor_inverse" : [ 1.0, 0.984314, 0.870588, 1.0 ]
				}
,
				"parentstyle" : "",
				"multi" : 1
			}
, 			{
				"name" : "oni_default-4",
				"textbutton" : 				{
					"color" : [ 1.0, 0.741176, 0.196078, 1.0 ],
					"accentcolor" : [ 0.4, 0.486275, 0.505882, 1.0 ],
					"fontname" : [ "Futura Std Book" ],
					"selectioncolor" : [ 0.968627, 0.768627, 0.101961, 0.509804 ],
					"elementcolor" : [ 0.25098, 0.25098, 0.25098, 1.0 ],
					"bgcolor" : [ 0.25098, 0.25098, 0.25098, 1.0 ]
				}
,
				"comment" : 				{
					"fontsize" : [ 12.0 ],
					"textcolor" : [ 1.0, 0.998287, 0.929809, 1.0 ],
					"fontname" : [ "Futura Std Book" ],
					"textjustification" : [ 2 ]
				}
,
				"number" : 				{
					"fontname" : [ "Futura Std Book" ],
					"selectioncolor" : [ 1.0, 0.741176, 0.196078, 1.0 ],
					"textcolor_inverse" : [ 1.0, 0.984314, 0.870588, 1.0 ]
				}
,
				"parentstyle" : "",
				"multi" : 1
			}
, 			{
				"name" : "oni_default-5",
				"textbutton" : 				{
					"color" : [ 1.0, 0.741176, 0.196078, 1.0 ],
					"accentcolor" : [ 0.4, 0.486275, 0.505882, 1.0 ],
					"fontname" : [ "Futura Std Book" ],
					"selectioncolor" : [ 0.968627, 0.768627, 0.101961, 0.509804 ],
					"elementcolor" : [ 0.25098, 0.25098, 0.25098, 1.0 ],
					"bgcolor" : [ 0.25098, 0.25098, 0.25098, 1.0 ]
				}
,
				"comment" : 				{
					"fontsize" : [ 12.0 ],
					"textcolor" : [ 1.0, 0.998287, 0.929809, 1.0 ],
					"fontname" : [ "Futura Std Book" ],
					"textjustification" : [ 2 ]
				}
,
				"number" : 				{
					"fontname" : [ "Futura Std Book" ],
					"selectioncolor" : [ 1.0, 0.741176, 0.196078, 1.0 ],
					"textcolor_inverse" : [ 1.0, 0.984314, 0.870588, 1.0 ]
				}
,
				"parentstyle" : "",
				"multi" : 1
			}
, 			{
				"name" : "panelViolet",
				"default" : 				{
					"bgfillcolor" : 					{
						"type" : "color",
						"color" : [ 0.372549, 0.196078, 0.486275, 0.2 ],
						"color1" : [ 0.454902, 0.462745, 0.482353, 1.0 ],
						"color2" : [ 0.290196, 0.309804, 0.301961, 1.0 ],
						"angle" : 270.0,
						"proportion" : 0.39,
						"autogradient" : 0
					}

				}
,
				"parentstyle" : "",
				"multi" : 0
			}
, 			{
				"name" : "patcherargs",
				"default" : 				{
					"accentcolor" : [ 0.054902, 0.341176, 0.498039, 1.0 ],
					"textcolor_inverse" : [ 0.0, 0.0, 0.0, 1.0 ],
					"bgcolor" : [ 0.545098, 0.85098, 0.592157, 1.0 ]
				}
,
				"parentstyle" : "",
				"multi" : 0
			}
, 			{
				"name" : "pattr001",
				"newobj" : 				{
					"accentcolor" : [ 0.501961, 0.501961, 0.0, 1.0 ],
					"textcolor_inverse" : [ 0.0, 0.0, 0.0, 1.0 ],
					"bgcolor" : [ 0.937255, 0.898039, 0.0, 1.0 ]
				}
,
				"parentstyle" : "",
				"multi" : 1
			}
, 			{
				"name" : "pattr_inv",
				"default" : 				{
					"accentcolor" : [ 0.356495, 0.111353, 0.074435, 1.0 ],
					"textcolor_inverse" : [ 0.0, 0.0, 0.0, 1.0 ],
					"bgcolor" : [ 0.545098, 0.85098, 0.592157, 1.0 ]
				}
,
				"parentstyle" : "",
				"multi" : 0
			}
, 			{
				"name" : "tap",
				"default" : 				{
					"fontname" : [ "Lato Light" ]
				}
,
				"parentstyle" : "",
				"multi" : 0
			}
, 			{
				"name" : "thisdevice",
				"default" : 				{
					"accentcolor" : [ 0.501961, 0.501961, 0.0, 1.0 ],
					"textcolor_inverse" : [ 0.0, 0.0, 0.0, 1.0 ],
					"bgcolor" : [ 0.937255, 0.796078, 0.0, 1.0 ]
				}
,
				"parentstyle" : "",
				"multi" : 0
			}
 ],
		"color" : [ 0.937255, 0.763913, 0.302615, 1.0 ],
		"textcolor" : [ 1.0, 0.984314, 0.870588, 1.0 ],
		"patchlinecolor" : [ 1.0, 0.984314, 0.870588, 0.741017 ],
		"bgcolor" : [ 0.25098, 0.25098, 0.25098, 1.0 ],
		"editing_bgcolor" : [ 0.431373, 0.431373, 0.431373, 1.0 ]
	}

}
