{
	"patcher" : 	{
		"fileversion" : 1,
		"appversion" : 		{
			"major" : 8,
			"minor" : 1,
			"revision" : 7,
			"architecture" : "x64",
			"modernui" : 1
		}
,
		"classnamespace" : "box",
		"rect" : [ 34.0, 79.0, 1337.0, 730.0 ],
		"bglocked" : 0,
		"openinpresentation" : 0,
		"default_fontsize" : 12.0,
		"default_fontface" : 0,
		"default_fontname" : "Theinhardt Light",
		"gridonopen" : 1,
		"gridsize" : [ 15.0, 15.0 ],
		"gridsnaponopen" : 1,
		"objectsnaponopen" : 1,
		"statusbarvisible" : 2,
		"toolbarvisible" : 1,
		"lefttoolbarpinned" : 0,
		"toptoolbarpinned" : 0,
		"righttoolbarpinned" : 0,
		"bottomtoolbarpinned" : 0,
		"toolbars_unpinned_last_save" : 0,
		"tallnewobj" : 0,
		"boxanimatetime" : 200,
		"enablehscroll" : 1,
		"enablevscroll" : 1,
		"devicewidth" : 0.0,
		"description" : "",
		"digest" : "",
		"tags" : "",
		"style" : "",
		"subpatcher_template" : "XEN-init_template",
		"assistshowspatchername" : 0,
		"boxes" : [ 			{
				"box" : 				{
					"id" : "obj-8",
					"maxclass" : "newobj",
					"numinlets" : 1,
					"numoutlets" : 6,
					"outlettype" : [ "signal", "bang", "int", "float", "", "list" ],
					"patching_rect" : [ 738.25, 179.0, 71.5, 20.0 ],
					"text" : "typeroute~"
				}

			}
, 			{
				"box" : 				{
					"bgcolor" : [ 0.344535, 0.418209, 0.290269, 1.0 ],
					"color" : [ 0.45522, 0.188215, 0.381035, 1.0 ],
					"id" : "obj-38",
					"maxclass" : "newobj",
					"numinlets" : 4,
					"numoutlets" : 4,
					"outlettype" : [ "", "", "", "" ],
					"patching_rect" : [ 556.5, 255.0, 272.5, 20.0 ],
					"text" : "route initial modgate done",
					"textcolor" : [ 1.0, 1.0, 1.0, 1.0 ]
				}

			}
, 			{
				"box" : 				{
					"id" : "obj-28",
					"maxclass" : "newobj",
					"numinlets" : 2,
					"numoutlets" : 2,
					"outlettype" : [ "", "" ],
					"patching_rect" : [ 604.25, 147.2855224609375, 153.0, 20.0 ],
					"text" : "routepass multichannelsignal"
				}

			}
, 			{
				"box" : 				{
					"id" : "obj-33",
					"maxclass" : "newobj",
					"numinlets" : 2,
					"numoutlets" : 1,
					"outlettype" : [ "" ],
					"patching_rect" : [ 688.0, 475.2855224609375, 41.0, 20.0 ],
					"text" : "pipe 0"
				}

			}
, 			{
				"box" : 				{
					"id" : "obj-37",
					"maxclass" : "message",
					"numinlets" : 2,
					"numoutlets" : 1,
					"outlettype" : [ "" ],
					"patching_rect" : [ 668.0, 637.7855224609375, 62.0, 20.0 ],
					"text" : "symboltest"
				}

			}
, 			{
				"box" : 				{
					"comment" : "anything; pass through to first outlet if modifyers match conditions",
					"id" : "obj-22",
					"index" : 2,
					"maxclass" : "inlet",
					"numinlets" : 0,
					"numoutlets" : 1,
					"outlettype" : [ "" ],
					"patching_rect" : [ 992.25, 169.0, 30.0, 30.0 ]
				}

			}
, 			{
				"box" : 				{
					"bgcolor" : [ 0.811765, 1.0, 0.976471, 1.0 ],
					"color" : [ 0.211765, 0.898039, 0.576471, 1.0 ],
					"id" : "obj-18",
					"maxclass" : "newobj",
					"numinlets" : 2,
					"numoutlets" : 2,
					"outlettype" : [ "", "" ],
					"patching_rect" : [ 688.0, 437.7855224609375, 63.0, 20.0 ],
					"text" : "gate 2 1",
					"textcolor" : [ 0.0, 0.0, 0.0, 1.0 ]
				}

			}
, 			{
				"box" : 				{
					"bgcolor" : [ 0.481539, 0.0, 0.0, 1.0 ],
					"color" : [ 0.196078, 0.223529, 0.25098, 1.0 ],
					"id" : "obj-19",
					"maxclass" : "newobj",
					"numinlets" : 1,
					"numoutlets" : 1,
					"outlettype" : [ "" ],
					"patching_rect" : [ 732.0, 475.2855224609375, 51.0, 20.0 ],
					"text" : "deferlow",
					"textcolor" : [ 1.0, 0.984314, 0.870588, 1.0 ]
				}

			}
, 			{
				"box" : 				{
					"fontname" : "Theinhardt Light",
					"fontsize" : 12.0,
					"id" : "obj-14",
					"linecount" : 5,
					"maxclass" : "comment",
					"numinlets" : 1,
					"numoutlets" : 0,
					"patching_rect" : [ 14.0, 232.7855224609375, 396.0, 67.0 ],
					"text" : "attributes:\n\n@update (bool); 1 (default) = update on transition from 0 to 1 (modifiers met)\n@initial (bool); 1 (default) = set initial state regardless of modifiers\n@defer (bool); 1 = defer output and external state"
				}

			}
, 			{
				"box" : 				{
					"fontname" : "Theinhardt Light",
					"id" : "obj-13",
					"maxclass" : "comment",
					"numinlets" : 1,
					"numoutlets" : 0,
					"patching_rect" : [ 543.5, 583.2855224609375, 41.0, 18.0 ],
					"text" : "thru"
				}

			}
, 			{
				"box" : 				{
					"fontname" : "Theinhardt Light",
					"id" : "obj-1",
					"maxclass" : "comment",
					"numinlets" : 1,
					"numoutlets" : 0,
					"patching_rect" : [ 543.5, 708.0, 41.0, 18.0 ],
					"text" : "output"
				}

			}
, 			{
				"box" : 				{
					"fontname" : "Theinhardt Light",
					"fontsize" : 12.0,
					"id" : "obj-10",
					"linecount" : 9,
					"maxclass" : "comment",
					"numinlets" : 1,
					"numoutlets" : 0,
					"patching_rect" : [ 14.0, 120.0, 356.0, 115.0 ],
					"text" : "args:\n\nmodifier name (symbol) + numeric states\n• single positive number = allow pass through when met\n• single negative number = disallow pass through when met\n• singles in brackets = disallow pass through when met, useful for (0)\n• list of positives = allow pass through when any are met\n\nnumerous modifiers can be defined in a list."
				}

			}
, 			{
				"box" : 				{
					"fontname" : "Theinhardt Light",
					"id" : "obj-7",
					"maxclass" : "comment",
					"numinlets" : 1,
					"numoutlets" : 0,
					"patching_rect" : [ 768.5, 708.0, 34.0, 18.0 ],
					"text" : "state"
				}

			}
, 			{
				"box" : 				{
					"fontname" : "Theinhardt Light",
					"id" : "obj-5",
					"maxclass" : "comment",
					"numinlets" : 1,
					"numoutlets" : 0,
					"patching_rect" : [ 637.25, 85.0, 67.0, 18.0 ],
					"text" : "input / args"
				}

			}
, 			{
				"box" : 				{
					"id" : "obj-23",
					"maxclass" : "toggle",
					"numinlets" : 1,
					"numoutlets" : 1,
					"outlettype" : [ "int" ],
					"parameter_enable" : 0,
					"patching_rect" : [ 595.25, 581.2855224609375, 24.0, 24.0 ]
				}

			}
, 			{
				"box" : 				{
					"bgcolor" : [ 0.290196, 0.309804, 0.301961, 1.0 ],
					"color" : [ 0.652473, 0.275229, 0.107814, 1.0 ],
					"id" : "obj-11",
					"maxclass" : "newobj",
					"numinlets" : 1,
					"numoutlets" : 3,
					"outlettype" : [ "int", "int", "int" ],
					"patching_rect" : [ 458.5, 393.7855224609375, 292.5, 20.0 ],
					"text" : "t i i i",
					"textcolor" : [ 0.921569, 0.917647, 0.933333, 1.0 ]
				}

			}
, 			{
				"box" : 				{
					"comment" : "bool; 1 if all modifyers match conditions, 0 if one of them does not",
					"id" : "obj-55",
					"index" : 2,
					"maxclass" : "outlet",
					"numinlets" : 1,
					"numoutlets" : 0,
					"patching_rect" : [ 732.0, 701.7855224609375, 30.0, 30.0 ]
				}

			}
, 			{
				"box" : 				{
					"comment" : "anything; pass through to first outlet if modifyers match conditions",
					"id" : "obj-53",
					"index" : 1,
					"maxclass" : "inlet",
					"numinlets" : 0,
					"numoutlets" : 1,
					"outlettype" : [ "signal" ],
					"patching_rect" : [ 604.25, 79.0, 30.0, 30.0 ]
				}

			}
, 			{
				"box" : 				{
					"bgcolor" : [ 0.811765, 1.0, 0.976471, 1.0 ],
					"color" : [ 0.211765, 0.898039, 0.576471, 1.0 ],
					"id" : "obj-51",
					"maxclass" : "newobj",
					"numinlets" : 2,
					"numoutlets" : 1,
					"outlettype" : [ "multichannelsignal" ],
					"patching_rect" : [ 595.25, 637.7855224609375, 63.0, 20.0 ],
					"text" : "mc.gate~",
					"textcolor" : [ 0.0, 0.0, 0.0, 1.0 ]
				}

			}
, 			{
				"box" : 				{
					"comment" : "signal; pass through if modifyers match conditions, otherwise outputs a 0 signal",
					"id" : "obj-50",
					"index" : 1,
					"maxclass" : "outlet",
					"numinlets" : 1,
					"numoutlets" : 0,
					"patching_rect" : [ 595.25, 700.7855224609375, 30.0, 30.0 ]
				}

			}
, 			{
				"box" : 				{
					"bgcolor" : [ 0.288229, 0.801816, 0.743002, 1.0 ],
					"color" : [ 0.481539, 0.0, 0.0, 1.0 ],
					"id" : "obj-284",
					"maxclass" : "newobj",
					"numinlets" : 2,
					"numoutlets" : 1,
					"outlettype" : [ "int" ],
					"patching_rect" : [ 458.5, 320.7855224609375, 170.0, 20.0 ],
					"text" : "oni.modgate.ports",
					"textcolor" : [ 0.0, 0.0, 0.0, 1.0 ]
				}

			}
, 			{
				"box" : 				{
					"bgcolor" : [ 0.545098, 0.85098, 0.592157, 1.0 ],
					"color" : [ 0.054902, 0.341176, 0.498039, 1.0 ],
					"id" : "obj-6",
					"maxclass" : "newobj",
					"numinlets" : 1,
					"numoutlets" : 2,
					"outlettype" : [ "", "" ],
					"patching_rect" : [ 458.5, 203.0, 117.0, 20.0 ],
					"text" : "patcherargs @initial 0",
					"textcolor" : [ 0.0, 0.0, 0.0, 1.0 ]
				}

			}
, 			{
				"box" : 				{
					"fontname" : "Theinhardt Light",
					"fontsize" : 31.601106143802621,
					"id" : "obj-4",
					"maxclass" : "comment",
					"numinlets" : 1,
					"numoutlets" : 0,
					"patching_rect" : [ 14.0, 18.7855224609375, 408.0, 38.0 ],
					"text" : "oni.mc.modgate~",
					"varname" : "title[2]"
				}

			}
, 			{
				"box" : 				{
					"border" : 1.57,
					"id" : "obj-2",
					"justification" : 2,
					"linecolor" : [ 1.0, 0.984314, 0.870588, 1.0 ],
					"maxclass" : "live.line",
					"numinlets" : 1,
					"numoutlets" : 0,
					"patching_rect" : [ 451.0, 10.5, 729.0, 6.2855224609375 ]
				}

			}
, 			{
				"box" : 				{
					"fontname" : "Theinhardt Light",
					"fontsize" : 18.0,
					"id" : "obj-3",
					"linecount" : 2,
					"maxclass" : "comment",
					"numinlets" : 1,
					"numoutlets" : 0,
					"patching_rect" : [ 451.0, 18.7855224609375, 376.0, 42.0 ],
					"text" : "monitor modifiers and output incoming multichannelsignal when criteria is met",
					"varname" : "title[1]"
				}

			}
, 			{
				"box" : 				{
					"fontname" : "Theinhardt Light",
					"fontsize" : 12.0,
					"id" : "obj-35",
					"linecount" : 4,
					"maxclass" : "comment",
					"numinlets" : 1,
					"numoutlets" : 0,
					"patching_rect" : [ 14.0, 312.2855224609375, 356.0, 55.0 ],
					"text" : "required abstractions:\n\noni.modgate.ports\noni.modgate.component"
				}

			}
, 			{
				"box" : 				{
					"border" : 1.57,
					"id" : "obj-41",
					"justification" : 2,
					"linecolor" : [ 1.0, 0.984314, 0.870588, 1.0 ],
					"maxclass" : "live.line",
					"numinlets" : 1,
					"numoutlets" : 0,
					"patching_rect" : [ 14.0, 12.0, 408.0, 5.0 ]
				}

			}
, 			{
				"box" : 				{
					"fontname" : "Theinhardt Light",
					"fontsize" : 18.0,
					"id" : "obj-131",
					"linecount" : 2,
					"maxclass" : "comment",
					"numinlets" : 1,
					"numoutlets" : 0,
					"patching_rect" : [ 14.0, 63.0, 410.0, 42.0 ],
					"text" : "define a set of modifiers and their conditions to pass throughand output multichannelsignal",
					"varname" : "title"
				}

			}
 ],
		"lines" : [ 			{
				"patchline" : 				{
					"destination" : [ "obj-18", 1 ],
					"source" : [ "obj-11", 2 ]
				}

			}
, 			{
				"patchline" : 				{
					"destination" : [ "obj-23", 0 ],
					"source" : [ "obj-11", 1 ]
				}

			}
, 			{
				"patchline" : 				{
					"destination" : [ "obj-19", 0 ],
					"source" : [ "obj-18", 1 ]
				}

			}
, 			{
				"patchline" : 				{
					"destination" : [ "obj-33", 0 ],
					"source" : [ "obj-18", 0 ]
				}

			}
, 			{
				"patchline" : 				{
					"destination" : [ "obj-55", 0 ],
					"source" : [ "obj-19", 0 ]
				}

			}
, 			{
				"patchline" : 				{
					"destination" : [ "obj-284", 0 ],
					"source" : [ "obj-22", 0 ]
				}

			}
, 			{
				"patchline" : 				{
					"destination" : [ "obj-51", 0 ],
					"source" : [ "obj-23", 0 ]
				}

			}
, 			{
				"patchline" : 				{
					"destination" : [ "obj-51", 1 ],
					"source" : [ "obj-28", 0 ]
				}

			}
, 			{
				"patchline" : 				{
					"destination" : [ "obj-8", 0 ],
					"source" : [ "obj-28", 1 ]
				}

			}
, 			{
				"patchline" : 				{
					"destination" : [ "obj-11", 0 ],
					"source" : [ "obj-284", 0 ]
				}

			}
, 			{
				"patchline" : 				{
					"destination" : [ "obj-55", 0 ],
					"midpoints" : [ 697.5, 579.2855224609375, 741.5, 579.2855224609375 ],
					"source" : [ "obj-33", 0 ]
				}

			}
, 			{
				"patchline" : 				{
					"destination" : [ "obj-50", 0 ],
					"source" : [ "obj-37", 0 ]
				}

			}
, 			{
				"patchline" : 				{
					"destination" : [ "obj-11", 0 ],
					"midpoints" : [ 566.0, 362.39276123046875, 468.0, 362.39276123046875 ],
					"order" : 1,
					"source" : [ "obj-38", 0 ]
				}

			}
, 			{
				"patchline" : 				{
					"destination" : [ "obj-284", 0 ],
					"midpoints" : [ 650.5, 310.665283203125, 468.0, 310.665283203125 ],
					"source" : [ "obj-38", 1 ]
				}

			}
, 			{
				"patchline" : 				{
					"destination" : [ "obj-284", 1 ],
					"order" : 0,
					"source" : [ "obj-38", 0 ]
				}

			}
, 			{
				"patchline" : 				{
					"destination" : [ "obj-50", 0 ],
					"source" : [ "obj-51", 0 ]
				}

			}
, 			{
				"patchline" : 				{
					"destination" : [ "obj-28", 0 ],
					"source" : [ "obj-53", 0 ]
				}

			}
, 			{
				"patchline" : 				{
					"destination" : [ "obj-284", 0 ],
					"source" : [ "obj-6", 0 ]
				}

			}
, 			{
				"patchline" : 				{
					"destination" : [ "obj-38", 0 ],
					"source" : [ "obj-6", 1 ]
				}

			}
, 			{
				"patchline" : 				{
					"destination" : [ "obj-38", 0 ],
					"source" : [ "obj-8", 5 ]
				}

			}
, 			{
				"patchline" : 				{
					"destination" : [ "obj-51", 1 ],
					"source" : [ "obj-8", 0 ]
				}

			}
 ],
		"styles" : [ 			{
				"name" : "AudioStatus_Menu",
				"default" : 				{
					"bgfillcolor" : 					{
						"type" : "color",
						"color" : [ 0.294118, 0.313726, 0.337255, 1 ],
						"color1" : [ 0.454902, 0.462745, 0.482353, 0.0 ],
						"color2" : [ 0.290196, 0.309804, 0.301961, 1.0 ],
						"angle" : 270.0,
						"proportion" : 0.39,
						"autogradient" : 0
					}

				}
,
				"parentstyle" : "",
				"multi" : 0
			}
, 			{
				"name" : "Xenorama",
				"default" : 				{
					"color" : [ 0.937255, 0.763913, 0.302615, 1.0 ],
					"textcolor" : [ 1.0, 0.984314, 0.870588, 1.0 ],
					"fontname" : [ "Theinhardt Light" ],
					"patchlinecolor" : [ 1.0, 0.984314, 0.870588, 0.741017 ],
					"bgfillcolor" : 					{
						"type" : "gradient",
						"color1" : [ 0.376471, 0.384314, 0.4, 1.0 ],
						"color2" : [ 0.290196, 0.309804, 0.301961, 1.0 ],
						"color" : [ 0.290196, 0.309804, 0.301961, 1.0 ],
						"angle" : 270.0,
						"proportion" : 0.39
					}

				}
,
				"parentstyle" : "",
				"multi" : 0
			}
, 			{
				"name" : "livid_sysex",
				"default" : 				{
					"accentcolor" : [ 0.596078, 0.174761, 0.100412, 1.0 ],
					"textcolor_inverse" : [ 0.683327, 0.922818, 0.83347, 1.0 ]
				}
,
				"parentstyle" : "",
				"multi" : 0
			}
, 			{
				"name" : "newobjBlue-1",
				"default" : 				{
					"accentcolor" : [ 0.317647, 0.654902, 0.976471, 1.0 ]
				}
,
				"parentstyle" : "",
				"multi" : 0
			}
, 			{
				"name" : "newobjBrown-1",
				"default" : 				{
					"accentcolor" : [ 0.654902, 0.572549, 0.376471, 1.0 ]
				}
,
				"parentstyle" : "",
				"multi" : 0
			}
, 			{
				"name" : "newobjCyan-1",
				"default" : 				{
					"accentcolor" : [ 0.029546, 0.773327, 0.821113, 1.0 ]
				}
,
				"parentstyle" : "",
				"multi" : 0
			}
, 			{
				"name" : "newobjGreen-1",
				"default" : 				{
					"accentcolor" : [ 0.0, 0.533333, 0.168627, 1.0 ]
				}
,
				"parentstyle" : "",
				"multi" : 0
			}
, 			{
				"name" : "newobjYellow-1",
				"default" : 				{
					"fontsize" : [ 12.059008 ],
					"accentcolor" : [ 0.82517, 0.78181, 0.059545, 1.0 ]
				}
,
				"parentstyle" : "",
				"multi" : 0
			}
, 			{
				"name" : "numberGold-1",
				"default" : 				{
					"accentcolor" : [ 0.764706, 0.592157, 0.101961, 1.0 ]
				}
,
				"parentstyle" : "",
				"multi" : 0
			}
, 			{
				"name" : "oni",
				"umenu" : 				{
					"color" : [ 0.376471, 0.384314, 0.4, 1.0 ],
					"elementcolor" : [ 0.376471, 0.384314, 0.4, 1.0 ],
					"textcolor_inverse" : [ 1.0, 0.984314, 0.870588, 1.0 ]
				}
,
				"button" : 				{
					"color" : [ 1.0, 0.741176, 0.196078, 1.0 ],
					"elementcolor" : [ 0.4, 0.486275, 0.505882, 1.0 ]
				}
,
				"parentstyle" : "oni_default-1",
				"multi" : 1
			}
, 			{
				"name" : "oni_default",
				"umenu" : 				{
					"color" : [ 0.4, 0.486275, 0.505882, 1.0 ],
					"textcolor_inverse" : [ 1.0, 0.984314, 0.870588, 1.0 ],
					"bgfillcolor" : 					{
						"type" : "color",
						"color1" : [ 0.376471, 0.384314, 0.4, 1.0 ],
						"color2" : [ 0.290196, 0.309804, 0.301961, 1.0 ],
						"color" : [ 0.290196, 0.309804, 0.301961, 1.0 ],
						"angle" : 270.0,
						"proportion" : 0.39,
						"autogradient" : 0
					}

				}
,
				"textbutton" : 				{
					"color" : [ 1.0, 0.741176, 0.196078, 1.0 ],
					"selectioncolor" : [ 1.0, 0.741176, 0.196078, 0.66 ]
				}
,
				"button" : 				{
					"color" : [ 1.0, 0.741176, 0.196078, 1.0 ],
					"elementcolor" : [ 0.4, 0.486275, 0.505882, 1.0 ]
				}
,
				"panel" : 				{
					"color" : [ 0.803922, 0.898039, 0.909804, 1.0 ]
				}
,
				"number" : 				{
					"accentcolor" : [ 0.4, 0.486275, 0.505882, 1.0 ],
					"selectioncolor" : [ 1.0, 0.741176, 0.196078, 1.0 ],
					"textcolor_inverse" : [ 1.0, 0.984314, 0.870588, 1.0 ]
				}
,
				"newobj" : 				{
					"accentcolor" : [ 0.501961, 0.501961, 0.0, 1.0 ],
					"textcolor_inverse" : [ 0.0, 0.0, 0.0, 1.0 ],
					"bgcolor" : [ 0.937255, 0.898039, 0.0, 1.0 ]
				}
,
				"dial" : 				{
					"elementcolor" : [ 0.376471, 0.384314, 0.4, 1.0 ]
				}
,
				"slider" : 				{
					"bgcolor" : [ 0.4, 0.486275, 0.505882, 1.0 ]
				}
,
				"parentstyle" : "",
				"multi" : 1
			}
, 			{
				"name" : "oni_default-1",
				"dial" : 				{
					"color" : [ 1.0, 0.741176, 0.196078, 1.0 ],
					"elementcolor" : [ 0.376471, 0.384314, 0.4, 1.0 ],
					"bgcolor" : [ 0.875413, 0.933282, 0.915502, 0.0 ]
				}
,
				"textbutton" : 				{
					"color" : [ 1.0, 0.741176, 0.196078, 1.0 ],
					"accentcolor" : [ 0.4, 0.486275, 0.505882, 1.0 ],
					"fontname" : [ "Futura Std Book" ],
					"selectioncolor" : [ 0.968627, 0.768627, 0.101961, 0.509804 ],
					"elementcolor" : [ 0.25098, 0.25098, 0.25098, 1.0 ],
					"bgcolor" : [ 0.25098, 0.25098, 0.25098, 1.0 ]
				}
,
				"slider" : 				{
					"color" : [ 1.0, 0.741176, 0.196078, 1.0 ],
					"bgcolor" : [ 1.0, 1.0, 1.0, 1.0 ]
				}
,
				"tab" : 				{
					"color" : [ 1.0, 0.741176, 0.196078, 0.84 ],
					"fontname" : [ "Futura Std Book" ],
					"elementcolor" : [ 0.6, 0.6, 0.6, 0.15 ],
					"textcolor_inverse" : [ 0.400043, 0.485168, 0.504775, 1.0 ]
				}
,
				"button" : 				{
					"color" : [ 1.0, 0.101961, 0.305882, 1.0 ],
					"elementcolor" : [ 1.0, 0.101961, 0.305882, 1.0 ],
					"bgcolor" : [ 0.25098, 0.25098, 0.25098, 0.0 ]
				}
,
				"preset" : 				{
					"color" : [ 1.0, 0.741176, 0.196078, 1.0 ],
					"textcolor" : [ 1.0, 0.995412, 0.945192, 1.0 ],
					"accentcolor" : [ 0.411765, 0.568627, 0.588235, 0.71 ],
					"fontname" : [ "Futura Std Book" ],
					"elementcolor" : [ 0.431373, 0.431373, 0.431373, 0.46 ],
					"bgcolor" : [ 0.25098, 0.25098, 0.25098, 1.0 ]
				}
,
				"panel" : 				{
					"color" : [ 0.803922, 0.898039, 0.909804, 1.0 ],
					"bgfillcolor" : 					{
						"type" : "gradient",
						"color1" : [ 0.25098, 0.25098, 0.25098, 1.0 ],
						"color2" : [ 0.25098, 0.25098, 0.25098, 1.0 ],
						"color" : [ 0.290196, 0.309804, 0.301961, 1.0 ],
						"angle" : 270.0,
						"proportion" : 0.39
					}

				}
,
				"number" : 				{
					"fontsize" : [ 12.0 ],
					"fontname" : [ "Futura Std Book" ]
				}
,
				"comment" : 				{
					"fontsize" : [ 12.0 ],
					"textcolor" : [ 1.0, 0.998287, 0.929809, 1.0 ],
					"fontname" : [ "Futura Std Book" ],
					"textjustification" : [ 2 ]
				}
,
				"umenu" : 				{
					"fontname" : [ "Futura Std Book" ],
					"textcolor_inverse" : [ 1.0, 0.998287, 0.929809, 1.0 ],
					"bgfillcolor" : 					{
						"type" : "color",
						"color1" : [ 0.376471, 0.384314, 0.4, 1.0 ],
						"color2" : [ 0.290196, 0.309804, 0.301961, 1.0 ],
						"color" : [ 0.25098, 0.25098, 0.25098, 1.0 ],
						"angle" : 270.0,
						"proportion" : 0.39,
						"autogradient" : 0
					}

				}
,
				"parentstyle" : "",
				"multi" : 1
			}
, 			{
				"name" : "oni_default-2",
				"textbutton" : 				{
					"color" : [ 1.0, 0.741176, 0.196078, 1.0 ],
					"accentcolor" : [ 0.4, 0.486275, 0.505882, 1.0 ],
					"fontname" : [ "Futura Std Book" ],
					"selectioncolor" : [ 0.968627, 0.768627, 0.101961, 0.509804 ],
					"elementcolor" : [ 0.25098, 0.25098, 0.25098, 1.0 ],
					"bgcolor" : [ 0.25098, 0.25098, 0.25098, 1.0 ]
				}
,
				"comment" : 				{
					"fontsize" : [ 12.0 ],
					"textcolor" : [ 1.0, 0.998287, 0.929809, 1.0 ],
					"fontname" : [ "Futura Std Book" ],
					"textjustification" : [ 2 ]
				}
,
				"number" : 				{
					"fontname" : [ "Futura Std Book" ],
					"selectioncolor" : [ 1.0, 0.741176, 0.196078, 1.0 ],
					"textcolor_inverse" : [ 1.0, 0.984314, 0.870588, 1.0 ]
				}
,
				"parentstyle" : "",
				"multi" : 1
			}
, 			{
				"name" : "oni_default-3",
				"textbutton" : 				{
					"color" : [ 1.0, 0.741176, 0.196078, 1.0 ],
					"accentcolor" : [ 0.4, 0.486275, 0.505882, 1.0 ],
					"fontname" : [ "Futura Std Book" ],
					"selectioncolor" : [ 0.968627, 0.768627, 0.101961, 0.509804 ],
					"elementcolor" : [ 0.25098, 0.25098, 0.25098, 1.0 ],
					"bgcolor" : [ 0.25098, 0.25098, 0.25098, 1.0 ]
				}
,
				"comment" : 				{
					"fontsize" : [ 12.0 ],
					"textcolor" : [ 1.0, 0.998287, 0.929809, 1.0 ],
					"fontname" : [ "Futura Std Book" ],
					"textjustification" : [ 2 ]
				}
,
				"number" : 				{
					"fontname" : [ "Futura Std Book" ],
					"selectioncolor" : [ 1.0, 0.741176, 0.196078, 1.0 ],
					"textcolor_inverse" : [ 1.0, 0.984314, 0.870588, 1.0 ]
				}
,
				"parentstyle" : "",
				"multi" : 1
			}
, 			{
				"name" : "oni_default-4",
				"textbutton" : 				{
					"color" : [ 1.0, 0.741176, 0.196078, 1.0 ],
					"accentcolor" : [ 0.4, 0.486275, 0.505882, 1.0 ],
					"fontname" : [ "Futura Std Book" ],
					"selectioncolor" : [ 0.968627, 0.768627, 0.101961, 0.509804 ],
					"elementcolor" : [ 0.25098, 0.25098, 0.25098, 1.0 ],
					"bgcolor" : [ 0.25098, 0.25098, 0.25098, 1.0 ]
				}
,
				"comment" : 				{
					"fontsize" : [ 12.0 ],
					"textcolor" : [ 1.0, 0.998287, 0.929809, 1.0 ],
					"fontname" : [ "Futura Std Book" ],
					"textjustification" : [ 2 ]
				}
,
				"number" : 				{
					"fontname" : [ "Futura Std Book" ],
					"selectioncolor" : [ 1.0, 0.741176, 0.196078, 1.0 ],
					"textcolor_inverse" : [ 1.0, 0.984314, 0.870588, 1.0 ]
				}
,
				"parentstyle" : "",
				"multi" : 1
			}
, 			{
				"name" : "oni_default-5",
				"textbutton" : 				{
					"color" : [ 1.0, 0.741176, 0.196078, 1.0 ],
					"accentcolor" : [ 0.4, 0.486275, 0.505882, 1.0 ],
					"fontname" : [ "Futura Std Book" ],
					"selectioncolor" : [ 0.968627, 0.768627, 0.101961, 0.509804 ],
					"elementcolor" : [ 0.25098, 0.25098, 0.25098, 1.0 ],
					"bgcolor" : [ 0.25098, 0.25098, 0.25098, 1.0 ]
				}
,
				"comment" : 				{
					"fontsize" : [ 12.0 ],
					"textcolor" : [ 1.0, 0.998287, 0.929809, 1.0 ],
					"fontname" : [ "Futura Std Book" ],
					"textjustification" : [ 2 ]
				}
,
				"number" : 				{
					"fontname" : [ "Futura Std Book" ],
					"selectioncolor" : [ 1.0, 0.741176, 0.196078, 1.0 ],
					"textcolor_inverse" : [ 1.0, 0.984314, 0.870588, 1.0 ]
				}
,
				"parentstyle" : "",
				"multi" : 1
			}
, 			{
				"name" : "panelViolet",
				"default" : 				{
					"bgfillcolor" : 					{
						"type" : "color",
						"color" : [ 0.372549, 0.196078, 0.486275, 0.2 ],
						"color1" : [ 0.454902, 0.462745, 0.482353, 1.0 ],
						"color2" : [ 0.290196, 0.309804, 0.301961, 1.0 ],
						"angle" : 270.0,
						"proportion" : 0.39,
						"autogradient" : 0
					}

				}
,
				"parentstyle" : "",
				"multi" : 0
			}
, 			{
				"name" : "patcherargs",
				"default" : 				{
					"accentcolor" : [ 0.054902, 0.341176, 0.498039, 1.0 ],
					"textcolor_inverse" : [ 0.0, 0.0, 0.0, 1.0 ],
					"bgcolor" : [ 0.545098, 0.85098, 0.592157, 1.0 ]
				}
,
				"parentstyle" : "",
				"multi" : 0
			}
, 			{
				"name" : "pattr001",
				"newobj" : 				{
					"accentcolor" : [ 0.501961, 0.501961, 0.0, 1.0 ],
					"textcolor_inverse" : [ 0.0, 0.0, 0.0, 1.0 ],
					"bgcolor" : [ 0.937255, 0.898039, 0.0, 1.0 ]
				}
,
				"parentstyle" : "",
				"multi" : 1
			}
, 			{
				"name" : "pattr_inv",
				"default" : 				{
					"accentcolor" : [ 0.356495, 0.111353, 0.074435, 1.0 ],
					"textcolor_inverse" : [ 0.0, 0.0, 0.0, 1.0 ],
					"bgcolor" : [ 0.545098, 0.85098, 0.592157, 1.0 ]
				}
,
				"parentstyle" : "",
				"multi" : 0
			}
, 			{
				"name" : "tap",
				"default" : 				{
					"fontname" : [ "Lato Light" ]
				}
,
				"parentstyle" : "",
				"multi" : 0
			}
, 			{
				"name" : "thisdevice",
				"default" : 				{
					"accentcolor" : [ 0.501961, 0.501961, 0.0, 1.0 ],
					"textcolor_inverse" : [ 0.0, 0.0, 0.0, 1.0 ],
					"bgcolor" : [ 0.937255, 0.796078, 0.0, 1.0 ]
				}
,
				"parentstyle" : "",
				"multi" : 0
			}
 ],
		"color" : [ 0.937255, 0.763913, 0.302615, 1.0 ],
		"textcolor" : [ 1.0, 0.984314, 0.870588, 1.0 ],
		"patchlinecolor" : [ 1.0, 0.984314, 0.870588, 0.741017 ],
		"bgcolor" : [ 0.25098, 0.25098, 0.25098, 1.0 ],
		"editing_bgcolor" : [ 0.431373, 0.431373, 0.431373, 1.0 ]
	}

}
