{
	"patcher" : 	{
		"fileversion" : 1,
		"appversion" : 		{
			"major" : 8,
			"minor" : 5,
			"revision" : 2,
			"architecture" : "x64",
			"modernui" : 1
		}
,
		"classnamespace" : "box",
		"rect" : [ 100.0, 100.0, 900.0, 750.0 ],
		"bglocked" : 0,
		"openinpresentation" : 0,
		"default_fontsize" : 12.0,
		"default_fontface" : 0,
		"default_fontname" : "Arial",
		"gridonopen" : 1,
		"gridsize" : [ 15.0, 15.0 ],
		"gridsnaponopen" : 1,
		"objectsnaponopen" : 1,
		"statusbarvisible" : 2,
		"toolbarvisible" : 1,
		"lefttoolbarpinned" : 0,
		"toptoolbarpinned" : 0,
		"righttoolbarpinned" : 0,
		"bottomtoolbarpinned" : 0,
		"toolbars_unpinned_last_save" : 0,
		"tallnewobj" : 0,
		"boxanimatetime" : 200,
		"enablehscroll" : 1,
		"enablevscroll" : 1,
		"devicewidth" : 0.0,
		"description" : "",
		"digest" : "",
		"tags" : "",
		"style" : "",
		"subpatcher_template" : "",
		"showrootpatcherontab" : 0,
		"showontab" : 0,
		"assistshowspatchername" : 0,
		"boxes" : [ 			{
				"box" : 				{
					"id" : "obj-15",
					"maxclass" : "newobj",
					"numinlets" : 1,
					"numoutlets" : 2,
					"outlettype" : [ "", "" ],
					"patching_rect" : [ 19.0, 408.0, 67.0, 22.0 ],
					"save" : [ "#N", "thispatcher", ";", "#Q", "end", ";" ],
					"text" : "thispatcher"
				}

			}
, 			{
				"box" : 				{
					"id" : "obj-14",
					"maxclass" : "newobj",
					"numinlets" : 1,
					"numoutlets" : 1,
					"outlettype" : [ "" ],
					"patching_rect" : [ 19.0, 378.0, 199.0, 22.0 ],
					"text" : "loadmess setactivetab mc @defer 1"
				}

			}
, 			{
				"box" : 				{
					"id" : "obj-2",
					"maxclass" : "message",
					"numinlets" : 2,
					"numoutlets" : 1,
					"outlettype" : [ "" ],
					"patching_rect" : [ 19.0, 263.0, 93.0, 22.0 ],
					"text" : "the.mc.live.rec~"
				}

			}
, 			{
				"box" : 				{
					"id" : "obj-3",
					"maxclass" : "newobj",
					"numinlets" : 1,
					"numoutlets" : 0,
					"patching_rect" : [ 19.0, 323.0, 67.0, 22.0 ],
					"text" : "universal 1"
				}

			}
, 			{
				"box" : 				{
					"id" : "obj-4",
					"maxclass" : "message",
					"numinlets" : 2,
					"numoutlets" : 1,
					"outlettype" : [ "" ],
					"patching_rect" : [ 19.0, 293.0, 112.0, 22.0 ],
					"text" : "jsui jsarguments $1"
				}

			}
, 			{
				"box" : 				{
					"id" : "obj-11",
					"maxclass" : "newobj",
					"numinlets" : 1,
					"numoutlets" : 1,
					"outlettype" : [ "" ],
					"patching_rect" : [ 295.0, 294.0, 142.0, 22.0 ],
					"text" : "loadmess resize 900 750"
				}

			}
, 			{
				"box" : 				{
					"id" : "obj-7",
					"maxclass" : "newobj",
					"numinlets" : 0,
					"numoutlets" : 0,
					"patcher" : 					{
						"fileversion" : 1,
						"appversion" : 						{
							"major" : 8,
							"minor" : 5,
							"revision" : 2,
							"architecture" : "x64",
							"modernui" : 1
						}
,
						"classnamespace" : "box",
						"rect" : [ 0.0, 26.0, 900.0, 724.0 ],
						"bglocked" : 0,
						"openinpresentation" : 0,
						"default_fontsize" : 12.0,
						"default_fontface" : 0,
						"default_fontname" : "Arial",
						"gridonopen" : 1,
						"gridsize" : [ 15.0, 15.0 ],
						"gridsnaponopen" : 1,
						"objectsnaponopen" : 1,
						"statusbarvisible" : 2,
						"toolbarvisible" : 1,
						"lefttoolbarpinned" : 0,
						"toptoolbarpinned" : 0,
						"righttoolbarpinned" : 0,
						"bottomtoolbarpinned" : 0,
						"toolbars_unpinned_last_save" : 0,
						"tallnewobj" : 0,
						"boxanimatetime" : 200,
						"enablehscroll" : 1,
						"enablevscroll" : 1,
						"devicewidth" : 0.0,
						"description" : "",
						"digest" : "",
						"tags" : "",
						"style" : "",
						"subpatcher_template" : "",
						"showontab" : 1,
						"assistshowspatchername" : 0,
						"boxes" : [  ],
						"lines" : [  ]
					}
,
					"patching_rect" : [ 215.0, 182.0, 50.0, 22.0 ],
					"saved_object_attributes" : 					{
						"description" : "",
						"digest" : "",
						"globalpatchername" : "",
						"tags" : ""
					}
,
					"text" : "p ?",
					"varname" : "q_tab"
				}

			}
, 			{
				"box" : 				{
					"fontname" : "Arial",
					"fontsize" : 12.0,
					"id" : "obj-1",
					"maxclass" : "newobj",
					"numinlets" : 1,
					"numoutlets" : 1,
					"outlettype" : [ "" ],
					"patching_rect" : [ 295.0, 340.0, 183.0, 22.0 ],
					"saved_object_attributes" : 					{
						"filename" : "helpstarter.js",
						"parameter_enable" : 0
					}
,
					"text" : "js helpstarter.js oni.streamfunnel"
				}

			}
, 			{
				"box" : 				{
					"border" : 0,
					"filename" : "helpname.js",
					"id" : "obj-5",
					"ignoreclick" : 1,
					"jsarguments" : [ "the.mc.live.rec~" ],
					"maxclass" : "jsui",
					"numinlets" : 1,
					"numoutlets" : 1,
					"outlettype" : [ "" ],
					"parameter_enable" : 0,
					"patching_rect" : [ 10.0, 10.0, 335.600006103515625, 57.599853515625 ]
				}

			}
, 			{
				"box" : 				{
					"id" : "obj-6",
					"maxclass" : "newobj",
					"numinlets" : 0,
					"numoutlets" : 0,
					"patcher" : 					{
						"fileversion" : 1,
						"appversion" : 						{
							"major" : 8,
							"minor" : 5,
							"revision" : 2,
							"architecture" : "x64",
							"modernui" : 1
						}
,
						"classnamespace" : "box",
						"rect" : [ 100.0, 126.0, 900.0, 724.0 ],
						"bglocked" : 0,
						"openinpresentation" : 0,
						"default_fontsize" : 13.0,
						"default_fontface" : 0,
						"default_fontname" : "Arial",
						"gridonopen" : 1,
						"gridsize" : [ 5.0, 5.0 ],
						"gridsnaponopen" : 1,
						"objectsnaponopen" : 1,
						"statusbarvisible" : 2,
						"toolbarvisible" : 1,
						"lefttoolbarpinned" : 0,
						"toptoolbarpinned" : 0,
						"righttoolbarpinned" : 0,
						"bottomtoolbarpinned" : 0,
						"toolbars_unpinned_last_save" : 0,
						"tallnewobj" : 0,
						"boxanimatetime" : 200,
						"enablehscroll" : 1,
						"enablevscroll" : 1,
						"devicewidth" : 0.0,
						"description" : "",
						"digest" : "",
						"tags" : "",
						"style" : "",
						"subpatcher_template" : "",
						"showontab" : 1,
						"assistshowspatchername" : 0,
						"boxes" : [ 							{
								"box" : 								{
									"border" : 0,
									"embedstate" : [ [ "outline_color", "bgcolor" ], [ "panel_color", "bgcolor" ], [ "mode", 0 ], [ "align", 1 ], [ "panel", 0 ], [ "circle", 0 ], [ "svg_off_color", "locked_bgcolor" ], [ "offset", 0, 0 ], [ "scale", 1, 1 ], [ "svg", "live.rec.xen.svg", "live.rec.xen.svg" ], [ "hover_color", "accentcolor" ], [ "text", "xenorama" ], [ "outline_size", 0.7 ], [ "font_name", "Lato" ], [ "on_color", "color" ], [ "text_offset", 0 ], [ "text_color", "bgcolor" ], [ "font_size", 13 ], [ "rounded", 0.3 ], [ "help_grid", 0 ], [ "outline", 0 ], [ "active", 1 ] ],
									"filename" : "the.svgbutton.js",
									"id" : "obj-47",
									"jsarguments" : [ "audiopower2.svg" ],
									"maxclass" : "jsui",
									"numinlets" : 1,
									"numoutlets" : 2,
									"outlettype" : [ "", "" ],
									"parameter_enable" : 0,
									"patching_rect" : [ 648.0, 64.5, 104.0, 32.0 ],
									"presentation" : 1,
									"presentation_rect" : [ 26.523824896131373, 189.5, 116.0, 32.0 ]
								}

							}
, 							{
								"box" : 								{
									"border" : 0,
									"embedstate" : [ [ "outline_color", "bgcolor" ], [ "panel_color", "bgcolor" ], [ "mode", 0 ], [ "align", 1 ], [ "panel", 0 ], [ "circle", 0 ], [ "svg_off_color", "locked_bgcolor" ], [ "offset", 0, 0 ], [ "scale", 1, 1 ], [ "svg", "live.rec.github.svg", "live.rec.github.svg" ], [ "hover_color", "accentcolor" ], [ "text", "github" ], [ "outline_size", 0.7 ], [ "font_name", "Lato" ], [ "on_color", "color" ], [ "text_offset", 0 ], [ "text_color", "bgcolor" ], [ "font_size", 13 ], [ "rounded", 0.3 ], [ "help_grid", 0 ], [ "outline", 0 ], [ "active", 1 ] ],
									"filename" : "the.svgbutton.js",
									"id" : "obj-13",
									"jsarguments" : [ "audiopower2.svg" ],
									"maxclass" : "jsui",
									"numinlets" : 1,
									"numoutlets" : 2,
									"outlettype" : [ "", "" ],
									"parameter_enable" : 0,
									"patching_rect" : [ 648.0, 22.0, 104.0, 32.0 ],
									"presentation" : 1,
									"presentation_rect" : [ 26.523824896131373, 146.5, 116.0, 32.0 ]
								}

							}
, 							{
								"box" : 								{
									"hidden" : 1,
									"id" : "obj-16",
									"linecount" : 2,
									"maxclass" : "message",
									"numinlets" : 2,
									"numoutlets" : 1,
									"outlettype" : [ "" ],
									"patching_rect" : [ 648.0, 109.5, 251.0, 38.0 ],
									"presentation_linecount" : 2,
									"text" : ";\rmax launchbrowser https://xenorama.com"
								}

							}
, 							{
								"box" : 								{
									"hidden" : 1,
									"id" : "obj-4",
									"linecount" : 2,
									"maxclass" : "message",
									"numinlets" : 2,
									"numoutlets" : 1,
									"outlettype" : [ "" ],
									"patching_rect" : [ 648.0, 109.5, 529.0, 38.0 ],
									"presentation_linecount" : 2,
									"text" : ";\rmax launchbrowser https://github.com/xenorama/the-abstractions/tree/main/msp/recording"
								}

							}
, 							{
								"box" : 								{
									"bubble" : 1,
									"id" : "obj-12",
									"maxclass" : "comment",
									"numinlets" : 1,
									"numoutlets" : 0,
									"patching_rect" : [ 442.0, 390.0, 176.0, 25.0 ],
									"presentation_linecount" : 2,
									"text" : "double click to open panel",
									"textcolor" : [ 0.129412, 0.129412, 0.129412, 1.0 ]
								}

							}
, 							{
								"box" : 								{
									"id" : "obj-7",
									"maxclass" : "newobj",
									"numinlets" : 1,
									"numoutlets" : 1,
									"outlettype" : [ "" ],
									"patching_rect" : [ 634.0, 236.0, 72.0, 23.0 ],
									"text" : "mousefilter"
								}

							}
, 							{
								"box" : 								{
									"id" : "obj-20",
									"maxclass" : "tab",
									"numinlets" : 1,
									"numoutlets" : 3,
									"outlettype" : [ "int", "", "" ],
									"parameter_enable" : 0,
									"patching_rect" : [ 241.5, 270.0, 200.0, 24.0 ],
									"tabs" : [ "record", "stop", "play" ]
								}

							}
, 							{
								"box" : 								{
									"bubble" : 1,
									"id" : "obj-18",
									"maxclass" : "comment",
									"numinlets" : 1,
									"numoutlets" : 0,
									"patching_rect" : [ 689.5, 200.0, 148.0, 25.0 ],
									"text" : "set length in seconds",
									"textcolor" : [ 0.129412, 0.129412, 0.129412, 1.0 ]
								}

							}
, 							{
								"box" : 								{
									"id" : "obj-11",
									"maxclass" : "message",
									"numinlets" : 2,
									"numoutlets" : 1,
									"outlettype" : [ "" ],
									"patching_rect" : [ 480.0, 308.0, 37.0, 23.0 ],
									"text" : "clear"
								}

							}
, 							{
								"box" : 								{
									"id" : "obj-37",
									"maxclass" : "message",
									"numinlets" : 2,
									"numoutlets" : 1,
									"outlettype" : [ "" ],
									"patching_rect" : [ 716.0, 308.0, 36.0, 23.0 ],
									"text" : "write"
								}

							}
, 							{
								"box" : 								{
									"bgcolor" : [ 1.0, 0.788235, 0.470588, 1.0 ],
									"fontname" : "Arial Bold",
									"hint" : "",
									"id" : "obj-30",
									"ignoreclick" : 1,
									"legacytextcolor" : 1,
									"maxclass" : "textbutton",
									"numinlets" : 1,
									"numoutlets" : 3,
									"outlettype" : [ "", "", "int" ],
									"parameter_enable" : 0,
									"patching_rect" : [ 401.5, 243.0, 20.0, 20.0 ],
									"rounded" : 60.0,
									"text" : "3",
									"textcolor" : [ 0.34902, 0.34902, 0.34902, 1.0 ]
								}

							}
, 							{
								"box" : 								{
									"bgcolor" : [ 1.0, 0.788235, 0.470588, 1.0 ],
									"fontname" : "Arial Bold",
									"hint" : "",
									"id" : "obj-22",
									"ignoreclick" : 1,
									"legacytextcolor" : 1,
									"maxclass" : "textbutton",
									"numinlets" : 1,
									"numoutlets" : 3,
									"outlettype" : [ "", "", "int" ],
									"parameter_enable" : 0,
									"patching_rect" : [ 265.5, 243.0, 20.0, 20.0 ],
									"rounded" : 60.0,
									"text" : "2",
									"textcolor" : [ 0.34902, 0.34902, 0.34902, 1.0 ]
								}

							}
, 							{
								"box" : 								{
									"fontface" : 0,
									"fontname" : "Arial",
									"fontsize" : 12.0,
									"id" : "obj-17",
									"maxclass" : "number~",
									"mode" : 2,
									"numinlets" : 2,
									"numoutlets" : 2,
									"outlettype" : [ "signal", "float" ],
									"patching_rect" : [ 127.0, 437.0, 87.0, 22.0 ],
									"sig" : 0.0
								}

							}
, 							{
								"box" : 								{
									"bgcolor" : [ 0.258823529411765, 0.235294117647059, 0.223529411764706, 0.0 ],
									"floatoutput" : 1,
									"id" : "obj-24",
									"knobcolor" : [ 1.0, 0.984313725490196, 0.870588235294118, 0.5 ],
									"knobshape" : 5,
									"maxclass" : "slider",
									"numinlets" : 1,
									"numoutlets" : 1,
									"outlettype" : [ "" ],
									"parameter_enable" : 0,
									"patching_rect" : [ 311.0, 505.5, 264.5, 71.0 ],
									"size" : 1.0,
									"thickness" : 50.0
								}

							}
, 							{
								"box" : 								{
									"buffername" : "1023_rec",
									"id" : "obj-3",
									"maxclass" : "waveform~",
									"numinlets" : 5,
									"numoutlets" : 6,
									"outlettype" : [ "float", "float", "float", "float", "list", "" ],
									"patching_rect" : [ 315.25, 508.5, 256.0, 64.0 ]
								}

							}
, 							{
								"box" : 								{
									"format" : 6,
									"id" : "obj-31",
									"maxclass" : "flonum",
									"minimum" : 1.0,
									"numinlets" : 1,
									"numoutlets" : 2,
									"outlettype" : [ "", "bang" ],
									"parameter_enable" : 0,
									"patching_rect" : [ 634.0, 200.0, 50.0, 23.0 ]
								}

							}
, 							{
								"box" : 								{
									"id" : "obj-28",
									"maxclass" : "newobj",
									"numinlets" : 2,
									"numoutlets" : 1,
									"outlettype" : [ "float" ],
									"patching_rect" : [ 634.0, 272.0, 50.0, 23.0 ],
									"text" : "* 1000."
								}

							}
, 							{
								"box" : 								{
									"id" : "obj-27",
									"maxclass" : "message",
									"numinlets" : 2,
									"numoutlets" : 1,
									"outlettype" : [ "" ],
									"patching_rect" : [ 634.0, 308.0, 50.0, 23.0 ],
									"text" : "size $1"
								}

							}
, 							{
								"box" : 								{
									"id" : "obj-23",
									"maxclass" : "toggle",
									"numinlets" : 1,
									"numoutlets" : 1,
									"outlettype" : [ "int" ],
									"parameter_enable" : 0,
									"patching_rect" : [ 566.0, 270.0, 24.0, 24.0 ]
								}

							}
, 							{
								"box" : 								{
									"id" : "obj-21",
									"maxclass" : "message",
									"numinlets" : 2,
									"numoutlets" : 1,
									"outlettype" : [ "" ],
									"patching_rect" : [ 566.0, 308.0, 51.0, 23.0 ],
									"text" : "loop $1"
								}

							}
, 							{
								"box" : 								{
									"id" : "obj-19",
									"maxclass" : "dict.view",
									"numinlets" : 1,
									"numoutlets" : 0,
									"patching_rect" : [ 589.5, 450.0, 158.0, 259.0 ]
								}

							}
, 							{
								"box" : 								{
									"id" : "obj-26",
									"maxclass" : "mc.ezdac~",
									"numinlets" : 1,
									"numoutlets" : 0,
									"patching_rect" : [ 34.0, 653.0, 45.0, 45.0 ]
								}

							}
, 							{
								"box" : 								{
									"id" : "obj-25",
									"lastchannelcount" : 2,
									"maxclass" : "mc.live.gain~",
									"numinlets" : 1,
									"numoutlets" : 4,
									"orientation" : 1,
									"outlettype" : [ "multichannelsignal", "", "float", "list" ],
									"parameter_enable" : 1,
									"patching_rect" : [ 34.0, 587.0, 137.0, 47.0 ],
									"saved_attribute_attributes" : 									{
										"valueof" : 										{
											"parameter_longname" : "mc.live.gain~[1]",
											"parameter_mmax" : 6.0,
											"parameter_mmin" : -70.0,
											"parameter_shortname" : "mc.live.gain~",
											"parameter_type" : 0,
											"parameter_unitstyle" : 4
										}

									}
,
									"varname" : "mc.live.gain~"
								}

							}
, 							{
								"box" : 								{
									"fontface" : 0,
									"fontname" : "Arial",
									"fontsize" : 12.0,
									"id" : "obj-15",
									"maxclass" : "number~",
									"mode" : 2,
									"numinlets" : 2,
									"numoutlets" : 2,
									"outlettype" : [ "signal", "float" ],
									"patching_rect" : [ 221.0, 437.0, 85.0, 22.0 ],
									"sig" : 0.0
								}

							}
, 							{
								"box" : 								{
									"id" : "obj-14",
									"maxclass" : "live.scope~",
									"numinlets" : 2,
									"numoutlets" : 1,
									"outlettype" : [ "bang" ],
									"patching_rect" : [ 127.0, 471.0, 71.0, 28.0 ],
									"range" : [ 0.0, 1.0 ]
								}

							}
, 							{
								"box" : 								{
									"id" : "obj-2",
									"maxclass" : "live.scope~",
									"numinlets" : 2,
									"numoutlets" : 1,
									"outlettype" : [ "bang" ],
									"patching_rect" : [ 34.0, 505.5, 184.0, 66.0 ]
								}

							}
, 							{
								"box" : 								{
									"id" : "obj-6",
									"maxclass" : "live.scope~",
									"numinlets" : 2,
									"numoutlets" : 1,
									"outlettype" : [ "bang" ],
									"patching_rect" : [ 34.0, 270.0, 184.0, 66.0 ]
								}

							}
, 							{
								"box" : 								{
									"color" : [ 1.0, 0.7372549176, 0.0, 1.0 ],
									"id" : "obj-9",
									"maxclass" : "newobj",
									"numinlets" : 1,
									"numoutlets" : 5,
									"outlettype" : [ "multichannelsignal", "multichannelsignal", "multichannelsignal", "", "dictionary" ],
									"patching_rect" : [ 34.0, 391.0, 393.0, 23.0 ],
									"text" : "the.mc.live.rec~ @size 5 secs @loop 0",
									"varname" : "cntrlr_in[1]"
								}

							}
, 							{
								"box" : 								{
									"id" : "obj-10",
									"maxclass" : "mc.ezadc~",
									"numinlets" : 1,
									"numoutlets" : 1,
									"outlettype" : [ "multichannelsignal" ],
									"patching_rect" : [ 34.0, 204.0, 45.0, 45.0 ]
								}

							}
, 							{
								"box" : 								{
									"id" : "obj-67",
									"maxclass" : "message",
									"numinlets" : 2,
									"numoutlets" : 1,
									"outlettype" : [ "" ],
									"patching_rect" : [ 34.0, 167.0, 77.0, 23.0 ],
									"text" : "startwindow"
								}

							}
, 							{
								"box" : 								{
									"border" : 0,
									"filename" : "helpdetails.js",
									"id" : "obj-8",
									"ignoreclick" : 1,
									"jsarguments" : [ "the.mc.live.rec~" ],
									"maxclass" : "jsui",
									"numinlets" : 1,
									"numoutlets" : 1,
									"outlettype" : [ "" ],
									"parameter_enable" : 0,
									"patching_rect" : [ 10.0, 10.0, 630.0, 137.0 ]
								}

							}
, 							{
								"box" : 								{
									"bgcolor" : [ 1.0, 0.788235, 0.470588, 1.0 ],
									"fontname" : "Arial Bold",
									"hint" : "",
									"id" : "obj-5",
									"ignoreclick" : 1,
									"legacytextcolor" : 1,
									"maxclass" : "textbutton",
									"numinlets" : 1,
									"numoutlets" : 3,
									"outlettype" : [ "", "", "int" ],
									"parameter_enable" : 0,
									"patching_rect" : [ 122.5, 167.0, 20.0, 20.0 ],
									"rounded" : 60.0,
									"text" : "1",
									"textcolor" : [ 0.34902, 0.34902, 0.34902, 1.0 ]
								}

							}
 ],
						"lines" : [ 							{
								"patchline" : 								{
									"destination" : [ "obj-6", 0 ],
									"order" : 1,
									"source" : [ "obj-10", 0 ]
								}

							}
, 							{
								"patchline" : 								{
									"destination" : [ "obj-9", 0 ],
									"order" : 0,
									"source" : [ "obj-10", 0 ]
								}

							}
, 							{
								"patchline" : 								{
									"destination" : [ "obj-9", 0 ],
									"midpoints" : [ 489.5, 360.5, 43.5, 360.5 ],
									"source" : [ "obj-11", 0 ]
								}

							}
, 							{
								"patchline" : 								{
									"color" : [ 0.701961, 0.701961, 0.701961, 0.0 ],
									"destination" : [ "obj-4", 0 ],
									"hidden" : 1,
									"source" : [ "obj-13", 0 ]
								}

							}
, 							{
								"patchline" : 								{
									"destination" : [ "obj-24", 0 ],
									"midpoints" : [ 204.5, 481.75, 320.5, 481.75 ],
									"source" : [ "obj-17", 1 ]
								}

							}
, 							{
								"patchline" : 								{
									"destination" : [ "obj-9", 0 ],
									"midpoints" : [ 341.5, 361.0, 43.5, 361.0 ],
									"source" : [ "obj-20", 1 ]
								}

							}
, 							{
								"patchline" : 								{
									"destination" : [ "obj-9", 0 ],
									"midpoints" : [ 575.5, 360.5, 43.5, 360.5 ],
									"source" : [ "obj-21", 0 ]
								}

							}
, 							{
								"patchline" : 								{
									"destination" : [ "obj-21", 0 ],
									"source" : [ "obj-23", 0 ]
								}

							}
, 							{
								"patchline" : 								{
									"destination" : [ "obj-26", 0 ],
									"source" : [ "obj-25", 0 ]
								}

							}
, 							{
								"patchline" : 								{
									"destination" : [ "obj-9", 0 ],
									"midpoints" : [ 643.5, 360.5, 43.5, 360.5 ],
									"source" : [ "obj-27", 0 ]
								}

							}
, 							{
								"patchline" : 								{
									"destination" : [ "obj-27", 0 ],
									"source" : [ "obj-28", 0 ]
								}

							}
, 							{
								"patchline" : 								{
									"destination" : [ "obj-7", 0 ],
									"source" : [ "obj-31", 0 ]
								}

							}
, 							{
								"patchline" : 								{
									"destination" : [ "obj-9", 0 ],
									"midpoints" : [ 725.5, 360.5, 43.5, 360.5 ],
									"source" : [ "obj-37", 0 ]
								}

							}
, 							{
								"patchline" : 								{
									"color" : [ 0.701961, 0.701961, 0.701961, 0.0 ],
									"destination" : [ "obj-16", 0 ],
									"hidden" : 1,
									"source" : [ "obj-47", 0 ]
								}

							}
, 							{
								"patchline" : 								{
									"destination" : [ "obj-10", 0 ],
									"source" : [ "obj-67", 0 ]
								}

							}
, 							{
								"patchline" : 								{
									"destination" : [ "obj-28", 0 ],
									"source" : [ "obj-7", 0 ]
								}

							}
, 							{
								"patchline" : 								{
									"destination" : [ "obj-14", 0 ],
									"midpoints" : [ 137.0, 425.0, 136.5, 425.0 ],
									"order" : 0,
									"source" : [ "obj-9", 1 ]
								}

							}
, 							{
								"patchline" : 								{
									"destination" : [ "obj-15", 0 ],
									"source" : [ "obj-9", 2 ]
								}

							}
, 							{
								"patchline" : 								{
									"destination" : [ "obj-17", 0 ],
									"midpoints" : [ 137.0, 425.0, 136.5, 425.0 ],
									"order" : 1,
									"source" : [ "obj-9", 1 ]
								}

							}
, 							{
								"patchline" : 								{
									"destination" : [ "obj-19", 0 ],
									"midpoints" : [ 417.5, 430.75, 599.0, 430.75 ],
									"source" : [ "obj-9", 4 ]
								}

							}
, 							{
								"patchline" : 								{
									"destination" : [ "obj-2", 0 ],
									"order" : 1,
									"source" : [ "obj-9", 0 ]
								}

							}
, 							{
								"patchline" : 								{
									"destination" : [ "obj-25", 0 ],
									"order" : 0,
									"source" : [ "obj-9", 0 ]
								}

							}
, 							{
								"patchline" : 								{
									"destination" : [ "obj-3", 0 ],
									"source" : [ "obj-9", 3 ]
								}

							}
 ],
						"textcolor" : [ 0.0, 0.0, 0.0, 1.0 ],
						"bgfillcolor_type" : "gradient",
						"bgfillcolor_color1" : [ 0.301961, 0.301961, 0.301961, 1 ],
						"bgfillcolor_color2" : [ 0.2, 0.2, 0.2, 1 ],
						"bgfillcolor_color" : [ 0.2, 0.2, 0.2, 1 ]
					}
,
					"patching_rect" : [ 10.0, 85.0, 50.0, 22.0 ],
					"saved_object_attributes" : 					{
						"description" : "",
						"digest" : "",
						"fontsize" : 13.0,
						"globalpatchername" : "",
						"tags" : "",
						"textcolor" : [ 0.0, 0.0, 0.0, 1.0 ]
					}
,
					"text" : "p basic",
					"varname" : "basic_tab"
				}

			}
, 			{
				"box" : 				{
					"border" : 0,
					"filename" : "helpname.js",
					"id" : "obj-10",
					"ignoreclick" : 1,
					"jsarguments" : [ "oni.streamfunnel" ],
					"maxclass" : "jsui",
					"numinlets" : 1,
					"numoutlets" : 1,
					"outlettype" : [ "" ],
					"parameter_enable" : 0,
					"patching_rect" : [ 10.0, 10.0, 358.447998046875, 57.599853515625 ]
				}

			}
 ],
		"lines" : [ 			{
				"patchline" : 				{
					"destination" : [ "obj-1", 0 ],
					"source" : [ "obj-11", 0 ]
				}

			}
, 			{
				"patchline" : 				{
					"destination" : [ "obj-15", 0 ],
					"source" : [ "obj-14", 0 ]
				}

			}
, 			{
				"patchline" : 				{
					"destination" : [ "obj-4", 0 ],
					"source" : [ "obj-2", 0 ]
				}

			}
, 			{
				"patchline" : 				{
					"destination" : [ "obj-3", 0 ],
					"source" : [ "obj-4", 0 ]
				}

			}
 ],
		"parameters" : 		{
			"obj-6::obj-25" : [ "mc.live.gain~[1]", "mc.live.gain~", 0 ],
			"parameterbanks" : 			{

			}
,
			"inherited_shortname" : 1
		}
,
		"dependency_cache" : [ 			{
				"name" : "helpdetails.js",
				"bootpath" : "C74:/help/resources",
				"type" : "TEXT",
				"implicit" : 1
			}
, 			{
				"name" : "helpname.js",
				"bootpath" : "C74:/help/resources",
				"type" : "TEXT",
				"implicit" : 1
			}
, 			{
				"name" : "helpstarter.js",
				"bootpath" : "C74:/help/resources",
				"type" : "TEXT",
				"implicit" : 1
			}
, 			{
				"name" : "the.mc.live.rec~.maxpat",
				"bootpath" : "~/Documents/Max 8/Packages/the-abstractions/msp/recording",
				"patcherrelativepath" : ".",
				"type" : "JSON",
				"implicit" : 1
			}
, 			{
				"name" : "the.svgbutton.js",
				"bootpath" : "~/Documents/Max 8/Packages/the-abstractions/install_dependencies/ui_tools",
				"patcherrelativepath" : "../../install_dependencies/ui_tools",
				"type" : "TEXT",
				"implicit" : 1
			}
 ],
		"autosave" : 0,
		"styles" : [ 			{
				"name" : "livid_sysex",
				"default" : 				{
					"accentcolor" : [ 0.596078, 0.174761, 0.100412, 1.0 ],
					"textcolor_inverse" : [ 0.683327, 0.922818, 0.83347, 1.0 ]
				}
,
				"parentstyle" : "",
				"multi" : 0
			}
, 			{
				"name" : "oni",
				"button" : 				{
					"color" : [ 1.0, 0.741176, 0.196078, 1.0 ],
					"elementcolor" : [ 0.4, 0.486275, 0.505882, 1.0 ]
				}
,
				"umenu" : 				{
					"color" : [ 0.376471, 0.384314, 0.4, 1.0 ],
					"elementcolor" : [ 0.376471, 0.384314, 0.4, 1.0 ],
					"textcolor_inverse" : [ 1.0, 0.984314, 0.870588, 1.0 ]
				}
,
				"parentstyle" : "oni_default-1",
				"multi" : 1
			}
, 			{
				"name" : "oni_default",
				"newobj" : 				{
					"accentcolor" : [ 0.501961, 0.501961, 0.0, 1.0 ],
					"bgcolor" : [ 0.937255, 0.898039, 0.0, 1.0 ],
					"textcolor_inverse" : [ 0.0, 0.0, 0.0, 1.0 ]
				}
,
				"number" : 				{
					"accentcolor" : [ 0.4, 0.486275, 0.505882, 1.0 ],
					"selectioncolor" : [ 1.0, 0.741176, 0.196078, 1.0 ],
					"textcolor_inverse" : [ 1.0, 0.984314, 0.870588, 1.0 ]
				}
,
				"slider" : 				{
					"bgcolor" : [ 0.4, 0.486275, 0.505882, 1.0 ]
				}
,
				"umenu" : 				{
					"bgfillcolor" : 					{
						"angle" : 270.0,
						"autogradient" : 0,
						"color" : [ 0.290196, 0.309804, 0.301961, 1.0 ],
						"color1" : [ 0.376471, 0.384314, 0.4, 1.0 ],
						"color2" : [ 0.290196, 0.309804, 0.301961, 1.0 ],
						"proportion" : 0.39,
						"type" : "color"
					}
,
					"color" : [ 0.4, 0.486275, 0.505882, 1.0 ],
					"textcolor_inverse" : [ 1.0, 0.984314, 0.870588, 1.0 ]
				}
,
				"button" : 				{
					"color" : [ 1.0, 0.741176, 0.196078, 1.0 ],
					"elementcolor" : [ 0.4, 0.486275, 0.505882, 1.0 ]
				}
,
				"panel" : 				{
					"color" : [ 0.803922, 0.898039, 0.909804, 1.0 ]
				}
,
				"textbutton" : 				{
					"color" : [ 1.0, 0.741176, 0.196078, 1.0 ],
					"selectioncolor" : [ 1.0, 0.741176, 0.196078, 0.66 ]
				}
,
				"dial" : 				{
					"elementcolor" : [ 0.376471, 0.384314, 0.4, 1.0 ]
				}
,
				"parentstyle" : "",
				"multi" : 1
			}
, 			{
				"name" : "oni_default-1",
				"preset" : 				{
					"accentcolor" : [ 0.411765, 0.568627, 0.588235, 0.71 ],
					"bgcolor" : [ 0.25098, 0.25098, 0.25098, 1.0 ],
					"color" : [ 1.0, 0.741176, 0.196078, 1.0 ],
					"elementcolor" : [ 0.431373, 0.431373, 0.431373, 0.46 ],
					"fontname" : [ "Futura Std Book" ],
					"textcolor" : [ 1.0, 0.995412, 0.945192, 1.0 ]
				}
,
				"textbutton" : 				{
					"accentcolor" : [ 0.4, 0.486275, 0.505882, 1.0 ],
					"bgcolor" : [ 0.25098, 0.25098, 0.25098, 1.0 ],
					"color" : [ 1.0, 0.741176, 0.196078, 1.0 ],
					"elementcolor" : [ 0.25098, 0.25098, 0.25098, 1.0 ],
					"fontname" : [ "Futura Std Book" ],
					"selectioncolor" : [ 0.968627, 0.768627, 0.101961, 0.509804 ]
				}
,
				"button" : 				{
					"bgcolor" : [ 0.25098, 0.25098, 0.25098, 0.0 ],
					"color" : [ 1.0, 0.101961, 0.305882, 1.0 ],
					"elementcolor" : [ 1.0, 0.101961, 0.305882, 1.0 ]
				}
,
				"dial" : 				{
					"bgcolor" : [ 0.875413, 0.933282, 0.915502, 0.0 ],
					"color" : [ 1.0, 0.741176, 0.196078, 1.0 ],
					"elementcolor" : [ 0.376471, 0.384314, 0.4, 1.0 ]
				}
,
				"slider" : 				{
					"bgcolor" : [ 1.0, 1.0, 1.0, 1.0 ],
					"color" : [ 1.0, 0.741176, 0.196078, 1.0 ]
				}
,
				"panel" : 				{
					"bgfillcolor" : 					{
						"angle" : 270.0,
						"color" : [ 0.290196, 0.309804, 0.301961, 1.0 ],
						"color1" : [ 0.25098, 0.25098, 0.25098, 1.0 ],
						"color2" : [ 0.25098, 0.25098, 0.25098, 1.0 ],
						"proportion" : 0.39,
						"type" : "gradient"
					}
,
					"color" : [ 0.803922, 0.898039, 0.909804, 1.0 ]
				}
,
				"umenu" : 				{
					"bgfillcolor" : 					{
						"angle" : 270.0,
						"autogradient" : 0,
						"color" : [ 0.25098, 0.25098, 0.25098, 1.0 ],
						"color1" : [ 0.376471, 0.384314, 0.4, 1.0 ],
						"color2" : [ 0.290196, 0.309804, 0.301961, 1.0 ],
						"proportion" : 0.39,
						"type" : "color"
					}
,
					"fontname" : [ "Futura Std Book" ],
					"textcolor_inverse" : [ 1.0, 0.998287, 0.929809, 1.0 ]
				}
,
				"tab" : 				{
					"color" : [ 1.0, 0.741176, 0.196078, 0.84 ],
					"elementcolor" : [ 0.6, 0.6, 0.6, 0.15 ],
					"fontname" : [ "Futura Std Book" ],
					"textcolor_inverse" : [ 0.400043, 0.485168, 0.504775, 1.0 ]
				}
,
				"comment" : 				{
					"fontname" : [ "Futura Std Book" ],
					"fontsize" : [ 12.0 ],
					"textcolor" : [ 1.0, 0.998287, 0.929809, 1.0 ],
					"textjustification" : [ 2 ]
				}
,
				"number" : 				{
					"fontname" : [ "Futura Std Book" ],
					"fontsize" : [ 12.0 ]
				}
,
				"parentstyle" : "",
				"multi" : 1
			}
, 			{
				"name" : "oni_default-2",
				"textbutton" : 				{
					"accentcolor" : [ 0.4, 0.486275, 0.505882, 1.0 ],
					"bgcolor" : [ 0.25098, 0.25098, 0.25098, 1.0 ],
					"color" : [ 1.0, 0.741176, 0.196078, 1.0 ],
					"elementcolor" : [ 0.25098, 0.25098, 0.25098, 1.0 ],
					"fontname" : [ "Futura Std Book" ],
					"selectioncolor" : [ 0.968627, 0.768627, 0.101961, 0.509804 ]
				}
,
				"comment" : 				{
					"fontname" : [ "Futura Std Book" ],
					"fontsize" : [ 12.0 ],
					"textcolor" : [ 1.0, 0.998287, 0.929809, 1.0 ],
					"textjustification" : [ 2 ]
				}
,
				"number" : 				{
					"fontname" : [ "Futura Std Book" ],
					"selectioncolor" : [ 1.0, 0.741176, 0.196078, 1.0 ],
					"textcolor_inverse" : [ 1.0, 0.984314, 0.870588, 1.0 ]
				}
,
				"parentstyle" : "",
				"multi" : 1
			}
, 			{
				"name" : "oni_default-3",
				"textbutton" : 				{
					"accentcolor" : [ 0.4, 0.486275, 0.505882, 1.0 ],
					"bgcolor" : [ 0.25098, 0.25098, 0.25098, 1.0 ],
					"color" : [ 1.0, 0.741176, 0.196078, 1.0 ],
					"elementcolor" : [ 0.25098, 0.25098, 0.25098, 1.0 ],
					"fontname" : [ "Futura Std Book" ],
					"selectioncolor" : [ 0.968627, 0.768627, 0.101961, 0.509804 ]
				}
,
				"comment" : 				{
					"fontname" : [ "Futura Std Book" ],
					"fontsize" : [ 12.0 ],
					"textcolor" : [ 1.0, 0.998287, 0.929809, 1.0 ],
					"textjustification" : [ 2 ]
				}
,
				"number" : 				{
					"fontname" : [ "Futura Std Book" ],
					"selectioncolor" : [ 1.0, 0.741176, 0.196078, 1.0 ],
					"textcolor_inverse" : [ 1.0, 0.984314, 0.870588, 1.0 ]
				}
,
				"parentstyle" : "",
				"multi" : 1
			}
, 			{
				"name" : "oni_default-4",
				"textbutton" : 				{
					"accentcolor" : [ 0.4, 0.486275, 0.505882, 1.0 ],
					"bgcolor" : [ 0.25098, 0.25098, 0.25098, 1.0 ],
					"color" : [ 1.0, 0.741176, 0.196078, 1.0 ],
					"elementcolor" : [ 0.25098, 0.25098, 0.25098, 1.0 ],
					"fontname" : [ "Futura Std Book" ],
					"selectioncolor" : [ 0.968627, 0.768627, 0.101961, 0.509804 ]
				}
,
				"comment" : 				{
					"fontname" : [ "Futura Std Book" ],
					"fontsize" : [ 12.0 ],
					"textcolor" : [ 1.0, 0.998287, 0.929809, 1.0 ],
					"textjustification" : [ 2 ]
				}
,
				"number" : 				{
					"fontname" : [ "Futura Std Book" ],
					"selectioncolor" : [ 1.0, 0.741176, 0.196078, 1.0 ],
					"textcolor_inverse" : [ 1.0, 0.984314, 0.870588, 1.0 ]
				}
,
				"parentstyle" : "",
				"multi" : 1
			}
, 			{
				"name" : "oni_default-5",
				"textbutton" : 				{
					"accentcolor" : [ 0.4, 0.486275, 0.505882, 1.0 ],
					"bgcolor" : [ 0.25098, 0.25098, 0.25098, 1.0 ],
					"color" : [ 1.0, 0.741176, 0.196078, 1.0 ],
					"elementcolor" : [ 0.25098, 0.25098, 0.25098, 1.0 ],
					"fontname" : [ "Futura Std Book" ],
					"selectioncolor" : [ 0.968627, 0.768627, 0.101961, 0.509804 ]
				}
,
				"comment" : 				{
					"fontname" : [ "Futura Std Book" ],
					"fontsize" : [ 12.0 ],
					"textcolor" : [ 1.0, 0.998287, 0.929809, 1.0 ],
					"textjustification" : [ 2 ]
				}
,
				"number" : 				{
					"fontname" : [ "Futura Std Book" ],
					"selectioncolor" : [ 1.0, 0.741176, 0.196078, 1.0 ],
					"textcolor_inverse" : [ 1.0, 0.984314, 0.870588, 1.0 ]
				}
,
				"parentstyle" : "",
				"multi" : 1
			}
, 			{
				"name" : "patcherargs",
				"default" : 				{
					"accentcolor" : [ 0.054902, 0.341176, 0.498039, 1.0 ],
					"bgcolor" : [ 0.545098, 0.85098, 0.592157, 1.0 ],
					"textcolor_inverse" : [ 0.0, 0.0, 0.0, 1.0 ]
				}
,
				"parentstyle" : "",
				"multi" : 0
			}
, 			{
				"name" : "pattr001",
				"newobj" : 				{
					"accentcolor" : [ 0.501961, 0.501961, 0.0, 1.0 ],
					"bgcolor" : [ 0.937255, 0.898039, 0.0, 1.0 ],
					"textcolor_inverse" : [ 0.0, 0.0, 0.0, 1.0 ]
				}
,
				"parentstyle" : "",
				"multi" : 1
			}
, 			{
				"name" : "pattr_inv",
				"default" : 				{
					"accentcolor" : [ 0.356495, 0.111353, 0.074435, 1.0 ],
					"bgcolor" : [ 0.545098, 0.85098, 0.592157, 1.0 ],
					"textcolor_inverse" : [ 0.0, 0.0, 0.0, 1.0 ]
				}
,
				"parentstyle" : "",
				"multi" : 0
			}
, 			{
				"name" : "tap",
				"default" : 				{
					"fontname" : [ "Lato Light" ]
				}
,
				"parentstyle" : "",
				"multi" : 0
			}
, 			{
				"name" : "thisdevice",
				"default" : 				{
					"accentcolor" : [ 0.501961, 0.501961, 0.0, 1.0 ],
					"bgcolor" : [ 0.937255, 0.796078, 0.0, 1.0 ],
					"textcolor_inverse" : [ 0.0, 0.0, 0.0, 1.0 ]
				}
,
				"parentstyle" : "",
				"multi" : 0
			}
 ]
	}

}
